<?xml version="1.0" standalone="no"?>
<!DOCTYPE svg PUBLIC "-//W3C//DTD SVG 20010904//EN"
 "http://www.w3.org/TR/2001/REC-SVG-20010904/DTD/svg10.dtd">
<svg version="1.0" xmlns="http://www.w3.org/2000/svg"
 width="512.000000pt" height="512.000000pt" viewBox="0 0 512.000000 512.000000"
 preserveAspectRatio="xMidYMid meet">

<g transform="translate(0.000000,512.000000) scale(0.100000,-0.100000)"
fill="#000000" stroke="none">
<path d="M1325 4263 c-215 -29 -387 -177 -452 -388 -17 -57 -18 -119 -18
-1100 0 -1128 -2 -1080 56 -1200 59 -120 164 -213 299 -264 60 -23 81 -25 283
-29 l217 -4 0 -136 c0 -110 3 -144 18 -172 25 -50 74 -80 134 -80 43 0 92 22
438 195 l390 195 657 0 c723 0 725 0 845 61 79 40 183 143 226 225 65 124 63
85 60 1237 l-3 1042 -25 65 c-65 165 -174 272 -340 332 l-65 23 -1345 1 c-740
1 -1358 -1 -1375 -3z m2739 -234 c70 -26 139 -92 174 -167 l27 -57 0 -1030 0
-1030 -33 -67 c-37 -76 -82 -120 -162 -157 l-55 -26 -700 -5 -700 -5 -337
-173 c-185 -94 -342 -172 -347 -172 -7 0 -11 47 -11 136 0 149 -10 184 -59
203 -15 6 -142 12 -286 13 -258 3 -260 3 -317 30 -75 35 -141 104 -167 174
-21 54 -21 69 -21 1077 0 1176 -8 1079 95 1182 102 102 -41 93 1497 94 1337 1
1348 1 1402 -20z"/>
<path d="M2510 3824 c-229 -61 -405 -239 -465 -469 -19 -75 -19 -221 0 -303
28 -116 104 -244 191 -321 l46 -40 -54 -27 c-296 -150 -498 -458 -515 -786
l-6 -107 31 -30 c22 -23 40 -31 66 -31 82 0 110 38 119 155 25 322 244 587
557 672 101 27 292 25 390 -6 301 -93 514 -348 536 -638 3 -43 10 -93 16 -110
29 -98 165 -97 198 1 23 71 -20 292 -84 432 -78 168 -224 329 -384 423 l-91
54 69 74 c116 125 173 268 172 438 0 296 -195 545 -487 620 -74 19 -232 19
-305 -1z m241 -208 c87 -19 141 -47 206 -108 90 -86 133 -185 133 -308 0 -124
-43 -222 -135 -309 -169 -160 -422 -155 -588 10 -238 238 -118 644 213 715 73
16 93 16 171 0z"/>
</g>
</svg>
