<svg width="782" height="241" xmlns="http://www.w3.org/2000/svg" xmlns:xlink="http://www.w3.org/1999/xlink" xml:space="preserve" overflow="hidden"><defs><clipPath id="clip0"><rect x="160" y="25" width="782" height="241"/></clipPath></defs><g clip-path="url(#clip0)" transform="translate(-160 -25)"><path d="M683.969 207.812C682.552 207.154 680.578 205.889 679.566 204.978 678.047 203.662 677.693 203.004 677.693 201.486 677.693 200.474 678.148 199.006 678.705 198.145 679.92 196.323 679.97 195.21 678.908 193.641 678.401 192.831 678.351 192.325 678.655 192.123 679.211 191.768 678.857 188.883 678.148 187.972 677.895 187.669 677.136 187.517 676.428 187.669 675.618 187.821 675.162 187.669 675.162 187.264 675.162 186.91 675.517 186.758 675.922 186.96 676.326 187.112 676.681 187.011 676.681 186.808 676.681 186.555 676.377 186.252 676.073 186.15 675.618 185.999 675.668 185.644 676.326 184.986 677.642 183.67 677.187 182.658 674.909 181.848 671.113 180.583 671.316 180.684 672.126 180.128 672.733 179.723 672.682 179.672 671.873 179.875 671.316 180.026 669.949 179.824 668.836 179.419 667.014 178.711 666.963 178.66 668.33 178.761 669.544 178.862 669.848 178.711 669.797 178.002 669.696 177.243 669.848 177.192 670.455 177.749 671.164 178.306 671.215 178.002 670.962 175.269 670.86 173.599 670.911 171.878 671.164 171.473 671.417 171.068 671.62 171.979 671.62 173.852 671.62 178.66 673.037 179.976 673.188 175.32 673.239 173.953 673.492 172.435 673.745 171.979 673.998 171.473 673.998 171.068 673.745 171.068 673.543 171.068 673.34 170.613 673.34 170.056 673.34 169.398 673.543 169.246 673.846 169.55 674.859 170.562 675.162 170.005 675.162 167.272 675.162 163.324 674.302 162.16 670.962 161.756 669.544 161.553 668.127 161.199 667.824 160.946 667.52 160.693 666.66 160.44 665.951 160.338 663.42 159.984 663.876 159.478 667.014 159.124 669.342 158.871 670.253 158.516 670.658 157.808 671.063 156.998 671.316 156.947 671.923 157.454 672.328 157.757 672.733 157.96 672.834 157.858 673.239 157.352 672.227 152.19 671.62 151.836 671.265 151.633 671.113 151.076 671.265 150.672 671.569 149.862 674.251 149.153 674.656 149.811 674.808 150.014 675.719 150.317 676.681 150.368 678.401 150.57 678.452 150.52 678.604 148.596 678.705 147.483 678.655 146.066 678.452 145.408 678.098 143.94 675.517 142.725 673.593 143.08L672.227 143.333 671.873 136.956 671.518 130.579 660.94 130.882 650.362 131.237 650.362 129.668 650.362 128.048 645.251 128.048C642.366 128.048 640.291 127.846 640.443 127.593 640.594 127.339 643.176 126.985 646.162 126.783 653.45 126.327 667.52 124.252 668.229 123.544 668.532 123.24 669.19 122.987 669.646 122.987 670.152 122.987 670.708 122.784 670.86 122.481 671.012 122.228 671.164 115.344 671.113 107.196 671.113 93.1765 671.012 92.3667 670.101 91.5063 668.886 90.3928 668.836 89.6336 669.797 88.2671 670.202 87.7104 670.658 85.9896 670.86 84.4206 671.215 81.7382 671.316 81.5357 672.733 81.232 673.543 81.0296 674.353 80.5741 674.504 80.1692 674.909 79.0557 674.504 78.9039 672.935 79.7137 672.126 80.1186 670.152 80.4729 668.532 80.4729 665.091 80.4729 663.218 81.1814 662.813 82.6998 662.661 83.3071 661.649 84.6737 660.536 85.7365 658.865 87.3561 658.157 87.7104 656.537 87.7104 654.361 87.7104 651.628 86.1414 651.172 84.623 650.919 83.9145 649.856 83.6108 645.656 83.0541 637.861 82.0925 637.963 82.1431 640.038 79.7137 641.303 78.2459 641.758 78.3472 642.416 80.2198 642.518 80.4729 644.39 80.7765 646.567 80.8778L650.514 81.0802 650.261 79.5112C650.109 78.6002 650.211 77.7904 650.464 77.6386 650.717 77.4868 653.096 77.3855 655.829 77.3855 663.37 77.4362 671.67 76.3733 679.464 74.2982 680.527 74.0452 682.805 72.7799 684.424 71.5146 686.803 69.6925 687.765 68.4779 688.979 65.846L690.599 62.5057 690.751 49.9033C690.953 35.985 690.751 35.0234 688.423 37.8071 687.663 38.6675 686.196 39.7303 685.183 40.1858L683.26 40.945 683.26 54.1547 683.26 67.3138 674.808 67.2126 666.305 67.0607 666.052 56.4322 665.799 45.8037 658.41 46.0062C649.806 46.2086 648.844 46.0062 648.844 44.1335 648.844 41.856 648.237 38.9711 647.781 38.9711 647.528 38.9711 647.326 40.3883 647.326 42.0585 647.326 44.2348 647.073 45.3482 646.567 45.7531 645.656 46.4111 645.453 53.4461 646.263 56.1792 646.921 58.3049 647.022 66.6558 646.364 67.0101 646.162 67.1619 645.807 68.8828 645.605 70.9072 645.453 72.8811 645.099 74.8549 644.846 75.3611 644.542 75.8672 644.593 76.5251 644.846 77.0819 645.301 77.8411 645.099 77.9423 643.682 77.9423L642.012 77.9423 641.961 68.9334C641.809 44.9433 641.809 45.0446 641.05 45.0446 640.594 45.0446 640.19 45.8037 639.987 47.069 639.785 48.1825 639.38 49.0935 639.025 49.0935 638.57 49.0935 638.418 47.0184 638.469 40.7932 638.57 33.91 638.722 32.2398 639.43 31.1263 640.341 29.7598 650.109 24.5974 650.919 25.1035 651.172 25.2553 651.729 25.0023 652.185 24.5468 652.64 24.0912 653.298 23.8382 653.652 23.99 654.057 24.1419 654.462 23.8888 654.614 23.4839 654.816 22.9778 655.778 22.7753 658.005 22.7753 660.687 22.7753 661.042 22.8766 660.485 23.5345 660.181 23.9394 660.029 24.4455 660.131 24.6986 660.282 24.901 668.482 25.1541 678.3 25.2047 688.119 25.2553 696.875 25.4072 697.685 25.559 698.545 25.6602 701.784 25.9133 704.973 26.1157 710.135 26.4194 710.793 26.3688 711.4 25.6096 711.957 24.7998 712.767 24.6986 718.132 24.8504 721.422 24.9517 724.357 25.2047 724.56 25.4072 724.762 25.6602 724.964 26.7737 724.964 27.9378L725.015 30.1141 721.219 30.2659C719.144 30.3165 713.425 30.2153 708.566 29.9622 700.013 29.5573 695.711 29.861 694.698 30.8732 693.838 31.7336 694.85 32.0373 696.774 31.5312 697.938 31.1769 700.519 31.1263 703.151 31.3287 707.908 31.683 708.566 32.0373 708.566 34.5173L708.566 35.8838 700.873 36.0357 693.13 36.1875 692.978 73.0835C692.927 100.869 692.725 110.182 692.269 110.739 691.662 111.397 691.561 112.105 691.409 115.851 691.358 117.116 691.156 117.47 690.599 117.217 690.194 117.065 689.84 117.217 689.789 117.571 689.688 119.798 689.283 122.025 688.625 123.847 688.068 125.517 687.917 127.643 688.119 133.666 688.22 137.867 688.423 141.46 688.524 141.663 688.676 141.865 688.878 144.143 689.081 146.774 689.485 152.696 689.688 153.607 690.548 152.898 691.054 152.494 691.206 152.898 691.307 154.771 691.662 160.541 691.712 160.136 690.346 160.187 689.131 160.187 689.131 160.237 689.081 165.197 689.081 170.562 689.688 171.777 691.004 169.246L691.712 167.88 691.965 169.094C692.117 169.752 692.219 172.586 692.117 175.37 691.965 180.988 692.37 182.709 693.889 182.709 694.445 182.709 694.901 183.063 694.901 183.468 694.901 183.924 694.496 184.177 693.787 184.075 693.13 184.025 692.623 184.227 692.674 184.632 692.725 184.936 692.775 186.505 692.826 188.023 692.876 190.452 693.028 190.807 693.889 190.807 694.547 190.807 694.8 190.554 694.597 190.048 694.395 189.592 694.597 189.288 695.103 189.288 696.065 189.288 696.267 186.454 695.306 186.15 694.344 185.796 696.014 182.81 698.393 180.431 699.557 179.368 700.468 178.154 700.468 177.799 700.468 176.737 701.784 177.04 702.645 178.306 703.303 179.166 703.556 179.267 703.91 178.711 704.568 177.799 706.947 178.356 708.718 179.875 710.034 181.039 710.692 182.304 709.477 181.342 709.123 181.039 707.959 180.533 706.947 180.229 705.175 179.672 704.922 179.723 703.252 180.937 702.29 181.697 701.48 182.658 701.48 183.013 701.48 183.417 701.076 184.126 700.569 184.632 699.76 185.442 699.557 185.492 699.152 184.885 698.849 184.379 698.241 184.278 697.28 184.48 696.116 184.784 695.913 185.088 696.166 185.948 696.318 186.505 696.521 187.264 696.571 187.568 696.672 187.922 696.976 188.479 697.28 188.833 697.533 189.238 697.735 190.351 697.634 191.313 697.482 193.59 698.039 194.603 701.278 197.69 703.96 200.221 704.821 201.84 703.201 201.233 702.746 201.081 702.29 200.929 702.189 200.929 702.037 200.929 702.088 200.727 702.24 200.423 702.392 200.119 702.189 200.069 701.734 200.221 700.772 200.625 695.964 196.172 695.863 194.856 695.863 194.451 695.356 195.159 694.749 196.475 694.142 197.741 693.028 199.411 692.269 200.069 691.054 201.182 690.903 201.638 691.054 204.168 691.105 205.737 691.358 207.154 691.51 207.357 692.067 207.863 690.852 209.027 689.789 209.027 689.232 209.027 688.828 208.673 688.828 208.217 688.828 207.812 688.625 207.61 688.321 207.762 688.068 207.914 687.815 207.812 687.815 207.559 687.815 207.256 688.17 207.003 688.574 207.003 688.979 207.003 689.334 206.8 689.334 206.547 689.334 206.243 688.878 206.092 688.321 206.142 687.562 206.193 687.309 206.547 687.309 207.61 687.309 209.331 687.208 209.331 683.969 207.812ZM688.828 204.725C688.473 204.32 688.119 203.966 688.068 203.966 687.967 203.966 687.815 204.32 687.613 204.725 687.41 205.231 687.663 205.484 688.423 205.484 689.283 205.484 689.334 205.383 688.828 204.725ZM682.248 203.257C682.248 203.156 681.843 202.751 681.388 202.397 680.578 201.739 680.527 201.79 681.185 202.599 681.843 203.409 682.248 203.662 682.248 203.257ZM690.852 200.879C690.852 200.575 690.65 200.524 690.346 200.676 690.093 200.828 689.84 201.233 689.84 201.486 689.84 201.79 690.093 201.84 690.346 201.688 690.65 201.536 690.852 201.132 690.852 200.879ZM693.13 196.273C693.332 195.21 693.737 194.35 694.041 194.35 694.445 194.35 694.445 194.198 693.99 193.742 693.585 193.337 693.231 193.337 692.725 193.793 691.915 194.451 691.156 198.145 691.662 199.006 692.117 199.714 692.775 198.55 693.13 196.273ZM698.444 196.121C698.089 195.716 697.533 195.362 697.229 195.362 696.925 195.362 697.128 195.716 697.634 196.121 698.899 197.083 699.254 197.083 698.444 196.121ZM696.267 192.578C695.103 191.465 694.597 191.667 695.66 192.831 696.166 193.388 696.672 193.742 696.824 193.641 696.925 193.489 696.672 193.034 696.267 192.578ZM697.432 189.744C697.432 189.491 697.077 189.288 696.672 189.288 695.913 189.288 695.66 189.896 696.217 190.452 696.622 190.857 697.432 190.402 697.432 189.744ZM675.517 179.368C675.365 179.217 674.909 179.166 674.555 179.318 674.15 179.47 674.302 179.622 674.859 179.622 675.415 179.672 675.719 179.52 675.517 179.368ZM678.503 159.68C679.11 158.111 678.199 155.53 676.883 154.923 676.124 154.619 675.719 154.569 675.922 154.872 676.124 155.176 675.668 155.378 674.96 155.378 673.948 155.378 673.745 155.581 673.948 156.289 674.454 157.858 675.415 159.68 675.922 160.035 676.782 160.693 678.199 160.49 678.503 159.68ZM685.791 128.048C685.791 127.795 685.538 127.542 685.234 127.542 684.981 127.542 684.88 127.795 685.032 128.048 685.183 128.352 685.437 128.554 685.588 128.554 685.69 128.554 685.791 128.352 685.791 128.048ZM664.787 79.9668C664.939 79.7137 664.838 79.4606 664.584 79.4606 664.281 79.4606 664.028 79.7137 664.028 79.9668 664.028 80.2704 664.129 80.4729 664.23 80.4729 664.382 80.4729 664.635 80.2704 664.787 79.9668ZM663.876 78.6508C663.724 78.499 663.269 78.4484 662.914 78.6002 662.509 78.7521 662.661 78.9039 663.218 78.9039 663.775 78.9545 664.078 78.8027 663.876 78.6508ZM673.391 77.3855C674.049 77.0819 673.391 77.0313 671.366 77.2337 669.696 77.4362 668.229 77.6386 668.127 77.7398 667.672 78.1447 672.429 77.8411 673.391 77.3855ZM678.452 75.9178C678.604 75.6647 678.3 75.4117 677.744 75.4117 677.187 75.4117 676.579 75.6647 676.428 75.9178 676.276 76.2215 676.579 76.4239 677.136 76.4239 677.693 76.4239 678.3 76.2215 678.452 75.9178Z" fill="#EBEBEB" transform="matrix(1.00071 0 0 -1 160 265.956)"/><path d="M730.076 204.472C719.144 201.587 718.891 201.536 716.917 198.399 715.905 196.88 715.196 195.311 715.247 194.906 715.449 193.995 717.676 193.793 717.676 194.653 717.676 195.008 719.195 196.88 721.118 198.803 724.762 202.549 723.8 202.144 733.771 204.573 734.935 204.877 735.897 205.332 735.897 205.535 735.897 205.788 735.846 205.99 735.795 205.94 735.694 205.94 733.164 205.282 730.076 204.472Z" fill="#EBEBEB" transform="matrix(1.00071 0 0 -1 160 265.956)"/><path d="M706.896 202.245C707.048 201.536 707.453 200.879 707.858 200.727 708.718 200.423 708.718 200.474 708.06 202.144 707.453 203.814 706.592 203.865 706.896 202.245Z" fill="#EBEBEB" transform="matrix(1.00071 0 0 -1 160 265.956)"/><path d="M725.673 199.563C723.041 196.779 721.27 193.135 720.865 189.795 720.662 187.821 720.865 187.112 722.484 184.48 725.724 179.267 725.875 178.711 725.471 172.536 725.066 166.007 724.155 165.298 723.75 171.169 723.598 173.295 723.648 174.915 723.902 174.763 724.863 174.155 724.104 176.939 722.687 178.964 721.067 181.342 719.195 182.456 717.676 181.95 717.069 181.747 716.462 182.051 716.006 182.709 715.348 183.67 715.247 183.67 714.943 182.911 714.64 182.203 717.12 177.344 718.182 176.635 719.093 176.028 719.701 173.953 719.701 171.625 719.701 168.386 720.055 167.525 721.472 167.525 722.586 167.525 724.256 166.108 724.256 165.147 724.256 164.387 725.521 163.982 727.951 163.982 729.418 163.982 729.823 164.134 729.368 164.438 728.811 164.792 728.912 164.944 729.874 165.147 730.633 165.298 730.228 165.4 728.912 165.45 727.444 165.501 726.635 165.754 726.432 166.311 725.977 167.475 726.837 168.031 729.671 168.335L732.202 168.639 732.556 175.522C732.708 179.267 732.86 184.683 732.86 187.568 732.86 193.084 733.366 195.362 734.631 195.362 735.036 195.362 735.39 195.564 735.39 195.817 735.39 196.576 733.821 196.88 732.809 196.323 730.835 195.261 730.076 195.919 730.279 198.55L730.43 200.929 728.71 200.929C727.495 200.929 726.584 200.524 725.673 199.563ZM726.483 195.261C726.027 188.226 725.167 183.013 724.661 183.873 723.699 185.594 725.369 198.905 726.584 198.905 726.635 198.905 726.635 197.234 726.483 195.261ZM730.835 191.363C730.835 190.807 731.038 190.301 731.341 190.199 731.595 190.149 731.696 189.541 731.544 188.934 731.341 188.276 731.038 187.922 730.785 188.074 730.532 188.226 730.43 188.529 730.582 188.782 730.734 189.035 730.633 189.339 730.329 189.541 729.671 189.946 729.671 192.325 730.329 192.325 730.633 192.325 730.835 191.87 730.835 191.363Z" fill="#EBEBEB" transform="matrix(1.00071 0 0 -1 160 265.956)"/><path d="M703.758 197.386C702.594 196.172 702.493 195.868 703.201 195.868 703.657 195.868 703.96 196.07 703.809 196.323 703.657 196.576 703.809 196.88 704.163 197.032 704.568 197.184 704.77 196.728 704.821 195.767 704.872 194.906 705.074 194.097 705.378 193.894 706.491 193.135 707.554 190.959 707.554 189.39 707.554 188.479 706.845 186.252 705.985 184.43 705.175 182.608 704.517 180.937 704.618 180.684 704.872 180.026 714.488 189.44 714.893 190.756 715.196 191.768 715.095 191.92 714.387 191.617 713.83 191.414 712.666 192.072 710.793 193.641 709.275 194.957 708.161 195.716 708.313 195.311 708.414 194.906 708.364 194.248 708.06 193.843 707.301 192.629 706.339 194.046 706.289 196.475 706.238 197.639 706.036 198.652 705.732 198.753 705.479 198.854 704.568 198.247 703.758 197.386Z" fill="#EBEBEB" transform="matrix(1.00071 0 0 -1 160 265.956)"/><path d="M707.048 197.133C707.048 196.728 707.25 196.374 707.554 196.374 707.807 196.374 707.908 196.728 707.756 197.133 707.554 197.538 707.352 197.892 707.25 197.892 707.149 197.892 707.048 197.538 707.048 197.133Z" fill="#EBEBEB" transform="matrix(1.00071 0 0 -1 160 265.956)"/><path d="M700.924 195.008C700.266 194.198 700.316 194.147 701.126 194.805 701.936 195.463 702.189 195.868 701.784 195.868 701.683 195.868 701.278 195.463 700.924 195.008Z" fill="#EBEBEB" transform="matrix(1.00071 0 0 -1 160 265.956)"/><path d="M693.636 188.276C693.787 188.023 694.041 187.77 694.192 187.77 694.294 187.77 694.395 188.023 694.395 188.276 694.395 188.58 694.142 188.782 693.838 188.782 693.585 188.782 693.484 188.58 693.636 188.276Z" fill="#EBEBEB" transform="matrix(1.00071 0 0 -1 160 265.956)"/><path d="M712.311 183.67 710.338 181.595 712.21 182.759C713.931 183.873 714.943 185.088 714.488 185.543 714.387 185.644 713.425 184.784 712.311 183.67Z" fill="#EBEBEB" transform="matrix(1.00071 0 0 -1 160 265.956)"/><path d="M734.935 168.436C734.935 167.981 734.682 167.525 734.378 167.424 734.125 167.323 734.075 166.969 734.328 166.564 735.036 165.4 735.694 166.159 735.34 167.778 735.137 168.639 734.986 168.942 734.935 168.436Z" fill="#EBEBEB" transform="matrix(1.00071 0 0 -1 160 265.956)"/><path d="M753.611 166.969C749.865 166.817 745.563 166.614 744.146 166.564 742.679 166.564 741.464 166.311 741.464 166.007 741.464 165.298 757.052 165.45 761.709 166.209 765.403 166.817 765.454 166.817 763.48 167.171 762.367 167.373 761.253 167.475 760.949 167.424 760.696 167.373 757.356 167.171 753.611 166.969Z" fill="#EBEBEB" transform="matrix(1.00071 0 0 -1 160 265.956)"/><path d="M766.416 167.171C766.871 167.07 767.681 167.07 768.187 167.171 768.642 167.323 768.238 167.424 767.276 167.424 766.314 167.424 765.909 167.323 766.416 167.171Z" fill="#EBEBEB" transform="matrix(1.00071 0 0 -1 160 265.956)"/><path d="M666.71 166.007C664.838 164.893 664.635 164.236 665.9 163.78 666.811 163.426 669.747 165.855 669.291 166.614 668.886 167.222 668.532 167.12 666.71 166.007Z" fill="#EBEBEB" transform="matrix(1.00071 0 0 -1 160 265.956)"/><path d="M738.832 166.159C739.186 166.007 739.642 166.058 739.794 166.209 739.996 166.361 739.692 166.513 739.136 166.462 738.579 166.462 738.427 166.311 738.832 166.159Z" fill="#EBEBEB" transform="matrix(1.00071 0 0 -1 160 265.956)"/><path d="M690.093 165.501C689.941 165.248 690.042 164.995 690.295 164.995 690.599 164.995 690.852 165.248 690.852 165.501 690.852 165.804 690.751 166.007 690.65 166.007 690.498 166.007 690.245 165.804 690.093 165.501Z" fill="#EBEBEB" transform="matrix(1.00071 0 0 -1 160 265.956)"/><path d="M414.511 163.122C412.74 162.464 409.754 159.63 409.096 157.96 408.488 156.593 408.286 153.658 408.235 145.914 408.083 132.148 408.387 129.415 410.26 127.593 413.803 124.151 410.968 124.353 454.748 124.556 476.46 124.657 518.62 124.708 548.38 124.606 578.19 124.505 608.253 124.606 615.289 124.758 629.156 125.163 628.852 125.062 628.245 128.099L627.941 129.617 529.4 129.263C471.652 129.06 430.758 129.111 430.555 129.364 430.403 129.617 430.201 136.095 430.15 143.738L429.948 157.656 433.491 157.909C435.465 158.061 437.337 158.365 437.691 158.567 437.995 158.82 438.299 159.984 438.299 161.249L438.299 163.476 426.81 163.426C420.433 163.426 414.916 163.274 414.511 163.122Z" fill="#EBEBEB" transform="matrix(1.00071 0 0 -1 160 265.956)"/><path d="M521.96 162.667C521.049 162.211 519.531 160.946 518.569 159.934 516.342 157.454 515.988 155.277 516.393 146.116 516.747 138.322 516.95 137.715 520.138 135.488 522.011 134.223 522.719 134.071 528.185 133.767 531.526 133.615 537.346 133.666 541.243 133.868L548.278 134.223 550.1 135.893 551.922 137.563 552.074 143.89 552.277 150.216 546.76 150.115 541.294 150.064 541.142 144.345 540.99 138.626 538.865 138.778 536.739 138.93 536.739 148.546 536.739 158.162 544.432 158.314 552.074 158.466 552.277 160.743C552.378 162.009 552.327 163.122 552.226 163.274 552.125 163.375 545.596 163.476 537.802 163.476 525.807 163.476 523.327 163.324 521.96 162.667Z" fill="#EBEBEB" transform="matrix(1.00071 0 0 -1 160 265.956)"/><path d="M83.7626 162.464C82.0925 161.806 79.4606 158.719 78.9545 156.846 78.6508 155.935 78.4484 151.481 78.4484 146.977 78.4484 139.334 78.499 138.727 79.6125 137.158 82.0925 133.464 82.0925 133.464 95.707 133.413 102.388 133.362 107.955 133.464 108.056 133.615 108.158 133.767 108.107 134.881 107.955 136.045L107.651 138.17 103.704 138.17 99.7054 138.17 99.7054 148.04 99.7054 157.858 103.653 158.01 107.55 158.162 107.702 160.237 107.854 162.312 103.653 162.616C97.7821 163.071 84.9773 162.97 83.7626 162.464Z" fill="#EBEBEB" transform="matrix(1.00071 0 0 -1 160 265.956)"/><path d="M227.703 162.616 222.844 162.413 221.022 155.733C220.01 152.038 219.149 148.495 219.048 147.837 218.947 147.129 218.643 146.521 218.39 146.42 217.884 146.268 216.821 149.406 214.544 158.061L213.38 162.464 198.854 162.464 184.328 162.464 184.278 148.04 184.177 133.615 193.945 133.615 203.713 133.615 203.561 141.966C203.409 147.584 203.561 150.317 203.915 150.317 204.725 150.317 205.282 148.9 206.496 143.738 207.154 141.106 207.964 137.766 208.369 136.348L209.078 133.767 215.556 133.362C219.099 133.21 223.047 133.16 224.312 133.362L226.589 133.717 228.867 141.865C230.082 146.319 231.347 150.064 231.701 150.216 232.157 150.368 232.308 148.343 232.308 142.017L232.308 133.615 238.281 133.615 244.202 133.615 244.05 148.141 243.899 162.717 238.23 162.768C235.092 162.768 230.385 162.717 227.703 162.616Z" fill="#EBEBEB" transform="matrix(1.00071 0 0 -1 160 265.956)"/><path d="M251.794 162.059C250.681 161.502 249.01 160.288 248.099 159.225L246.48 157.352 246.48 148.495C246.48 138.575 246.682 137.766 249.871 135.336L251.794 133.868 265.51 133.868 279.226 133.868 281.098 135.286C282.111 136.095 283.224 137.361 283.528 138.069 283.831 138.879 284.034 143.181 284.034 148.596 284.034 158.769 283.933 159.073 280.693 161.351L278.72 162.717 266.269 162.869C255.033 162.97 253.616 162.869 251.794 162.059ZM271.786 147.938 271.786 138.12 269.66 138.272 267.484 138.423 267.332 147.787C267.281 152.898 267.281 157.352 267.433 157.656 267.534 157.96 268.496 158.111 269.711 158.01L271.786 157.808 271.786 147.938Z" fill="#EBEBEB" transform="matrix(1.00071 0 0 -1 160 265.956)"/><path d="M286.919 162.768C286.817 162.667 286.767 156.036 286.868 148.09L287.02 133.615 296.586 133.615 306.202 133.615 306.202 142.472C306.202 147.331 306.404 151.329 306.607 151.329 307.163 151.329 308.378 147.281 310.15 139.689L311.516 133.868 322.549 133.717 333.532 133.615 333.532 148.293 333.532 163.021 327.661 162.869 321.74 162.717 321.841 153.607C321.891 148.293 321.74 144.699 321.487 145.003 321.082 145.459 319.361 151.026 316.982 159.427L316.021 162.717 301.596 162.869C293.65 162.92 287.071 162.869 286.919 162.768Z" fill="#EBEBEB" transform="matrix(1.00071 0 0 -1 160 265.956)"/><path d="M336.974 162.667C336.215 162.413 335.506 159.276 335.962 157.96 336.063 157.656 337.48 157.403 339.15 157.403L342.136 157.403 342.136 145.56 342.136 133.666 347.349 133.514C350.184 133.413 354.486 133.413 356.864 133.514L361.217 133.666 361.571 136.753C361.723 138.423 361.875 143.94 361.875 148.9L361.875 157.96 364.659 157.656C366.177 157.454 367.442 157.504 367.493 157.707 367.543 158.516 367.948 161.401 368.049 162.059 368.151 162.565 365.114 162.717 353.018 162.818 344.667 162.818 337.48 162.768 336.974 162.667Z" fill="#EBEBEB" transform="matrix(1.00071 0 0 -1 160 265.956)"/><path d="M378.88 162.616C376.097 162.464 375.085 162.16 373.667 161.098 370.58 158.719 370.479 158.162 370.479 145.357L370.479 133.767 375.439 133.514C378.121 133.362 382.626 133.362 385.409 133.514L390.521 133.767 390.521 135.336C390.521 136.197 390.572 138.677 390.622 140.853L390.724 144.75 392.748 144.75 394.773 144.75 394.773 141.865C394.773 140.245 394.924 137.766 395.076 136.348L395.431 133.717 398.265 133.514C399.834 133.413 402.314 133.413 403.781 133.514L406.413 133.717 406.413 145.712C406.413 156.138 406.312 157.858 405.553 158.921 403.68 161.604 402.719 162.16 399.328 162.565 396.088 162.92 385.612 162.92 378.88 162.616ZM394.773 153.607 394.773 149.305 392.748 149.305 390.724 149.305 390.724 153.607 390.724 157.909 392.748 157.909 394.773 157.909 394.773 153.607Z" fill="#EBEBEB" transform="matrix(1.00071 0 0 -1 160 265.956)"/><path d="M445.131 162.16C442.297 160.743 440.779 159.124 440.323 157.099 440.07 156.036 439.817 150.267 439.817 144.396L439.817 133.615 449.94 133.615 460.011 133.615 460.163 138.778 460.315 143.94 461.833 144.345C464.465 145.054 464.617 144.75 464.617 138.93L464.617 133.565 470.589 133.717 476.511 133.868 476.359 143.991C476.156 157.555 476.005 158.516 474.081 160.49 473.17 161.351 471.956 162.262 471.298 162.515 470.64 162.768 464.819 162.97 458.392 162.97 448.927 162.97 446.346 162.818 445.131 162.16ZM464.617 153.607C464.617 149.305 464.617 149.305 463.301 149.305 460.619 149.305 460.062 150.064 460.062 153.809 460.062 155.682 460.214 157.403 460.416 157.555 460.568 157.757 461.631 157.909 462.694 157.909L464.617 157.909 464.617 153.607Z" fill="#EBEBEB" transform="matrix(1.00071 0 0 -1 160 265.956)"/><path d="M478.687 162.616C478.586 162.363 478.586 155.783 478.687 147.938L478.839 133.615 488.405 133.615 498.021 133.615 498.122 138.575C498.173 141.258 498.223 144.041 498.223 144.75 498.274 145.813 498.527 146.015 500.197 146.167L502.07 146.319 502.171 141.865C502.222 139.436 502.323 136.956 502.373 136.399 502.424 135.842 502.475 134.982 502.525 134.526 502.576 133.717 503.183 133.615 508.143 133.615L513.71 133.615 513.812 135.539C513.964 138.677 513.609 144.446 513.204 145.459 513.002 146.015 512.091 146.724 511.129 147.027 508.801 147.837 508.649 149.052 510.826 150.317 513.862 152.089 514.925 157.049 512.85 159.832 510.674 162.818 509.813 162.97 493.618 162.97 485.52 162.97 478.788 162.818 478.687 162.616ZM502.07 154.923C502.07 151.633 501.766 151.127 499.792 151.633 498.628 151.937 498.527 152.139 498.527 154.923L498.527 157.909 500.298 157.909 502.07 157.909 502.07 154.923ZM508.396 137.158C509.307 136.753 509.257 136.703 508.042 136.703 507.283 136.652 506.524 136.905 506.372 137.158 506.017 137.766 506.979 137.766 508.396 137.158Z" fill="#EBEBEB" transform="matrix(1.00071 0 0 -1 160 265.956)"/><path d="M559.008 162.16C554.453 159.782 554.2 158.972 554.2 145.61 554.2 136.348 554.352 134.172 554.909 133.97 555.313 133.818 559.868 133.666 565.031 133.615L574.394 133.615 574.546 139.031 574.698 144.497 576.722 144.497 578.747 144.497 579 139.183 579.253 133.868 584.972 133.717 590.641 133.565 590.641 144.345C590.641 150.672 590.387 155.986 590.084 157.15 589.78 158.263 588.667 159.984 587.604 161.047L585.681 162.97 573.129 162.97C562.703 162.97 560.273 162.818 559.008 162.16ZM578.747 153.86 578.747 150.064 576.722 150.064 574.698 150.064 574.546 153.303C574.344 157.605 574.546 158.01 576.823 157.808L578.747 157.656 578.747 153.86Z" fill="#EBEBEB" transform="matrix(1.00071 0 0 -1 160 265.956)"/><path d="M597.473 162.059C594.791 160.794 592.665 158.263 592.614 156.239 592.513 152.645 592.817 151.026 593.829 149.507 595.702 146.673 596.208 146.521 606.33 146.268L615.693 146.015 615.693 142.472 615.693 138.93 613.568 138.778C611.24 138.626 611.29 138.575 611.189 141.966L611.138 143.485 602.281 143.738C597.422 143.89 593.171 143.94 592.918 143.839 592.159 143.636 592.058 141.41 592.665 139.132 593.019 137.867 593.88 136.703 595.297 135.539L597.422 133.868 610.177 133.868 622.931 133.868 623.994 135.134C627.081 138.677 627.84 143.232 626.018 146.825 624.702 149.406 622.982 150.165 616.453 150.925L611.391 151.532 611.391 153.961C611.391 156.087 611.543 156.492 612.606 156.998 614.327 157.757 615.238 157.251 615.592 155.48 615.946 153.708 616.959 153.354 621.261 153.405 625.411 153.455 626.777 153.911 626.98 155.277 627.233 157.049 626.17 159.63 624.5 161.249L622.982 162.717 611.24 162.869C600.662 162.97 599.295 162.869 597.473 162.059Z" fill="#EBEBEB" transform="matrix(1.00071 0 0 -1 160 265.956)"/><path d="M13.9183 162.009 10.3754 161.705 10.5273 160.187C10.7803 157.504 10.9322 157.403 14.0701 157.403L17.0562 157.403 17.4105 153.506C17.5623 151.38 17.7142 145.813 17.7142 141.106L17.7142 132.502 27.2292 132.806 36.6936 133.109 36.9467 145.104 37.1997 157.15 39.7303 157.403 42.2609 157.656 42.4127 160.085 42.5646 162.464 30.0128 162.363C23.1296 162.312 15.8921 162.16 13.9183 162.009Z" fill="#EBEBEB" transform="matrix(1.00071 0 0 -1 160 265.956)"/><path d="M45.0446 147.787 45.0446 133.109 60.9367 133.109 76.8794 133.109 76.6264 134.526C76.019 138.373 76.3227 138.17 71.6158 138.17L67.3138 138.17 67.3138 141.966 67.3138 145.712 71.464 145.863 75.6141 146.015 76.019 147.989C76.5758 150.57 76.1709 150.823 71.4133 150.773 69.1864 150.722 67.5668 150.975 67.3138 151.279 66.9595 151.886 67.1113 156.138 67.5162 157.251 67.7187 157.707 68.984 157.909 72.1219 157.909 75.4117 157.909 76.4239 158.061 76.4239 158.618 76.4239 158.972 76.5758 160.035 76.7276 160.895L77.0819 162.464 61.0379 162.464 45.0446 162.464 45.0446 147.787Z" fill="#EBEBEB" transform="matrix(1.00071 0 0 -1 160 265.956)"/><path d="M110.435 147.938 110.587 133.362 120.355 133.21 130.072 133.109 130.072 141.966C130.072 146.825 130.275 150.823 130.477 150.823 130.933 150.823 132.907 144.598 134.577 137.968 135.134 135.792 135.893 133.767 136.247 133.565 136.601 133.312 141.41 133.109 146.926 133.109L156.897 133.109 156.897 147.787 156.897 162.464 151.127 162.464 145.357 162.464 145.61 153.809C145.863 146.673 145.813 145.155 145.256 145.357 144.396 145.61 142.675 150.672 141.106 157.403L139.942 162.464 125.113 162.464 110.334 162.464 110.435 147.938Z" fill="#EBEBEB" transform="matrix(1.00071 0 0 -1 160 265.956)"/><path d="M160.035 147.938 160.187 133.362 170.714 133.21 181.19 133.109 181.19 147.787 181.19 162.464 170.562 162.464 159.934 162.464 160.035 147.938Z" fill="#EBEBEB" transform="matrix(1.00071 0 0 -1 160 265.956)"/><path d="M665.546 161.452C664.331 160.693 665.192 160.541 666.558 161.3 667.267 161.654 667.469 161.958 667.064 161.958 666.66 161.958 665.951 161.756 665.546 161.452Z" fill="#EBEBEB" transform="matrix(1.00071 0 0 -1 160 265.956)"/><path d="M692.927 158.618C692.927 158.061 693.079 157.909 693.231 158.314 693.383 158.668 693.332 159.124 693.18 159.276 693.028 159.478 692.876 159.174 692.927 158.618Z" fill="#EBEBEB" transform="matrix(1.00071 0 0 -1 160 265.956)"/><path d="M395.127 115.041 387.687 114.838 387.788 100.819 387.94 86.7994 398.822 86.6981C404.794 86.6475 411.778 86.6981 414.258 86.9006L418.813 87.2042 420.736 89.4312 422.609 91.6581 422.609 100.515C422.609 110.435 422.407 111.296 419.218 113.725 417.396 115.142 417.295 115.142 410.007 115.193 405.958 115.193 399.277 115.142 395.127 115.041ZM411.323 101.882C411.424 91.7087 411.373 91.5063 408.995 91.7087L407.172 91.8605 407.021 100.718C406.97 105.576 406.97 109.777 407.122 110.131 407.274 110.486 408.033 110.587 409.298 110.384L411.221 110.081 411.323 101.882Z" fill="#EBEBEB" transform="matrix(1.00071 0 0 -1 160 265.956)"/><path d="M433.238 114.889C429.745 114.636 428.176 113.775 426 110.992 424.937 109.676 424.887 109.17 424.887 98.187L424.887 86.7994 434.503 86.7994 444.119 86.7994 444.271 92.0124C444.372 96.7193 444.473 97.1748 445.384 97.276 448.32 97.5291 448.168 97.8327 448.421 92.1136L448.674 86.7994 453.988 86.7994 459.303 86.7994 459.252 98.2882C459.252 109.524 459.201 109.777 457.987 111.549 457.329 112.51 456.215 113.624 455.507 113.978 454.09 114.686 438.906 115.344 433.238 114.889ZM448.168 108.664C448.371 108.006 448.421 106.336 448.32 104.969 448.168 102.489 448.168 102.489 446.397 102.489L444.625 102.489 444.473 105.475C444.271 109.271 444.524 109.828 446.346 109.828 447.561 109.828 447.966 109.575 448.168 108.664Z" fill="#EBEBEB" transform="matrix(1.00071 0 0 -1 160 265.956)"/><path d="M168.892 114.535C168.689 114.383 168.538 108.006 168.538 100.363L168.538 86.5463 182.355 86.5463C189.896 86.5463 196.981 86.6981 198.044 86.85 199.563 87.103 200.271 87.6598 201.739 89.6336L203.561 92.1136 203.358 100.92C203.207 110.992 202.954 111.599 198.854 113.725 196.728 114.838 196.121 114.838 182.911 114.889 175.37 114.889 169.044 114.737 168.892 114.535ZM190.503 109.828 191.819 109.322 191.819 100.869C191.819 96.1626 191.617 92.063 191.363 91.7087 191.11 91.3038 190.25 91.1014 189.238 91.2026L187.517 91.3544 187.365 100.414C187.213 110.688 187.315 111.042 190.503 109.828Z" fill="#EBEBEB" transform="matrix(1.00071 0 0 -1 160 265.956)"/><path d="M205.94 114.535C205.737 113.067 206.092 93.632 206.345 92.6197 206.8 90.5952 209.179 87.6091 210.545 87.1536 211.254 86.9512 216.518 86.7994 222.338 86.7994L232.815 86.7994 234.586 88.7732 236.357 90.7977 236.357 102.843 236.357 114.889 231.549 114.889C228.917 114.889 226.691 114.838 226.691 114.788 226.64 114.686 226.438 109.423 226.286 102.995L225.982 91.3544 224.717 91.3544C223.553 91.3544 223.401 91.6075 223.097 94.1381 222.945 95.6564 222.793 100.971 222.743 105.931L222.692 114.889 214.341 114.889C209.736 114.889 205.99 114.737 205.94 114.535Z" fill="#EBEBEB" transform="matrix(1.00071 0 0 -1 160 265.956)"/><path d="M245.164 113.877C244 113.269 242.431 112.156 241.621 111.296L240.153 109.777 240.001 98.1364 239.799 86.5463 249.415 86.5463 258.981 86.5463 259.335 88.8744C259.487 90.1904 259.639 92.5691 259.639 94.1887L259.639 97.1748 261.663 97.1748 263.637 97.1748 263.789 92.0124 263.941 86.7994 269.407 86.6475 274.873 86.4957 274.721 98.1364C274.569 110.891 274.519 111.042 271.077 113.573 269.761 114.585 268.901 114.636 258.475 114.788 248.049 114.889 247.087 114.838 245.164 113.877ZM263.587 105.678 263.738 101.73 261.714 101.73C259.335 101.73 258.981 102.388 259.386 106.285 259.689 109.625 259.892 109.929 261.815 109.727L263.435 109.575 263.587 105.678Z" fill="#EBEBEB" transform="matrix(1.00071 0 0 -1 160 265.956)"/><path d="M276.442 100.869 276.594 86.7994 289.753 86.6475C296.99 86.5969 303.368 86.6475 303.924 86.7487 304.785 86.9512 304.936 87.3561 304.785 89.2793L304.582 91.5569 301.242 91.7087 297.851 91.8605 297.547 102.995C297.345 109.119 297.193 114.282 297.142 114.535 297.142 114.737 292.435 114.889 286.716 114.889L276.29 114.889 276.442 100.869Z" fill="#EBEBEB" transform="matrix(1.00071 0 0 -1 160 265.956)"/><path d="M330.496 100.718 330.496 86.5463 344.414 86.5463 358.332 86.5463 358.332 89.0769 358.332 91.5569 354.941 91.7087 351.499 91.8605 351.348 103.4 351.246 114.889 340.871 114.889 330.496 114.889 330.496 100.718Z" fill="#EBEBEB" transform="matrix(1.00071 0 0 -1 160 265.956)"/><path d="M355.397 112.257 355.548 109.575 358.484 109.423 361.369 109.271 361.369 98.5413C361.369 92.6197 361.571 87.5079 361.774 87.1536 362.128 86.6981 364.304 86.5463 371.036 86.6475L379.842 86.7994 380.095 97.7821C380.247 104.058 380.551 108.967 380.854 109.271 381.158 109.524 382.373 109.828 383.638 109.929L385.915 110.081 386.067 112.51 386.219 114.889 370.732 114.889 355.245 114.889 355.397 112.257Z" fill="#EBEBEB" transform="matrix(1.00071 0 0 -1 160 265.956)"/><path d="M463.959 93.7838C463.503 93.3789 463.503 88.9251 463.908 87.8622 464.161 87.2042 465.022 87.0524 468.16 87.0524L472.108 87.0524 472.31 90.241C472.462 92.2148 472.361 93.5307 472.006 93.7332 471.298 94.2393 464.415 94.2393 463.959 93.7838Z" fill="#EBEBEB" transform="matrix(1.00071 0 0 -1 160 265.956)"/><path d="M645.807 76.3733C645.807 75.5129 646.01 74.9562 646.314 75.1586 646.617 75.3105 646.82 76.019 646.82 76.7276 646.82 77.3855 646.617 77.9423 646.314 77.9423 646.06 77.9423 645.807 77.2337 645.807 76.3733Z" fill="#EBEBEB" transform="matrix(1.00071 0 0 -1 160 265.956)"/><path d="M672.176 70.148C672.277 70.0468 674.201 69.8444 676.428 69.6925 678.857 69.5407 680.072 69.5913 679.464 69.8444 678.503 70.2493 671.721 70.5529 672.176 70.148Z" fill="#EBEBEB" transform="matrix(1.00071 0 0 -1 160 265.956)"/></g></svg>