<svg width="683" height="683" xmlns="http://www.w3.org/2000/svg" xmlns:xlink="http://www.w3.org/1999/xlink" xml:space="preserve" overflow="hidden"><defs><clipPath id="clip0"><rect x="870" y="58" width="683" height="683"/></clipPath></defs><g clip-path="url(#clip0)" transform="translate(-870 -58)"><path d="M308.817 681.533C202.099 670.461 108.586 612.432 51.7586 521.988-28.8141 393.926-13.74 224.643 88.043 113.122 144.471 51.3584 214.905 14.407 299.479 2.40117 315.221 0.133398 367.646 0.266797 384.188 2.40117 461.425 13.073 530.526 47.3564 583.085 100.983 600.426 118.591 604.028 122.727 615.5 137.934 649.65 183.423 671.928 238.917 680.599 299.479 682.867 315.221 682.867 367.78 680.599 383.521 674.863 423.94 664.324 458.357 647.649 492.107 629.774 527.858 611.632 553.337 583.218 582.017 530.526 635.377 464.627 668.593 388.856 679.798 372.448 682.2 325.092 683.267 308.817 681.533ZM393.525 546.533C512.917 518.12 580.683 397.527 542.265 282.004 532.393 252.123 516.652 227.178 492.907 203.299 462.893 173.151 430.477 155.543 388.189 146.605 376.584 144.07 369.914 143.537 349.504 143.537 315.754 143.403 294.677 147.805 264.929 160.879 257.592 164.08 250.656 166.748 249.455 166.748 248.388 166.748 224.109 160.478 195.429 152.875 166.881 145.404 143.27 139.268 143.137 139.401 142.87 139.535 149.273 163.28 157.143 192.094L171.55 244.653 165.281 257.459C151.14 286.14 144.871 313.486 144.871 346.836 145.004 403.93 165.147 452.354 205.434 492.24 237.049 523.589 277.069 543.065 323.491 550.135 325.759 550.402 339.232 550.535 353.506 550.269 375.65 549.868 381.653 549.335 393.525 546.533Z" fill="#262626" transform="matrix(1 0 0 -1 870 741)"/><path d="M334.163 515.985C268.798 511.316 209.035 464.627 188.092 401.796 181.422 381.52 179.554 369.514 179.554 346.836 179.554 312.286 186.091 289.208 205.567 255.325L208.635 249.722 200.364 219.44C195.829 202.766 192.227 188.759 192.627 188.492 192.894 188.225 207.034 191.694 224.109 196.096L255.191 204.366 271.332 196.229C297.879 183.023 320.957 177.42 349.637 177.42 421.272 177.42 486.771 224.643 509.449 292.943 516.252 313.62 517.986 324.158 517.986 346.836 517.986 363.111 517.319 370.447 515.051 381.52 500.511 449.686 446.885 501.978 378.852 514.118 364.311 516.652 350.838 517.186 334.163 515.985ZM293.743 438.481C298.012 433.678 315.221 391.124 314.287 387.522 313.887 385.922 309.885 379.919 305.482 374.049 301.08 368.313 297.479 362.71 297.479 361.51 297.479 358.975 308.15 343.101 316.421 333.363 325.359 322.824 342.3 310.018 356.574 302.681 374.583 293.743 375.517 293.743 385.788 306.416 398.595 322.024 399.795 323.091 403.263 322.157 407.265 320.957 445.417 303.081 449.419 300.547 452.354 298.679 452.488 297.879 451.821 289.608 451.42 284.672 450.086 278.136 448.886 275.068 446.084 268.131 435.946 258.793 425.808 253.857 418.738 250.389 417.004 250.122 402.196 250.122 387.389 250.122 385.255 250.522 373.516 254.658 354.173 261.594 342.167 267.33 327.627 277.069 299.613 295.744 266.397 333.229 252.79 361.643 246.921 374.049 245.053 383.387 245.72 397.527 246.387 410.734 249.722 419.405 258.526 430.343 265.73 439.148 270.532 441.415 281.871 441.549 289.741 441.549 291.342 441.149 293.743 438.481Z" fill="#262626" transform="matrix(1 0 0 -1 870 741)"/></g></svg>