<?xml version="1.0" standalone="no"?>
<!DOCTYPE svg PUBLIC "-//W3C//DTD SVG 20010904//EN"
 "http://www.w3.org/TR/2001/REC-SVG-20010904/DTD/svg10.dtd">
<svg version="1.0" xmlns="http://www.w3.org/2000/svg"
 width="108.000000pt" height="150.000000pt" viewBox="0 0 108.000000 150.000000"
 preserveAspectRatio="xMidYMid meet">

<g transform="translate(0.000000,150.000000) scale(0.100000,-0.100000)"
fill="#000000" stroke="none">
<path d="M538 1000 c-11 -7 -17 -23 -16 -49 0 -43 -16 -81 -35 -81 -9 0 -12
-11 -9 -36 3 -22 7 -31 12 -24 5 8 10 9 14 2 4 -6 -3 -16 -14 -22 -13 -7 -20
-7 -20 0 0 5 -4 10 -10 10 -18 0 -10 -29 10 -35 13 -4 20 -15 20 -30 0 -18 4
-23 15 -19 9 4 15 0 15 -10 0 -9 -7 -16 -15 -16 -11 0 -15 -11 -15 -36 l0 -36
-57 4 c-38 2 -57 -1 -60 -9 -3 -9 7 -13 31 -13 19 0 47 -5 61 -10 l26 -10 -3
-105 c-3 -114 -10 -125 -54 -84 -21 19 -25 20 -53 8 -17 -8 -31 -18 -31 -22 0
-5 4 -6 9 -3 5 3 11 0 14 -8 4 -9 15 -12 32 -9 14 3 53 0 87 -7 76 -17 98 -46
98 -132 l0 -58 -38 20 c-26 14 -65 22 -118 25 l-79 4 -2 48 c-1 26 -6 118 -11
203 l-9 155 -3 -115 c-1 -63 -1 -155 0 -204 1 -62 -1 -86 -9 -82 -13 8 -16
-62 -3 -80 4 -6 26 -18 48 -27 35 -13 61 -15 170 -7 71 5 149 8 174 7 25 -1
46 3 47 8 1 6 -26 9 -70 9 -43 -1 -60 1 -42 5 37 8 30 26 -10 26 l-30 0 -7
225 c-5 124 -8 243 -7 265 0 22 0 84 0 138 1 74 4 97 14 97 8 0 17 -4 20 -10
11 -18 36 -10 62 20 13 17 30 27 36 24 7 -3 3 2 -7 10 -11 9 -26 16 -34 16 -7
0 -10 5 -7 10 3 6 1 10 -4 10 -14 0 -14 -27 -1 -35 6 -4 5 -15 -2 -30 -12 -26
-22 -25 -37 4 -7 12 -5 26 4 44 14 28 8 36 -12 16 -16 -16 -33 -2 -33 27 0 26
-21 32 -52 14z m-18 -240 c0 -5 -4 -10 -10 -10 -5 0 -10 5 -10 10 0 6 5 10 10
10 6 0 10 -4 10 -10z"/>
<path d="M786 981 c-3 -5 -14 -7 -24 -4 -10 2 -26 -5 -36 -16 -23 -25 -10 -28
16 -4 23 21 36 10 14 -12 -20 -20 -20 -29 0 -60 20 -30 1 -34 -19 -5 -12 17
-16 18 -20 6 -3 -8 1 -20 9 -26 8 -7 14 -20 14 -30 0 -10 7 -23 15 -30 12 -10
15 -10 15 0 0 8 9 11 25 8 l25 -5 -5 70 c-2 39 -10 74 -16 78 -7 4 -9 14 -6
23 7 17 2 22 -7 7z"/>
<path d="M460 303 c0 -5 20 -8 45 -9 25 0 45 3 45 8 0 4 -20 8 -45 8 -25 0
-45 -3 -45 -7z"/>
<path d="M410 260 c0 -11 5 -20 10 -20 6 0 10 9 10 20 0 11 -4 20 -10 20 -5 0
-10 -9 -10 -20z"/>
</g>
</svg>
