<svg width="683" height="683" xmlns="http://www.w3.org/2000/svg" xmlns:xlink="http://www.w3.org/1999/xlink" xml:space="preserve" overflow="hidden"><defs><clipPath id="clip0"><rect x="298" y="18" width="683" height="683"/></clipPath></defs><g clip-path="url(#clip0)" transform="translate(-298 -18)"><path d="M41.3535 643.381C34.0166 638.312 31.7488 631.241 35.2172 624.038 39.0857 616.034 40.4197 615.767 72.7021 614.967L101.916 614.3 110.321 579.616C114.856 560.54 118.591 544.132 118.725 543.332 118.725 541.998 107.919 541.598 69.2338 541.598L19.743 541.598 15.2074 537.062C10.0049 531.86 9.20449 525.59 12.6729 518.92 16.9416 510.516 11.6057 510.916 134.732 510.916 259.193 510.916 253.057 511.316 256.925 502.245 259.327 496.376 259.327 493.041 256.792 488.238 252.657 480.234 252.39 480.234 190.76 480.234 127.262 480.234 133.132 481.568 136.733 468.229 139.668 457.156 140.068 457.557 127.396 457.557 113.655 457.557 108.72 455.556 105.785 448.619 103.117 442.216 104.451 436.346 109.52 431.411L113.522 427.542 189.159 426.875C247.187 426.341 265.463 425.808 267.731 424.474 274.134 420.872 276.535 411.401 272.8 404.197 268.664 396.193 268.131 396.193 208.769 396.193 147.539 396.193 153.141 397.527 156.743 384.188 157.81 380.186 158.744 376.05 158.744 375.25 158.744 373.916 145.671 373.516 97.7811 373.516 61.4967 373.516 34.817 372.982 31.8822 372.182 25.2123 370.314 21.2104 365.512 20.41 358.442 19.743 352.972 20.1432 352.038 24.4119 347.37L29.0809 342.167 158.477 341.5C299.079 340.833 290.142 341.367 294.277 333.363 296.678 328.56 296.678 323.625 294.144 318.822 290.008 310.818 289.608 310.818 229.445 310.818 186.624 310.818 174.752 310.418 174.752 309.218 174.752 308.284 175.953 302.948 177.42 297.479 178.754 292.009 179.688 287.34 179.421 287.073 179.154 286.807 176.486 286.006 173.285 285.339 163.28 283.072 153.008 277.202 145.004 269.331 121.259 245.587 121.259 208.502 144.871 184.89 154.475 175.286 165.547 169.816 179.688 167.815L190.626 166.214 184.09 162.479C175.819 157.81 165.147 146.872 160.212 138.201 148.206 116.99 148.873 88.5766 161.946 68.7002 186.224 32.149 236.115 26.6797 266.53 57.3613 297.345 88.5766 290.809 141.136 253.324 162.613L246.12 166.748 393.392 166.748 540.664 166.748 532.793 161.679C496.242 138.067 490.906 88.043 521.588 57.3613 548.268 30.6816 590.021 30.6816 616.301 57.2279 646.982 88.3098 641.646 138.067 605.095 161.679L597.225 166.748 608.164 166.748C625.105 166.748 632.309 171.15 632.309 181.689 632.309 188.092 630.174 192.761 625.772 195.696 622.437 197.963 609.497 198.097 399.262 198.764L176.353 199.431 170.617 203.433C155.676 213.971 154.475 237.049 168.215 248.788 170.617 250.789 174.085 253.057 175.953 253.857 178.487 255.058 232.513 255.591 378.852 256.125L578.282 256.792 587.22 261.061C598.159 266.263 607.897 275.468 612.699 285.473 616.701 293.61 672.328 519.987 672.328 527.858 672.328 531.326 671.261 533.594 667.793 537.062L663.257 541.598 407.666 541.598 152.074 541.598 150.874 544.666C150.207 546.267 145.138 567.077 139.401 590.955 133.799 614.7 128.329 635.91 127.262 637.911 123.527 645.248 120.859 645.648 81.1063 645.648 48.9572 645.648 44.2883 645.382 41.3535 643.381ZM234.248 137.667C247.988 130.597 254.791 119.925 254.791 105.518 254.658 89.6438 248.121 78.8385 235.048 72.4354 216.772 63.4977 194.628 70.968 185.957 89.1102 180.488 100.316 182.356 117.257 190.093 127.396 199.964 140.202 220.107 144.871 234.248 137.667ZM580.283 139.268C594.023 135.266 605.629 119.392 605.629 104.718 605.629 91.9115 596.424 77.6379 584.552 71.9018 575.748 67.633 562.141 67.633 553.337 71.9018 541.464 77.6379 532.26 91.9115 532.26 104.718 532.26 123.66 549.335 141.002 568.411 141.269 570.945 141.402 576.281 140.469 580.283 139.268Z" fill="#EBEBEB" transform="matrix(1 0 0 -1 298 701)"/></g></svg>