<svg width="40" height="40" xmlns="http://www.w3.org/2000/svg" xmlns:xlink="http://www.w3.org/1999/xlink" xml:space="preserve" overflow="hidden"><defs><clipPath id="clip0"><rect x="326" y="162" width="40" height="40"/></clipPath></defs><g clip-path="url(#clip0)" transform="translate(-326 -162)"><path d="M11.3333 24.6667C15.7333 20.6667 19.6 17.3333 20 17.3333 20.4 17.3333 24.2667 20.6667 28.6667 24.6667L36.6667 31.8667 20 31.8667 3.33333 31.8667 11.3333 24.6667Z" fill="#262626" transform="matrix(1 0 0 -1 326 202)"/><path d="M1.33333 19.8667 1.33333 10.1333 6.66667 15.3333C9.6 18.1333 12 20.6667 12 20.8 12 20.9333 9.6 23.0667 6.66667 25.3333L1.33333 29.6 1.33333 19.8667Z" fill="#262626" transform="matrix(1 0 0 -1 326 202)"/><path d="M32.9333 24.9333 27.8667 20.6667 33.3333 15.3333 38.6667 10.1333 38.6667 19.7333C38.6667 25.0667 38.5333 29.3333 38.4 29.3333 38.1333 29.2 35.7333 27.3333 32.9333 24.9333Z" fill="#262626" transform="matrix(1 0 0 -1 326 202)"/><path d="M8.66667 13.3333 3.46667 8 20 8 36.5333 8 31.3333 13.3333C26.6667 18.1333 26 18.4 24 16.6667 22.8 15.6 20.9333 14.6667 20 14.6667 19.0667 14.6667 17.2 15.6 16 16.6667 14 18.4 13.3333 18.1333 8.66667 13.3333Z" fill="#262626" transform="matrix(1 0 0 -1 326 202)"/></g></svg>