<?xml version="1.0" standalone="no"?>
<!DOCTYPE svg PUBLIC "-//W3C//DTD SVG 20010904//EN"
 "http://www.w3.org/TR/2001/REC-SVG-20010904/DTD/svg10.dtd">
<svg version="1.0" xmlns="http://www.w3.org/2000/svg"
 width="1544.000000pt" height="476.000000pt" viewBox="0 0 1544.000000 476.000000"
 preserveAspectRatio="xMidYMid meet">

<g transform="translate(0.000000,476.000000) scale(0.100000,-0.100000)"
fill="#000000" stroke="none">
<path d="M13514 4106 c-28 -13 -67 -38 -87 -56 -30 -26 -37 -39 -37 -69 0 -20
9 -49 20 -66 24 -36 25 -58 4 -89 -10 -16 -11 -26 -5 -30 11 -7 4 -64 -10 -82
-5 -6 -20 -9 -34 -6 -16 3 -25 0 -25 -8 0 -7 7 -10 15 -6 8 3 15 1 15 -3 0 -5
-6 -11 -12 -13 -9 -3 -8 -10 5 -23 26 -26 17 -46 -28 -62 -75 -25 -71 -23 -55
-34 12 -8 11 -9 -5 -5 -11 3 -38 -1 -60 -9 -36 -14 -37 -15 -10 -13 24 2 30
-1 29 -15 -2 -15 1 -16 13 -5 14 11 15 5 10 -49 -2 -33 -1 -67 4 -75 5 -8 9
10 9 47 0 95 28 121 31 29 1 -27 6 -57 11 -66 5 -10 5 -18 0 -18 -4 0 -8 -9
-8 -20 0 -13 4 -16 10 -10 20 20 26 9 26 -45 0 -78 -17 -101 -83 -109 -28 -4
-56 -11 -62 -16 -6 -5 -23 -10 -37 -12 -50 -7 -41 -17 21 -24 46 -5 64 -12 72
-26 8 -16 13 -17 25 -7 8 6 16 10 18 8 8 -10 -12 -112 -24 -119 -7 -4 -10 -15
-7 -23 6 -16 59 -30 67 -17 3 4 21 10 40 11 34 4 35 3 38 -35 2 -22 1 -50 -3
-63 -7 -29 -58 -53 -96 -46 l-27 5 -7 -126 -7 -126 -209 6 -209 7 0 -31 0 -32
-101 0 c-57 0 -98 -4 -95 -9 3 -5 54 -12 113 -16 144 -9 422 -50 436 -64 6 -6
19 -11 28 -11 10 0 21 -4 24 -10 3 -5 6 -141 5 -302 0 -277 -2 -293 -20 -310
-24 -22 -25 -37 -6 -64 8 -11 17 -45 21 -76 7 -53 9 -57 37 -63 16 -4 32 -13
35 -21 8 -22 0 -25 -31 -9 -16 8 -55 15 -87 15 -68 0 -105 14 -113 44 -3 12
-23 39 -45 60 -33 32 -47 39 -79 39 -43 0 -97 -31 -106 -61 -5 -14 -26 -20
-109 -31 -154 -19 -152 -18 -111 -66 25 -29 34 -27 47 10 2 5 39 11 82 13 l78
4 -5 -31 c-3 -18 -1 -34 4 -37 5 -3 52 -5 106 -5 149 1 313 -20 467 -61 21 -5
66 -30 98 -55 47 -36 66 -60 90 -112 l32 -66 3 -249 c4 -275 0 -294 -46 -239
-15 17 -44 38 -64 47 l-38 15 0 261 0 260 -167 -2 -168 -3 -5 -210 -5 -210
-146 4 c-170 4 -189 0 -189 -37 0 -45 -12 -102 -21 -102 -5 0 -9 28 -9 61 0
43 -5 65 -15 73 -18 13 -22 152 -6 206 13 42 15 207 2 214 -4 3 -11 37 -15 77
-3 39 -10 78 -15 88 -6 10 -5 23 0 34 9 15 5 17 -23 17 l-33 0 -1 -178 c-3
-474 -3 -472 -18 -472 -9 0 -17 15 -21 40 -4 22 -12 40 -19 40 -9 0 -12 -41
-11 -164 2 -136 5 -169 19 -191 18 -27 211 -129 227 -119 5 3 16 -2 25 -11 9
-9 22 -14 29 -11 8 3 16 -2 19 -10 4 -10 23 -14 67 -14 53 0 60 2 49 15 -6 8
-9 18 -7 23 3 4 165 9 359 10 194 1 367 4 383 7 17 2 81 7 144 11 102 6 115 5
127 -10 11 -16 27 -18 133 -15 65 2 123 7 127 11 4 5 8 27 8 50 l1 43 -75 3
c-41 1 -154 -1 -250 -6 -169 -8 -254 -2 -274 18 -17 17 3 23 41 13 23 -7 74
-8 126 -4 94 7 107 14 107 63 l0 27 -152 3 -153 3 -3 729 c-1 549 -5 733 -14
744 -12 13 -14 27 -17 101 -1 25 -5 32 -16 27 -8 -3 -15 0 -16 7 -2 44 -10 88
-23 124 -11 33 -14 75 -10 194 2 83 6 154 8 158 3 4 7 49 11 101 8 117 12 135
29 121 10 -8 13 0 15 37 7 114 8 106 -19 107 -24 0 -24 1 -25 99 0 106 12 130
38 80 l14 -27 5 24 c3 13 5 69 3 124 -3 111 5 145 35 145 11 0 20 7 20 15 0 9
-8 14 -22 12 -13 -1 -23 3 -22 11 1 6 2 37 3 67 1 48 4 55 21 55 13 0 18 -5
14 -15 -4 -9 0 -15 10 -15 19 0 23 -56 4 -62 -19 -7 14 -66 61 -113 23 -21 41
-45 41 -52 0 -21 26 -15 43 10 13 17 18 19 25 8 13 -18 60 -7 95 23 26 23 39
48 15 29 -7 -6 -30 -16 -50 -22 -35 -11 -40 -10 -73 14 -19 15 -35 34 -35 41
0 8 -8 22 -18 32 -16 16 -20 17 -28 5 -6 -10 -18 -12 -37 -8 -23 6 -27 12 -22
29 3 11 7 26 8 32 2 7 8 18 14 25 5 8 9 30 7 49 -3 45 8 65 72 126 53 50 70
82 38 70 -9 -3 -18 -6 -20 -6 -3 0 -2 -4 1 -10 3 -6 -1 -7 -10 -4 -19 8 -114
-80 -116 -106 0 -8 -10 6 -22 32 -12 25 -34 58 -49 71 -24 22 -27 31 -24 81 1
31 6 59 9 63 11 10 -13 33 -34 33 -11 0 -19 -7 -19 -16 0 -8 -4 -12 -10 -9 -5
3 -10 1 -10 -4 0 -6 7 -11 15 -11 8 0 15 -4 15 -9 0 -6 -9 -9 -20 -8 -15 1
-20 8 -20 29 0 34 -2 34 -66 4z m96 -61 c-7 -8 -14 -15 -15 -15 -2 0 -5 7 -9
15 -4 10 1 15 16 15 17 0 18 -2 8 -15z m-130 -29 c0 -2 -8 -10 -17 -17 -16
-13 -17 -12 -4 4 13 16 21 21 21 13z m170 -47 c0 -6 -4 -7 -10 -4 -5 3 -10 11
-10 16 0 6 5 7 10 4 6 -3 10 -11 10 -16z m45 -91 c4 -21 12 -38 18 -38 8 0 8
-3 -1 -12 -8 -8 -15 -8 -25 1 -16 13 -31 86 -21 103 9 14 22 -9 29 -54z m105
-3 c-7 -8 -18 -15 -24 -15 -6 0 -2 7 8 15 25 19 32 19 16 0z m-43 -70 c-23
-22 -33 -18 -12 5 10 11 20 18 23 16 2 -3 -3 -12 -11 -21z m23 -56 c0 -5 -7
-9 -15 -9 -15 0 -20 12 -9 23 8 8 24 -1 24 -14z m-433 -205 c-3 -3 -12 -4 -19
-1 -8 3 -5 6 6 6 11 1 17 -2 13 -5z m59 -389 c12 -31 -6 -82 -32 -94 -15 -6
-23 -7 -19 -1 4 6 -5 10 -19 10 -20 0 -24 4 -20 18 10 31 29 67 39 74 17 13
45 9 51 -7z m144 -625 c0 -5 -5 -10 -11 -10 -5 0 -7 5 -4 10 3 6 8 10 11 10 2
0 4 -4 4 -10z m-415 -950 c3 -5 1 -10 -4 -10 -6 0 -11 5 -11 10 0 6 2 10 4 10
3 0 8 -4 11 -10z m-18 -26 c-3 -3 -12 -4 -19 -1 -8 3 -5 6 6 6 11 1 17 -2 13
-5z m188 -25 c13 -6 0 -7 -40 -3 -33 4 -62 8 -64 10 -9 8 85 2 104 -7z m100
-29 c3 -5 -3 -10 -14 -10 -11 0 -23 5 -26 10 -3 6 3 10 14 10 11 0 23 -4 26
-10z"/>
<path d="M14425 4040 c-216 -57 -221 -58 -260 -120 -20 -30 -34 -61 -33 -69 4
-18 48 -22 48 -5 0 7 30 44 68 82 72 74 53 66 250 114 23 6 42 15 42 19 0 5
-1 9 -2 8 -2 0 -52 -13 -113 -29z"/>
<path d="M13967 3996 c3 -14 11 -27 19 -30 17 -6 17 -5 4 28 -12 33 -29 34
-23 2z"/>
<path d="M14338 3943 c-52 -55 -87 -127 -95 -193 -4 -39 0 -53 32 -105 64
-103 67 -114 59 -236 -8 -129 -26 -143 -34 -27 -3 42 -2 74 3 71 19 -12 4 43
-24 83 -32 47 -69 69 -99 59 -12 -4 -24 2 -33 15 -13 19 -15 19 -21 4 -6 -14
43 -110 64 -124 18 -12 30 -53 30 -99 0 -64 7 -81 35 -81 22 0 55 -28 55 -47
0 -15 25 -23 73 -23 29 0 37 3 28 9 -11 7 -9 10 10 14 15 3 7 5 -19 6 -29 1
-45 6 -49 17 -9 23 8 34 64 40 l50 6 7 136 c3 74 6 181 6 238 0 109 10 154 35
154 8 0 15 4 15 9 0 15 -31 21 -51 10 -39 -21 -54 -8 -50 44 l3 47 -34 0 c-24
0 -42 -8 -60 -27z m16 -85 c-9 -139 -26 -242 -36 -225 -19 34 14 297 38 297 1
0 1 -33 -2 -72z m86 -77 c0 -11 4 -21 10 -23 5 -1 7 -13 4 -25 -4 -13 -10 -20
-15 -17 -5 3 -7 9 -4 14 3 5 1 11 -5 15 -13 8 -13 55 0 55 6 0 10 -9 10 -19z"/>
<path d="M13905 3900 c-23 -24 -25 -30 -11 -30 9 0 15 4 12 9 -3 5 0 11 7 14
8 3 12 -6 13 -25 1 -17 5 -33 11 -37 22 -15 43 -58 43 -89 0 -18 -14 -62 -31
-98 -16 -36 -29 -69 -27 -74 5 -13 195 173 203 199 6 20 4 23 -10 17 -11 -4
-34 9 -71 40 -30 26 -52 41 -49 33 2 -8 1 -21 -5 -29 -15 -24 -34 4 -35 52 -1
23 -5 43 -11 45 -5 2 -23 -10 -39 -27z"/>
<path d="M13970 3895 c0 -8 4 -15 10 -15 5 0 7 7 4 15 -4 8 -8 15 -10 15 -2 0
-4 -7 -4 -15z"/>
<path d="M13849 3853 c-13 -16 -12 -17 4 -4 16 13 21 21 13 21 -2 0 -10 -8
-17 -17z"/>
<path d="M13705 3720 c3 -5 8 -10 11 -10 2 0 4 5 4 10 0 6 -5 10 -11 10 -5 0
-7 -4 -4 -10z"/>
<path d="M14074 3629 l-39 -41 37 23 c34 22 54 46 45 55 -2 2 -21 -15 -43 -37z"/>
<path d="M14521 3328 c0 -9 -5 -18 -11 -20 -5 -2 -6 -9 -1 -17 14 -23 27 -8
20 24 -4 17 -7 23 -8 13z"/>
<path d="M14890 3299 c-74 -3 -159 -7 -187 -8 -29 0 -53 -5 -53 -11 0 -14 308
-11 400 4 73 12 74 12 35 19 -22 4 -44 6 -50 5 -5 -1 -71 -5 -145 -9z"/>
<path d="M15143 3303 c9 -2 25 -2 35 0 9 3 1 5 -18 5 -19 0 -27 -2 -17 -5z"/>
<path d="M13173 3280 c-37 -22 -41 -35 -16 -44 18 -7 76 41 67 56 -8 12 -15
10 -51 -12z"/>
<path d="M14598 3283 c7 -3 16 -2 19 1 4 3 -2 6 -13 5 -11 0 -14 -3 -6 -6z"/>
<path d="M13635 3270 c-3 -5 -1 -10 4 -10 6 0 11 5 11 10 0 6 -2 10 -4 10 -3
0 -8 -4 -11 -10z"/>
<path d="M8190 3223 c-35 -13 -94 -69 -107 -102 -12 -27 -16 -85 -17 -238 -3
-272 3 -326 40 -362 70 -68 14 -64 879 -60 429 2 1262 3 1850 1 589 -2 1183 0
1322 3 274 8 268 6 256 66 l-6 30 -1947 -7 c-1141 -4 -1949 -3 -1953 2 -3 5
-7 133 -8 284 l-4 275 70 5 c39 3 76 9 83 13 6 5 12 28 12 53 l0 44 -227 -1
c-126 0 -235 -3 -243 -6z"/>
<path d="M10313 3214 c-18 -9 -48 -34 -67 -54 -44 -49 -51 -92 -43 -273 7
-154 11 -166 74 -210 37 -25 51 -28 159 -34 66 -3 181 -2 258 2 l139 7 36 33
36 33 3 125 4 125 -109 -2 -108 -1 -3 -113 -3 -113 -42 3 -42 3 0 190 0 190
152 3 151 3 4 45 c2 25 1 47 -1 50 -2 2 -131 4 -285 4 -237 0 -286 -3 -313
-16z"/>
<path d="M1655 3210 c-33 -13 -85 -74 -95 -111 -6 -18 -10 -106 -10 -195 0
-151 1 -163 23 -194 49 -73 49 -73 318 -74 132 -1 242 1 244 4 2 3 1 25 -2 48
l-6 42 -78 0 -79 0 0 195 0 194 78 3 77 3 3 41 3 41 -83 6 c-116 9 -369 7
-393 -3z"/>
<path d="M4499 3213 l-96 -4 -36 -132 c-20 -73 -37 -143 -39 -156 -2 -14 -8
-26 -13 -28 -10 -3 -31 59 -76 230 l-23 87 -287 0 -287 0 -1 -285 -2 -285 193
0 193 0 -3 165 c-3 111 0 165 7 165 16 0 27 -28 51 -130 13 -52 29 -118 37
-146 l14 -51 128 -8 c70 -3 148 -4 173 0 l45 7 45 161 c24 88 49 162 56 165 9
3 12 -37 12 -162 l0 -166 118 0 117 0 -3 287 -3 288 -112 1 c-62 0 -155 -1
-208 -3z"/>
<path d="M4975 3202 c-22 -11 -55 -35 -73 -56 l-32 -37 0 -175 c0 -196 4 -212
67 -260 l38 -29 271 0 271 0 37 28 c20 16 42 41 48 55 6 16 10 101 10 208 0
201 -2 207 -66 252 l-39 27 -246 3 c-222 2 -250 0 -286 -16z m395 -279 l0
-194 -42 3 -43 3 -3 185 c-1 101 -1 189 2 195 2 6 21 9 45 7 l41 -4 0 -195z"/>
<path d="M5669 3216 c-2 -2 -3 -133 -1 -290 l3 -286 189 0 190 0 0 175 c0 96
4 175 8 175 11 0 35 -80 70 -230 l27 -115 218 -3 217 -2 0 290 0 291 -116 -3
-117 -3 2 -180 c1 -105 -2 -176 -7 -170 -8 9 -42 119 -89 285 l-19 65 -285 3
c-157 1 -287 0 -290 -2z"/>
<path d="M6658 3214 c-15 -5 -29 -67 -20 -93 2 -6 30 -11 63 -11 l59 0 0 -234
0 -235 103 -3 c56 -2 141 -2 188 0 l86 3 7 61 c3 33 6 142 6 240 l0 179 55 -6
c30 -4 55 -3 56 1 1 16 9 73 11 86 2 10 -58 13 -297 15 -165 0 -307 -1 -317
-3z"/>
<path d="M7486 3213 c-55 -3 -75 -9 -103 -30 -61 -47 -63 -58 -63 -311 l0
-229 98 -5 c53 -3 142 -3 197 0 l101 5 0 31 c0 17 1 66 2 109 l2 77 40 0 40 0
0 -57 c0 -32 3 -81 6 -109 l7 -52 56 -4 c31 -2 80 -2 109 0 l52 4 0 237 c0
206 -2 240 -17 261 -37 53 -56 64 -123 72 -64 7 -271 7 -404 1z m314 -178 l0
-85 -40 0 -40 0 0 85 0 85 40 0 40 0 0 -85z"/>
<path d="M8795 3204 c-56 -28 -86 -60 -95 -100 -5 -21 -10 -135 -10 -251 l0
-213 200 0 199 0 3 102 3 102 30 8 c52 14 55 8 55 -107 l0 -106 118 3 117 3
-3 200 c-4 268 -7 287 -45 326 -18 17 -42 35 -55 40 -13 5 -128 9 -255 9 -187
0 -238 -3 -262 -16z m385 -169 c0 -85 0 -85 -26 -85 -53 0 -64 15 -64 89 0 37
3 71 7 74 3 4 24 7 45 7 l38 0 0 -85z"/>
<path d="M9458 3213 c-2 -5 -2 -135 0 -290 l3 -283 189 0 190 0 2 98 c1 53 2
108 2 122 1 21 6 25 39 28 l37 3 2 -88 c1 -48 3 -97 4 -108 1 -11 2 -28 3 -37
1 -16 13 -18 111 -18 l110 0 2 38 c3 62 -4 176 -12 196 -4 11 -22 25 -41 31
-46 16 -49 40 -6 65 60 35 81 133 40 188 -43 59 -60 62 -380 62 -160 0 -293
-3 -295 -7z m462 -152 c0 -65 -6 -75 -45 -65 -23 6 -25 10 -25 65 l0 59 35 0
35 0 0 -59z m125 -351 c18 -8 17 -9 -7 -9 -15 -1 -30 4 -33 9 -7 12 12 12 40
0z"/>
<path d="M11045 3204 c-90 -47 -95 -63 -95 -327 0 -183 3 -226 14 -230 8 -3
98 -6 200 -7 l185 0 3 107 3 108 40 0 40 0 5 -105 5 -105 113 -3 112 -3 0 213
c0 125 -5 230 -11 253 -6 22 -28 56 -49 77 l-38 38 -248 0 c-206 0 -254 -3
-279 -16z m390 -164 l0 -75 -40 0 -40 0 -3 64 c-4 85 0 93 45 89 l38 -3 0 -75z"/>
<path d="M11805 3202 c-53 -25 -95 -75 -96 -115 -2 -71 4 -103 24 -133 37 -56
47 -59 247 -64 l185 -5 0 -70 0 -70 -42 -3 c-46 -3 -45 -4 -47 63 l-1 30 -175
5 c-96 3 -180 4 -185 2 -15 -4 -17 -48 -5 -93 7 -25 24 -48 52 -71 l42 -33
252 0 252 0 21 25 c61 70 76 160 40 231 -26 51 -60 66 -189 81 l-100 12 0 48
c0 42 3 50 24 60 34 15 52 5 59 -30 7 -35 27 -42 112 -41 82 1 109 10 113 37
5 35 -16 86 -49 118 l-30 29 -232 3 c-209 2 -236 0 -272 -16z"/>
<path d="M275 3201 l-70 -6 3 -30 c5 -53 8 -55 70 -55 l59 0 7 -77 c3 -42 6
-152 6 -245 l0 -170 188 6 187 6 5 237 5 238 50 5 50 5 3 48 3 47 -248 -2
c-136 -1 -279 -4 -318 -7z"/>
<path d="M890 2920 l0 -290 314 0 315 0 -5 28 c-12 76 -6 72 -99 72 l-85 0 0
75 0 74 82 3 82 3 8 39 c11 51 3 56 -91 55 -44 -1 -76 4 -81 10 -7 12 -4 96 4
118 4 9 29 13 91 13 65 0 85 3 85 14 0 7 3 28 6 45 l7 31 -317 0 -316 0 0
-290z"/>
<path d="M2182 2923 l3 -288 193 -3 192 -2 0 175 c0 96 4 175 8 175 9 0 48
-123 81 -254 11 -43 26 -83 33 -87 7 -5 102 -9 211 -9 l197 0 0 290 0 290
-114 0 -114 0 5 -171 c5 -141 4 -171 -7 -167 -17 5 -51 105 -82 238 l-23 100
-293 0 -292 0 2 -287z"/>
<path d="M3162 2923 l3 -288 208 -3 207 -2 0 290 0 290 -210 0 -210 0 2 -287z"/>
<path d="M13150 3190 c-24 -15 -7 -18 20 -3 14 7 18 13 10 13 -8 0 -22 -4 -30
-10z"/>
<path d="M13691 3134 c0 -11 3 -14 6 -6 3 7 2 16 -1 19 -3 4 -6 -2 -5 -13z"/>
<path d="M7807 2273 l-147 -4 2 -277 3 -277 215 -2 c118 -1 256 0 305 4 l90 6
38 44 37 44 0 175 c0 196 -4 213 -67 261 -36 28 -38 28 -182 29 -80 0 -212 -1
-294 -3z m320 -260 c2 -201 1 -205 -46 -201 l-36 3 -3 175 c-1 96 -1 179 2
186 3 7 18 9 43 5 l38 -6 2 -162z"/>
<path d="M8560 2270 c-69 -5 -100 -22 -143 -77 -21 -26 -22 -36 -22 -253 l0
-225 190 0 190 0 3 103 c2 93 4 102 22 104 58 5 55 11 60 -102 l5 -105 105 0
105 0 -1 227 c0 222 -1 227 -25 262 -13 19 -35 41 -49 48 -28 14 -328 27 -440
18z m295 -123 c4 -13 5 -46 3 -73 -3 -49 -3 -49 -38 -49 l-35 0 -3 59 c-4 75
1 86 37 86 24 0 32 -5 36 -23z"/>
<path d="M3337 2263 c-4 -3 -7 -129 -7 -280 l0 -273 273 0 c149 0 289 3 310 6
30 5 44 16 73 55 l36 49 -4 174 c-3 199 -8 211 -89 253 -42 22 -54 22 -315 23
-149 0 -274 -3 -277 -7z m427 -93 l26 -10 0 -167 c0 -93 -4 -174 -9 -181 -5
-8 -22 -12 -42 -10 l-34 3 -3 179 c-3 203 -1 210 62 186z"/>
<path d="M4069 2263 c-4 -29 3 -413 8 -433 9 -40 56 -99 83 -108 14 -4 118 -7
233 -7 l207 0 35 39 35 40 0 238 0 238 -95 0 c-52 0 -96 -1 -96 -2 -1 -2 -5
-106 -8 -233 l-6 -230 -25 0 c-23 0 -26 5 -32 55 -3 30 -6 135 -7 233 l-1 177
-165 0 c-91 0 -165 -3 -166 -7z"/>
<path d="M4844 2250 c-23 -12 -54 -34 -70 -51 l-29 -30 -3 -230 -4 -229 190 0
189 0 7 46 c3 26 6 73 6 105 l0 59 40 0 39 0 3 -102 3 -103 108 -3 108 -3 -3
230 c-3 252 -4 255 -72 305 -26 20 -43 21 -249 24 -206 2 -225 1 -263 -18z
m364 -162 l3 -78 -40 0 c-47 0 -54 13 -46 90 6 66 10 72 48 68 l32 -3 3 -77z"/>
<path d="M5462 1993 l3 -278 260 -3 c143 -1 269 0 280 2 17 4 20 12 17 50 l-4
45 -66 3 -67 3 -6 220 c-4 121 -7 223 -8 228 0 4 -93 7 -206 7 l-206 0 3 -277z"/>
<path d="M6530 1990 l0 -280 275 0 275 0 0 50 0 49 -67 3 -68 3 -3 228 -2 227
-205 0 -205 0 0 -280z"/>
<path d="M7022 2218 l3 -53 58 -3 57 -3 0 -212 c0 -117 4 -218 8 -225 7 -9 50
-12 183 -10 l174 3 5 217 c3 124 9 221 15 227 6 5 30 11 55 13 l45 3 3 48 3
47 -306 0 -306 0 3 -52z"/>
<path d="M9167 1853 c-9 -8 -9 -96 -1 -117 5 -13 22 -16 84 -16 l78 0 4 63 c3
39 1 65 -6 69 -14 10 -150 10 -159 1z"/>
<path d="M12760 1509 c0 -17 4 -28 10 -24 6 3 10 17 10 31 0 13 -4 24 -10 24
-5 0 -10 -14 -10 -31z"/>
<path d="M13281 1386 c2 -2 40 -6 84 -9 48 -3 72 -2 60 3 -19 8 -153 14 -144
6z"/>
</g>
</svg>
