<svg width="107" height="107" xmlns="http://www.w3.org/2000/svg" xmlns:xlink="http://www.w3.org/1999/xlink" xml:space="preserve" overflow="hidden"><defs><clipPath id="clip0"><rect x="388" y="240" width="107" height="107"/></clipPath></defs><g clip-path="url(#clip0)" transform="translate(-388 -240)"><path d="M40.7938 94.4275C32.9025 90.8163 27.9538 85.4663 24.7438 77.04 21.5338 68.7475 22.6038 61.2575 28.6225 48.685 33.705 37.8513 51.7613 9.3625 53.5 9.3625 55.2388 9.3625 73.295 37.8513 78.3775 48.685 81.0525 54.3025 83.5938 61.6588 83.995 64.8688 84.7975 71.9575 81.7213 80.9188 76.505 87.205 71.8238 92.6888 60.99 97.6375 53.5 97.6375 50.0225 97.6375 44.6725 96.3 40.7938 94.4275ZM64.8688 92.4213C75.8363 87.4725 82.7913 75.1675 80.9188 63.5313 80.5175 60.455 77.8425 53.3663 74.9 47.7488 69.55 37.3163 54.7038 13.375 53.5 13.375 52.2963 13.375 36.915 37.985 31.8325 48.0163 29.1575 53.5 26.4825 60.5888 25.9475 63.9325 23.54 79.8488 37.0488 94.9625 53.5 94.9625 56.8438 94.9625 61.9263 93.7588 64.8688 92.4213Z" fill="#262626" transform="matrix(1 0 0 -1 388 347)"/><path d="M52.1625 90.95C52.1625 90.2813 52.8313 89.6125 53.5 89.6125 54.3025 89.6125 54.8375 90.2813 54.8375 90.95 54.8375 91.7525 54.3025 92.2875 53.5 92.2875 52.8313 92.2875 52.1625 91.7525 52.1625 90.95Z" fill="#262626" transform="matrix(1 0 0 -1 388 347)"/><path d="M46.1438 89.6125C46.545 88.9438 47.2138 88.275 47.615 88.275 47.8825 88.275 48.15 88.9438 48.15 89.6125 48.15 90.415 47.4813 90.95 46.6788 90.95 46.01 90.95 45.7425 90.415 46.1438 89.6125Z" fill="#262626" transform="matrix(1 0 0 -1 388 347)"/><path d="M58.85 89.4788C58.85 88.81 59.5188 88.5425 60.1875 88.9438 60.99 89.345 61.525 90.0138 61.525 90.415 61.525 90.6825 60.99 90.95 60.1875 90.95 59.5188 90.95 58.85 90.2813 58.85 89.4788Z" fill="#262626" transform="matrix(1 0 0 -1 388 347)"/><path d="M35.4438 84.2625C35.0425 83.5938 35.31 82.925 35.9788 82.925 36.7812 82.925 37.45 83.5938 37.45 84.2625 37.45 85.065 37.1825 85.6 36.915 85.6 36.5138 85.6 35.845 85.065 35.4438 84.2625Z" fill="#262626" transform="matrix(1 0 0 -1 388 347)"/><path d="M69.55 84.2625C69.55 83.5938 70.2188 82.925 71.0213 82.925 71.69 82.925 71.9575 83.5938 71.5563 84.2625 71.155 85.065 70.4863 85.6 70.085 85.6 69.8175 85.6 69.55 85.065 69.55 84.2625Z" fill="#262626" transform="matrix(1 0 0 -1 388 347)"/><path d="M47.08 73.1613C43.335 69.1488 43.335 64.0663 47.2138 60.455 51.2263 56.71 56.3088 56.71 59.92 60.5888 63.665 64.6012 63.665 69.6838 59.7863 73.295 55.7738 77.04 50.6913 77.04 47.08 73.1613ZM58.0475 71.4225C62.1938 67.41 59.2513 60.1875 53.5 60.1875 52.1625 60.1875 50.0225 61.1238 48.9525 62.3275 47.7488 63.3975 46.8125 65.5375 46.8125 66.875 46.8125 68.2125 47.7488 70.3525 48.9525 71.4225 50.0225 72.6263 52.1625 73.5625 53.5 73.5625 54.8375 73.5625 56.9775 72.6263 58.0475 71.4225Z" fill="#262626" transform="matrix(1 0 0 -1 388 347)"/><path d="M29.425 73.5625C29.425 72.8938 30.0938 72.225 30.8963 72.225 31.565 72.225 31.8325 72.8938 31.4313 73.5625 31.03 74.365 30.3613 74.9 29.96 74.9 29.6925 74.9 29.425 74.365 29.425 73.5625Z" fill="#262626" transform="matrix(1 0 0 -1 388 347)"/><path d="M75.5688 73.5625C75.1675 72.8938 75.435 72.225 76.1038 72.225 76.9062 72.225 77.575 72.8938 77.575 73.5625 77.575 74.365 77.3075 74.9 77.04 74.9 76.6388 74.9 75.97 74.365 75.5688 73.5625Z" fill="#262626" transform="matrix(1 0 0 -1 388 347)"/><path d="M28.0875 66.875C28.0875 66.2063 28.7563 65.5375 29.425 65.5375 30.2275 65.5375 30.7625 66.2063 30.7625 66.875 30.7625 67.6775 30.2275 68.2125 29.425 68.2125 28.7563 68.2125 28.0875 67.6775 28.0875 66.875Z" fill="#262626" transform="matrix(1 0 0 -1 388 347)"/><path d="M76.2375 66.875C76.2375 66.2063 76.9062 65.5375 77.575 65.5375 78.3775 65.5375 78.9125 66.2063 78.9125 66.875 78.9125 67.6775 78.3775 68.2125 77.575 68.2125 76.9062 68.2125 76.2375 67.6775 76.2375 66.875Z" fill="#262626" transform="matrix(1 0 0 -1 388 347)"/><path d="M29.425 60.0538C29.425 59.385 30.0938 59.1175 30.7625 59.5188 31.565 59.92 32.1 60.5888 32.1 60.99 32.1 61.2575 31.565 61.525 30.7625 61.525 30.0938 61.525 29.425 60.8563 29.425 60.0538Z" fill="#262626" transform="matrix(1 0 0 -1 388 347)"/><path d="M75.5688 60.1875C75.97 59.5188 76.6388 58.85 77.04 58.85 77.3075 58.85 77.575 59.5188 77.575 60.1875 77.575 60.99 76.9062 61.525 76.1038 61.525 75.435 61.525 75.1675 60.99 75.5688 60.1875Z" fill="#262626" transform="matrix(1 0 0 -1 388 347)"/></g></svg>