<svg width="512" height="512" xmlns="http://www.w3.org/2000/svg" xmlns:xlink="http://www.w3.org/1999/xlink" xml:space="preserve" overflow="hidden"><defs><clipPath id="clip0"><rect x="-143" y="344" width="512" height="512"/></clipPath></defs><g clip-path="url(#clip0)" transform="translate(143 -344)"><path d="M89.5 343.5C104.833 343.5 120.167 343.5 135.5 343.5 225.144 354.388 292.644 398.721 338 476.5 354.695 507.971 364.861 541.304 368.5 576.5 368.5 591.833 368.5 607.167 368.5 622.5 357.612 712.144 313.279 779.644 235.5 825 204.029 841.695 170.696 851.861 135.5 855.5 120.167 855.5 104.833 855.5 89.5 855.5-0.143997 844.612-67.6438 800.279-113 722.5-129.695 691.029-139.861 657.696-143.5 622.5-143.5 607.167-143.5 591.833-143.5 576.5-132.613 486.857-88.2792 419.357-10.5 374 20.971 357.305 54.304 347.139 89.5 343.5ZM164.5 485.5C183.723 484.571 200.056 490.904 213.5 504.5 225.823 501.948 237.49 497.614 248.5 491.5 244.336 504.152 236.336 514.318 224.5 522 227.833 522.114 231.166 521.781 234.5 521 242.035 519.286 249.368 517.286 256.5 515 248.667 525.5 239.5 534.667 229 542.5 229.434 602.795 205.934 651.295 158.5 688 108.425 720.069 55.425 725.736-0.5 705-8.77901 701.527-16.779 697.527-24.5 693 6.839 695.005 34.839 686.505 59.5 667.5 33.676 664.778 15.676 651.612 5.5 628 12.167 627.667 18.833 627.333 25.5 627 27.715 626.83 29.715 626.163 31.5 625 5.77901 618.612-9.72099 602.446-15 576.5-15.818 573.773-15.652 571.106-14.5 568.5-6.666 572.7 1.66701 574.533 10.5 574-14.934 553.672-21.267 528.505-8.5 498.5-7.998 497.479-7.332 497.312-6.5 498 25.016 534.591 65.016 554.424 113.5 557.5 109.587 518.446 126.587 494.446 164.5 485.5Z" fill="#262626" fill-rule="evenodd" fill-opacity="0.99"/></g></svg>