<?xml version="1.0" encoding="UTF-8" standalone="no"?>
<svg
   version="1.0"
   width="600pt"
   height="600pt"
   viewBox="0 0 600 600"
   preserveAspectRatio="xMidYMid"
   id="svg158"
   sodipodi:docname="logo-white.svg"
   inkscape:version="1.2.2 (732a01da63, 2022-12-09, custom)"
   xmlns:inkscape="http://www.inkscape.org/namespaces/inkscape"
   xmlns:sodipodi="http://sodipodi.sourceforge.net/DTD/sodipodi-0.dtd"
   xmlns="http://www.w3.org/2000/svg"
   xmlns:svg="http://www.w3.org/2000/svg">
  <defs
     id="defs162" />
  <sodipodi:namedview
     id="namedview160"
     pagecolor="#ffffff"
     bordercolor="#000000"
     borderopacity="0.25"
     inkscape:showpageshadow="2"
     inkscape:pageopacity="0.0"
     inkscape:pagecheckerboard="0"
     inkscape:deskcolor="#d1d1d1"
     inkscape:document-units="pt"
     showgrid="false"
     inkscape:zoom="0.43852551"
     inkscape:cx="495.98027"
     inkscape:cy="364.85905"
     inkscape:window-width="1366"
     inkscape:window-height="700"
     inkscape:window-x="0"
     inkscape:window-y="0"
     inkscape:window-maximized="1"
     inkscape:current-layer="layer1" />
  <g
     inkscape:groupmode="layer"
     id="layer1"
     inkscape:label="fondo"
     style="display:inline;fill:#f4cc66;fill-opacity:1">
    <g
       transform="matrix(0.57503952,0,0,-0.50035324,-12.009291,583.91143)"
       fill="#000000"
       stroke="none"
       id="g156"
       style="stroke-width:0.186429">
      <rect
         style="display:none;fill:#ffffff;fill-opacity:1;stroke-width:1.39822"
         id="rect1919"
         width="1039.8577"
         height="1195.6168"
         x="24.459003"
         y="-1167.0492"
         transform="scale(1,-1)" />
      <path
         d="m 495.47335,1142.7379 c -21.77278,-8.9614 -33.64883,-29.4447 -31.66949,-62.73 0,-55.0489 -31.66951,-103.69683 -69.27709,-103.69683 -17.81409,0 -23.7521,-14.08226 -17.81409,-46.08743 5.93806,-28.16453 13.85546,-39.68638 23.75217,-30.72494 9.8967,10.24165 19.79344,11.52185 27.7108,2.56041 7.9174,-7.68124 -5.93803,-20.48329 -27.7108,-28.16453 -25.73148,-8.96144 -39.58689,-8.96144 -39.58689,0 0,6.40103 -7.91739,12.80207 -19.79345,12.80207 -35.6282,0 -19.79344,-37.12599 19.79345,-44.80723 25.73149,-5.12082 39.58689,-19.20309 39.58689,-38.40618 0,-23.04372 7.91736,-29.44474 29.69014,-24.32392 17.8141,5.12083 29.69017,0 29.69017,-12.80206 0,-11.52186 -13.85541,-20.4833 -29.69017,-20.4833 -21.77278,0 -29.69014,-14.08226 -29.69014,-46.08743 v -46.08741 l -112.82264,5.12081 c -75.21508,2.56041 -112.82262,-1.28019 -118.76065,-11.52185 -5.93803,-11.52185 13.85541,-16.64268 61.35967,-16.64268 37.60755,0 93.02918,-6.40103 120.74,-12.80205 l 51.46294,-12.80207 -5.93802,-134.42165 C 390.56814,324.68612 376.71268,310.60385 289.62156,363.09231 c -41.56623,24.32393 -49.48361,25.60412 -104.90524,10.24166 -33.64886,-10.24166 -61.35967,-23.04373 -61.35967,-28.16455 0,-6.40103 7.91738,-7.68123 17.81409,-3.84061 9.89672,3.84061 21.77279,0 27.71082,-10.24166 7.91738,-11.52185 29.69016,-15.36247 63.33902,-11.52185 27.7108,3.84062 104.90523,0 172.20295,-8.96145 150.43017,-21.7635 193.97573,-58.88947 193.97573,-168.98721 V 67.36469 L 523.18417,92.968819 C 471.72122,110.8917 394.52677,121.13334 289.62156,124.97396 l -156.36821,5.12083 -3.95868,61.4499 c -1.97933,33.28536 -11.87607,151.06433 -21.77278,259.88185 L 89.707788,649.8585 83.769748,502.63479 c -1.979328,-80.65299 -1.979328,-198.43196 0,-261.16207 C 85.749117,162.09994 81.79042,131.37499 65.955657,136.49581 40.224193,146.73747 34.286168,57.123046 60.017631,34.079329 67.935012,26.398093 111.48058,11.035622 155.02614,-0.48623735 224.30319,-17.128916 275.76615,-19.689328 491.51467,-9.4476771 632.04812,-3.0466444 786.43696,0.79396735 835.92055,-0.48623735 885.40417,-1.7664408 926.9704,3.354387 928.94976,9.7554193 930.9291,17.436653 877.4868,21.277266 790.39565,21.277266 c -85.11178,-1.280204 -118.76064,1.280215 -83.13245,6.401032 73.23573,10.241654 59.38033,33.285361 -19.79344,33.285361 h -59.38033 l -13.8554,288.046381 c -9.89672,158.74557 -15.83477,311.0901 -13.85543,339.25464 0,28.16454 0,107.53732 0,176.66846 1.97935,94.73526 7.91737,124.17999 27.71083,124.17999 15.83475,0 33.64886,-5.12082 39.58687,-12.80206 21.7728,-23.0437 71.2564,-12.80206 122.71935,25.60413 25.73148,21.7636 59.38032,34.5657 71.2564,30.7251 13.8554,-3.8406 5.93801,2.5604 -13.8554,12.802 -21.7728,11.5218 -51.46296,20.4834 -67.29772,20.4834 -13.8554,0 -19.79346,6.4009 -13.8554,12.802 5.93802,7.6812 1.97933,12.8021 -7.91739,12.8021 -27.71081,0 -27.71081,-34.5657 -1.97932,-44.8073 11.87604,-5.1209 9.89671,-19.2031 -3.9587,-38.4062 -23.75216,-33.28544 -43.54558,-32.00523 -73.23574,5.1208 -13.85542,15.3626 -9.89673,33.2854 7.91738,56.3291 27.71081,35.8457 15.83474,46.0874 -23.75214,20.4833 -31.6695,-20.4833 -65.31836,-2.5604 -65.31836,34.5656 0,33.2853 -41.56623,40.9665 -102.92591,17.9228 z M 459.84516,835.48839 c 0,-6.40103 -7.91737,-12.80206 -19.79344,-12.80206 -9.89673,0 -19.79343,6.40103 -19.79343,12.80206 0,7.68124 9.8967,12.80207 19.79343,12.80207 11.87607,0 19.79344,-5.12083 19.79344,-12.80207 z"
         id="path148"
         style="display:inline;fill:#fcfcfc;fill-opacity:1;stroke-width:0.186429" />
      <path
         d="m 986.35074,1118.414 c -5.93803,-6.401 -27.71084,-8.9615 -47.50427,-5.1208 -19.79343,2.5604 -51.46295,-6.401 -71.25641,-20.4833 -45.52489,-32.0051 -19.79341,-35.8458 31.66953,-5.1208 45.52492,26.8843 71.25637,12.8019 27.71081,-15.3625 -39.58688,-25.6041 -39.58688,-37.1259 0,-76.81241 39.5869,-38.40621 1.97936,-43.52704 -37.60754,-6.40106 -23.75213,21.76357 -31.66949,23.04387 -39.58689,7.68126 -5.93802,-10.24166 1.97936,-25.60415 17.81409,-33.28538 15.83478,-8.96144 27.71084,-25.60413 27.71084,-38.40619 0,-12.80205 13.85541,-29.44474 29.69015,-38.40617 23.75214,-12.80207 29.69019,-12.80207 29.69019,0 0,10.24163 17.81408,14.08226 49.48356,10.24163 l 49.4836,-6.40102 -9.8967,89.61443 c -3.9587,49.92811 -19.7934,94.73541 -31.6695,99.85621 -13.85539,5.1207 -17.81409,17.9228 -11.8761,29.4446 13.8554,21.7636 3.9587,28.1646 -13.85536,8.9615 z"
         id="path150"
         style="fill:#fcfcfc;fill-opacity:1;stroke-width:0.186429" />
      <path
         d="m 341.08451,250.43416 c 0,-6.40103 39.58688,-10.24164 89.07048,-11.52185 49.48362,0 89.07049,3.84062 89.07049,10.24165 0,5.12083 -39.58687,10.24166 -89.07049,10.24166 -49.4836,0 -89.07048,-3.84063 -89.07048,-8.96146 z"
         id="path152"
         style="fill:#fcfcfc;fill-opacity:1;stroke-width:0.186429" />
      <path
         d="m 242.11727,195.3853 c 0,-14.08227 9.89675,-25.60413 19.79346,-25.60413 11.87606,0 19.79344,11.52186 19.79344,25.60413 0,14.08227 -7.91738,25.60413 -19.79344,25.60413 -9.89671,0 -19.79346,-11.52186 -19.79346,-25.60413 z"
         id="path154"
         style="fill:#fcfcfc;fill-opacity:1;stroke-width:0.186429" />
    </g>
  </g>
</svg>
