<?xml version="1.0" encoding="UTF-8" standalone="no"?>
<!-- Created with Inkscape (http://www.inkscape.org/) -->

<svg
   width="44mm"
   height="14mm"
   viewBox="0 0 44.000001 14"
   version="1.1"
   id="svg5"
   xml:space="preserve"
   inkscape:version="1.2.2 (732a01da63, 2022-12-09, custom)"
   sodipodi:docname="ico_tmd_white.svg"
   inkscape:export-filename="amarrillo_size_small_white.png"
   inkscape:export-xdpi="96"
   inkscape:export-ydpi="96"
   xmlns:inkscape="http://www.inkscape.org/namespaces/inkscape"
   xmlns:sodipodi="http://sodipodi.sourceforge.net/DTD/sodipodi-0.dtd"
   xmlns="http://www.w3.org/2000/svg"
   xmlns:svg="http://www.w3.org/2000/svg"><sodipodi:namedview
     id="namedview7"
     pagecolor="#ffffff"
     bordercolor="#000000"
     borderopacity="0.25"
     inkscape:showpageshadow="2"
     inkscape:pageopacity="0.0"
     inkscape:pagecheckerboard="0"
     inkscape:deskcolor="#d1d1d1"
     inkscape:document-units="mm"
     showgrid="false"
     inkscape:zoom="3.99"
     inkscape:cx="78.822055"
     inkscape:cy="27.067669"
     inkscape:window-width="1366"
     inkscape:window-height="700"
     inkscape:window-x="0"
     inkscape:window-y="0"
     inkscape:window-maximized="1"
     inkscape:current-layer="layer1"
     showguides="false" /><defs
     id="defs2"><inkscape:path-effect
       effect="bspline"
       id="path-effect15746"
       is_visible="true"
       lpeversion="1"
       weight="33.333333"
       steps="2"
       helper_size="0"
       apply_no_weight="true"
       apply_with_weight="true"
       only_selected="false" /><inkscape:path-effect
       effect="bspline"
       id="path-effect15742"
       is_visible="true"
       lpeversion="1"
       weight="33.333333"
       steps="2"
       helper_size="0"
       apply_no_weight="true"
       apply_with_weight="true"
       only_selected="false" /><inkscape:path-effect
       effect="bspline"
       id="path-effect15738"
       is_visible="true"
       lpeversion="1"
       weight="33.333333"
       steps="2"
       helper_size="0"
       apply_no_weight="true"
       apply_with_weight="true"
       only_selected="false" /><inkscape:path-effect
       effect="bspline"
       id="path-effect15734"
       is_visible="true"
       lpeversion="1"
       weight="33.333333"
       steps="2"
       helper_size="0"
       apply_no_weight="true"
       apply_with_weight="true"
       only_selected="false" /><inkscape:path-effect
       effect="bspline"
       id="path-effect15536"
       is_visible="true"
       lpeversion="1"
       weight="33.333333"
       steps="2"
       helper_size="0"
       apply_no_weight="true"
       apply_with_weight="true"
       only_selected="false" /><inkscape:path-effect
       effect="bspline"
       id="path-effect15532"
       is_visible="true"
       lpeversion="1"
       weight="33.333333"
       steps="2"
       helper_size="0"
       apply_no_weight="true"
       apply_with_weight="true"
       only_selected="false" /><inkscape:path-effect
       effect="bspline"
       id="path-effect15528"
       is_visible="true"
       lpeversion="1"
       weight="33.333333"
       steps="2"
       helper_size="0"
       apply_no_weight="true"
       apply_with_weight="true"
       only_selected="false" /><inkscape:path-effect
       effect="bspline"
       id="path-effect15524"
       is_visible="true"
       lpeversion="1"
       weight="33.333333"
       steps="2"
       helper_size="0"
       apply_no_weight="true"
       apply_with_weight="true"
       only_selected="false" /><inkscape:path-effect
       effect="bspline"
       id="path-effect15520"
       is_visible="true"
       lpeversion="1"
       weight="33.333333"
       steps="2"
       helper_size="0"
       apply_no_weight="true"
       apply_with_weight="true"
       only_selected="false" /><inkscape:path-effect
       effect="bspline"
       id="path-effect15516"
       is_visible="true"
       lpeversion="1"
       weight="33.333333"
       steps="2"
       helper_size="0"
       apply_no_weight="true"
       apply_with_weight="true"
       only_selected="false" /><inkscape:path-effect
       effect="bspline"
       id="path-effect15512"
       is_visible="true"
       lpeversion="1"
       weight="33.333333"
       steps="2"
       helper_size="0"
       apply_no_weight="true"
       apply_with_weight="true"
       only_selected="false" /><inkscape:path-effect
       effect="bspline"
       id="path-effect15508"
       is_visible="true"
       lpeversion="1"
       weight="33.333333"
       steps="2"
       helper_size="0"
       apply_no_weight="true"
       apply_with_weight="true"
       only_selected="false" /><inkscape:path-effect
       effect="bspline"
       id="path-effect15504"
       is_visible="true"
       lpeversion="1"
       weight="33.333333"
       steps="2"
       helper_size="0"
       apply_no_weight="true"
       apply_with_weight="true"
       only_selected="false" /><inkscape:path-effect
       effect="bspline"
       id="path-effect15500"
       is_visible="true"
       lpeversion="1"
       weight="33.333333"
       steps="2"
       helper_size="0"
       apply_no_weight="true"
       apply_with_weight="true"
       only_selected="false" /><inkscape:path-effect
       effect="bspline"
       id="path-effect15496"
       is_visible="true"
       lpeversion="1"
       weight="33.333333"
       steps="2"
       helper_size="0"
       apply_no_weight="true"
       apply_with_weight="true"
       only_selected="false" /><inkscape:path-effect
       effect="bspline"
       id="path-effect15492"
       is_visible="true"
       lpeversion="1"
       weight="33.333333"
       steps="2"
       helper_size="0"
       apply_no_weight="true"
       apply_with_weight="true"
       only_selected="false" /><inkscape:path-effect
       effect="bspline"
       id="path-effect15488"
       is_visible="true"
       lpeversion="1"
       weight="33.333333"
       steps="2"
       helper_size="0"
       apply_no_weight="true"
       apply_with_weight="true"
       only_selected="false" /></defs><g
     inkscape:label="Layer 1"
     inkscape:groupmode="layer"
     id="layer1"
     style="display:inline" /><g
     inkscape:groupmode="layer"
     id="layer3"
     inkscape:label="color1"
     style="display:inline"><path
       style="fill:#fffffe;fill-opacity:1;stroke-width:0.264583"
       d="m 0.51725217,3.9754746 0.0226533,1.6884955 0.15278701,0.1350643 0.96442922,-0.01003 0.1324939,-0.069212 -4.09e-5,-0.8052991 0.0094,-0.8488029 0.2501788,-0.017016 0.015213,-0.5477233 -1.87957785,-0.00201 c 0,0 -0.0774071,0.4512525 -0.0197371,0.4752627 0.0576689,0.02401 0.35220644,0.00127 0.35220644,0.00127 z"
       id="path5604" /><path
       style="fill:#fffffe;fill-opacity:1;stroke-width:0.264583"
       d="m 3.5386185,3.9726027 -0.020134,0.4065588 0.4370419,0.049528 0.03844,0.021052 0.00798,0.1309684 -0.0022,0.062384 -3.254e-4,0.1188236 -0.023973,0.068398 -0.1023244,0.00692 -0.3297255,0.01658 -0.032748,0.00788 0.010487,0.3674187 c 0,0 -0.00414,0.075928 0.08282,0.093933 0.08695,0.018002 0.3252219,0.01936 0.3252219,0.01936 L 3.995957,5.4039092 4.012753,5.5827641 4.000012,5.6759241 3.925066,5.7141631 3.7648559,5.7246791 2.6585576,5.7382221 2.3306737,5.73898 2.2218303,5.726544 2.1235796,5.632177 2.1039903,3.5253977 c 0,0 0.018243,-0.025027 0.067399,-0.031886 0.049156,-0.00686 1.8148589,0.00417 1.8148589,0.00417 l 0.036982,0.049643 -0.00319,0.3675274 -0.4657107,-0.010829 z"
       id="path5606" /><path
       style="fill:#fffffe;fill-opacity:1;stroke-width:0.264583"
       d="m 4.2795258,3.491285 1.5188164,-0.00881 0.00846,0.4536695 -0.4792378,0.00739 -2.767e-4,1.2647838 0.1178015,0.1439041 0.3579027,-0.0039 -0.00774,0.4099267 -0.021727,0.048033 -0.076268,-0.00692 L 4.6607399,5.7662973 4.5089643,5.7536115 4.4014374,5.7054382 4.3337336,5.6687779 4.2818481,5.6072533 4.2230995,5.5600191 4.1335812,5.44619 c 0,0 -0.026066,-0.016721 -0.070922,-0.101719 C 4.0178102,5.259483 4.0176262,4.839835 4.0176262,4.839835 l 0.013045,-0.4543709 c 0,0 -0.00245,-0.1090575 0.050326,-0.3362804 0.052797,-0.2272234 0.1985429,-0.5578945 0.1985429,-0.5578945 z"
       id="path8658" /><path
       style="display:inline;fill:#fffffe;fill-opacity:1;stroke-width:0.264583"
       d="M 5.8991993,5.7351709 5.8563327,3.5142295 7.7079565,3.5056295 7.7031269,4.4623809 7.876525,4.8401185 7.8875099,3.503636 8.6278805,3.513016 8.6525372,5.7508916 7.4136456,5.7624526 7.1442575,4.6647629 7.0981019,5.7672963 Z"
       id="path8660" /><path
       style="fill:#fffffe;fill-opacity:1;stroke-width:0.264583"
       d="m 10.017694,3.5047459 0.0084,2.247268 -1.2639689,0.010439 -0.047674,-0.1568281 0.00148,-2.0919092 z"
       id="path8662" /><path
       style="fill:#fffffe;fill-opacity:1;stroke-width:0.264583"
       d="m 13.636246,3.5236893 0.01878,2.2117592 -0.119884,0.043394 -0.159452,0.00614 -0.308039,0.0039 -0.132649,-0.05377 -0.09153,-1.0582175 -0.194056,1.0836463 -0.984054,0.00959 -0.125013,-0.1181386 -0.04634,-0.1095778 -0.01227,-0.1132752 -0.116518,-0.6497534 -0.03572,0.930196 -0.04594,0.056201 -0.07931,0.025289 -1.043219,-0.016685 -0.0019,-2.2804521 1.745217,0.00866 0.173042,0.9947265 c 0,0 0.08687,-1.0119146 0.304759,-1.0074537 0.217911,0.00448 1.254037,0.033827 1.254037,0.033827 z"
       id="path8664" /><path
       style="fill:#ffffff;fill-opacity:1;stroke-width:0.264583"
       d="m 13.94385,3.4859083 1.72908,-0.00186 c 0,0 0.06804,0.053594 0.113678,0.1441327 0.04568,0.090538 0.08458,0.1828261 0.09713,0.2676951 0.01267,0.084869 0.02682,0.5607824 0.02682,0.5607824 l 0.01359,0.8377597 c 0,0 -0.01964,0.1010188 -0.04644,0.1667911 -0.02681,0.065767 -0.105372,0.1906207 -0.14293,0.1967066 -0.03755,0.0061 -0.05308,0.049936 -0.199608,0.054366 -0.146493,0.00443 -1.319457,0.012698 -1.319457,0.012698 0,0 -0.140228,-5.246e-4 -0.250527,-0.1213216 C 13.854884,5.4828716 13.749285,5.2967235 13.736842,5.2162306 13.7243,5.1357366 13.697268,3.9638282 13.697268,3.9638282 l 0.01737,-0.1612015 0.04501,-0.10403 0.04028,-0.075922 0.0375,-0.055154 0.03974,-0.04393 z"
       id="path13170" /><path
       style="fill:#f9ba4e;fill-opacity:1;stroke-width:0.264583"
       d="m 15.08222,3.9163114 0.01888,1.277574 -0.11843,0.012423 -0.01148,-1.2591606 z"
       id="path10252" /><path
       style="fill:#ffffff;fill-opacity:1;stroke-width:0.264583"
       d="m 16.065905,3.5340444 0.0057,2.2188412 1.127898,-0.025039 0.06411,-0.078042 -0.0048,-0.9622524 0.07918,0.6123173 0.103315,0.2800947 0.145192,0.1490709 0.28589,0.046006 0.762285,0.00211 0.150247,-0.046564 0.04175,-0.280205 -0.01841,-1.9656979 -0.793668,0.00253 -0.03233,1.025373 -0.197604,-1.0219658 -1.730134,-0.029983 z"
       id="path13173" /><path
       style="fill:#ffffff;fill-opacity:1;stroke-width:0.264583"
       d="m 18.855181,3.4835164 1.868213,-0.00844 0.01083,0.3593861 -0.03918,0.058796 -0.145294,-0.00548 -0.142564,0.007 -0.007,1.717093 -0.02979,0.1391653 -0.05872,0.039249 -0.931094,-0.019421 -0.103774,-0.034786 -0.03268,-0.04059 -0.01555,-0.028928 -0.02232,-0.047183 -0.0078,-0.025285 -0.0071,-1.622217 -0.329373,-0.039944 -0.01716,-0.05752 -0.0079,-0.051546 z"
       id="path13310" /><path
       style="display:inline;fill:#ffffff;fill-opacity:1;stroke-width:0.264583"
       d="m 21.032747,3.502773 1.77822,-0.0031 c 0,0 0.05468,-0.026344 0.08352,0.025446 0.02885,0.051791 0.04385,0.082441 0.05259,0.1622999 0.0086,0.07986 0.03253,0.2546775 0.02791,0.4137779 -0.0045,0.1591012 0.01867,0.2143133 -9.58e-4,0.7108047 -0.01967,0.4964916 -0.01374,0.6565523 -0.05489,0.7456513 -0.04109,0.089098 -0.08014,0.154896 -0.170508,0.1653634 -0.09038,0.01047 -0.21766,0.073659 -0.310961,6.996e-4 -0.09331,-0.07293 -0.198885,-0.2395367 -0.198885,-0.2395367 l -0.03201,-0.4767402 -0.121811,0.010953 -0.01135,0.7105073 c 0,0 0.0083,0.072088 -0.05942,0.068621 -0.06778,-0.00345 -1.122278,-0.014485 -1.122278,-0.014485 0,0 -0.09718,-0.00116 -0.111038,-0.058038 -0.01374,-0.056867 -0.0184,-0.8368939 -0.0184,-0.8368939 l -0.0088,-0.7111254 0.02145,-0.2603469 0.04905,-0.1609275 0.06266,-0.098259 0.04905,-0.064189 z"
       id="path13312" /><path
       style="fill:#f9ba4e;fill-opacity:1;stroke-width:0.264583"
       d="m 22.075806,3.9605378 -0.009,0.4523618 0.136076,0.00417 0.0077,-0.4681212 z"
       id="path13314" /><path
       style="display:inline;fill:#ffffff;fill-opacity:1;stroke-width:0.264583"
       d="m 26.174108,5.0115662 0.03367,0.7228131 0.114365,0.059266 0.624527,-0.00894 0.06199,-0.062173 0.0065,-0.5391276 -0.0173,-0.6660916 -0.0077,-0.4365339 -0.03254,-0.2614865 -0.201844,-0.262958 -0.278751,-0.066226 -1.392325,-0.00934 -0.155074,0.033204 -0.03929,0.04738 -0.0489,0.082373 -0.02123,0.069782 -0.03117,0.1388462 -0.02016,0.1262636 -0.0096,0.1520544 -0.009,1.0688785 0.0015,0.3771409 0.047,0.1469276 0.05346,0.04297 0.132591,0.028671 1.033869,-0.036548 c 0,0 0.04284,0.036217 0.04672,-0.071646 0.0039,-0.1078583 -0.01996,-0.6665663 -0.01996,-0.6665663 z"
       id="path13316" /><path
       style="fill:#f9ba4e;fill-opacity:1;stroke-width:0.264583"
       d="m 26.056677,3.9554133 -0.01135,0.4547005 0.146228,0.00575 -0.0016,-0.4843689 z"
       id="path13318" /><path
       style="display:inline;fill:#ffffff;fill-opacity:1;stroke-width:0.264583"
       d="m 29.192823,5.7691292 -0.0077,-0.9074757 -0.02828,-0.081967 -0.170919,-0.1480592 -0.09727,-0.062924 -0.109677,-0.00242 0.279465,-0.019057 c 0,0 0.08097,-0.1179465 0.09138,-0.2219205 0.01035,-0.1039733 0.04601,-0.2387353 0.03869,-0.3415801 -0.0074,-0.1028446 -0.06754,-0.2768042 -0.06754,-0.2768042 l -0.05567,-0.1688201 c 0,0 -0.04874,-0.049113 -0.128848,-0.057148 -0.0801,-0.00804 -1.899779,-0.0056 -1.899779,-0.0056 0,0 -0.0093,2.0601027 0.0083,2.1408941 0.01751,0.080789 0.150876,0.1535605 0.150876,0.1535605 l 0.940814,2.924e-4 0.05869,-0.074219 0.01997,-0.088657 -0.01188,-0.7196155 0.159659,0.010953 0.01241,0.773383 0.0277,0.087229 0.04733,0.00894 z"
       id="path13460" /><path
       style="fill:#f9ba4e;fill-opacity:1;stroke-width:0.264583"
       d="m 28.238536,3.9544514 0.0061,0.306708 0.117098,-0.00321 0.0053,-0.3039176 z"
       id="path13462" /><path
       style="fill:#ffffff;fill-opacity:1;stroke-width:0.264583"
       d="m 30.561251,4.4372902 -0.01588,0.7501728 -0.04411,0.010753 -0.0027,-1.2536541 0.843706,-0.007 0.01388,-0.5123539 c 0,0 -0.02694,-0.017744 -0.06932,-0.025759 -0.04235,-0.00803 -0.430821,-0.031137 -0.430821,-0.031137 l -1.209385,0.00304 c 0,0 -0.227624,-0.03608 -0.319864,0.1789721 -0.09225,0.2150531 -0.122749,0.5540784 -0.131171,0.7150868 -0.0084,0.1610072 0.01609,0.7281299 0.01609,0.7281299 l 0.01531,0.221772 0.03315,0.095953 c 0,0 0.0236,0.1092433 0.07909,0.2025376 0.05554,0.093295 0.09537,0.2240401 0.24586,0.2485385 0.150522,0.024498 1.499139,0.035015 1.499139,0.035015 l 0.12601,-0.091433 0.06618,-0.1460249 0.03606,-0.1258042 0.02393,-0.1130187 0.02086,-0.1327653 -0.0015,-0.1126172 -0.0083,-0.6461522 z"
       id="path13464" /><path
       style="display:inline;fill:#ffffff;fill-opacity:1;stroke-width:0.264583"
       d="m 31.627638,3.4865884 1.758551,0.017421 c 0,0 0.03278,0.015749 0.06298,0.070461 0.03019,0.054711 0.05904,0.093325 0.06692,0.1516771 0.0077,0.058349 0.0047,1.8157829 0.0047,1.8157829 0,0 -0.0049,0.077732 -0.03481,0.1134375 -0.0298,0.035703 -0.07856,0.057974 -0.136327,0.062305 -0.05776,0.00431 -0.353219,0.00673 -0.353219,0.00673 l -0.115196,-0.00982 c 0,0 -0.04437,-0.043194 -0.05816,-0.1147076 -0.01374,-0.071517 -0.03675,-0.6900886 -0.03675,-0.6900886 l -0.117507,0.019379 -0.01878,0.4733341 -0.0028,0.2104716 -0.04819,0.075185 -0.06524,0.052954 -0.167603,-0.00372 -0.783316,0.02141 -0.09232,-0.00419 -0.07165,-0.029146 -0.03302,-0.044331 -0.01824,-0.1009843 0.0098,-0.3555744 0.0066,-0.6754048 0.002,-0.2924782 0.0073,-0.2227413 0.0082,-0.1407748 0.01035,-0.1018751 0.03432,-0.07171 0.02897,-0.069772 0.02588,-0.049913 0.03927,-0.0607 0.0324,-0.035361 z"
       id="path13466" /><path
       style="fill:#f9ba4e;fill-opacity:1;stroke-width:0.264583"
       d="m 32.79718,3.9572868 0.01162,0.4513307 -0.120042,6.938e-4 -0.01202,-0.4488845 z"
       id="path13468" /><path
       style="fill:#ffffff;fill-opacity:1;stroke-width:0.264583"
       d="m 33.794872,3.4865191 1.658689,0.00296 0.08656,0.096013 0.06187,0.113274 0.0296,0.136275 -10e-4,0.1236201 -0.0045,0.1795841 -0.0066,0.084906 -0.03854,0.034038 -0.682693,-0.00703 -0.02556,-0.043006 -9.57e-4,-0.1259106 -0.135516,-0.00197 -0.0049,0.2097933 0.139074,0.01784 0.152344,0.06546 0.150095,0.056981 0.150275,0.08927 0.09407,0.083498 0.05933,0.07912 0.04206,0.068313 0.02642,0.085568 0.02162,0.086853 0.02467,0.1556674 -0.0082,0.1156046 -0.02647,0.1009958 -0.05903,0.126132 -0.06428,0.1020911 -0.08248,0.061319 -0.08314,0.0557 -0.11381,0.024914 -1.104107,0.00674 -0.141351,-0.065392 -0.112581,-0.091624 -0.09474,-0.078251 -0.02427,-0.046285 -0.02895,-0.059452 -0.01282,-0.059054 -0.02121,-0.045568 -0.01815,-0.3411861 1.100618,-0.00102 0.04461,0.1549013 -0.0093,0.1563846 0.138011,-0.00878 -0.01013,-0.3422043 -0.927217,0.00497 -0.08214,-0.024778 -0.03649,-0.021089 -0.05452,-0.049853 -0.02821,-0.030725 -0.02989,-0.037822 -0.02546,-0.055644 -0.02627,-0.088466 -0.0345,-0.1507832 -0.02518,-0.1173231 -0.0083,-0.073611 -0.0025,-0.1298865 0.0071,-0.079028 0.0061,-0.06536 0.002,-0.034468 0.0067,-0.084958 0.02819,-0.075284 0.01951,-0.056261 0.03499,-0.064296 c 0,0 0.10371,-0.121018 0.112028,-0.1223896 z"
       id="path13669" /><path
       style="fill:#f9ba4e;fill-opacity:1;stroke-width:0.264583"
       d="m 34.732746,4.2871944 0.102814,0.015214 0.105374,0.037826 0.06462,0.017516 0.07475,0.028291 0.12675,0.056167 0.08515,0.050076 0.112068,0.080489 0.0825,0.1071471 0.04621,0.1026843 0.04837,0.2208914 0.142102,-0.038826 -0.06551,-0.36421 -0.08953,-0.2712365 -0.007,-0.073632 z"
       id="path13907" /><path
       style="fill:#f9ba4e;fill-opacity:1;stroke-width:0.264583"
       d="m 33.787455,3.4711446 1.660118,0.02651 0.0077,-0.169657 -1.669162,-0.037966 z"
       id="path13909" /><path
       style="fill:#f9ba4e;fill-opacity:1;stroke-width:0.264583"
       d="m 35.45493,3.4988009 0.08732,0.083082 0.03855,0.072305 0.03916,0.1033875 0.01876,0.1402898 -0.0084,0.1532743 -0.0044,0.1246434 -0.01122,0.072026 0.09495,0.015507 0.03921,-0.6293298 -0.0038,-0.2149469 z"
       id="path13911" /><path
       style="fill:#f9ba4e;fill-opacity:1;stroke-width:0.264583"
       d="m 35.584041,5.0027613 0.0047,0.1192363 -0.0038,0.079175 -0.02351,0.086025 -0.02893,0.067672 -0.08072,0.1339467 -0.07345,0.083112 -0.164738,0.093893 -0.313449,-0.00379 -0.891273,-0.0031 -0.169284,-0.1010692 -0.09834,-0.065421 -0.05021,-0.0503 -0.02559,-0.038251 -0.02818,-0.068313 -0.03122,-0.069925 -0.01083,-0.1405601 -0.0093,-0.2430822 -0.06314,-0.01025 0.01242,0.6206002 0.260934,0.2843584 0.643268,0.01516 1.041279,0.00736 0.276964,-0.5180094 -0.0034,-0.3678388 z"
       id="path13913" /><path
       style="fill:#f9ba4e;fill-opacity:1;stroke-width:0.264583"
       d="m 33.516132,3.7794759 0.08236,-3.084e-4 -0.0071,0.1042889 -0.0087,0.078863 -0.007,0.027184 0.005,0.061332 -0.0028,0.042526 4.99e-4,0.032432 v 0.02034"
       id="path13915" /><path
       style="fill:#f9ba4e;fill-opacity:1;stroke-width:0.264583"
       d="m 33.590501,5.1221063 -0.01761,-1.0125793 -0.05392,-0.2736628 0.0061,1.2123566 z"
       id="path13917" /><path
       style="fill:#f9ba4e;fill-opacity:1;stroke-width:0.264583"
       d="m 33.56938,4.1466945 0.0071,0.097339 0.01254,0.078727 0.04846,0.1843095 0.06402,0.1922909 0.02207,0.176295 -0.142369,0.00248 z"
       id="path13919" /><path
       style="display:inline;fill:#ffffff;fill-opacity:1;stroke-width:0.264583"
       d="m 9.1955842,7.0243517 0.00531,1.671181 -0.00325,0.3503474 0.080072,0.1111057 0.2157727,0.020048 1.4918511,0.014329 0.109661,-0.052826 0.06308,-0.096806 0.04828,-0.1199029 0.02574,-0.093015 0.04189,-0.098573 0.02805,-0.1430708 0.03279,-0.2020928 0.01787,-0.8083465 -0.0065,-0.1464682 -0.02376,-0.069017 -0.02742,-0.055514 -0.0321,-0.061365 -0.05045,-0.086772 -0.03859,-0.072073 -0.04277,-0.044093 -0.0419,-0.036451 -1.8054479,-0.019087 z"
       id="path14074" /><path
       style="fill:#f9ba4e;fill-opacity:1;stroke-width:0.264583"
       d="m 10.3942,7.5161268 -0.0065,1.2016348 0.139106,-0.00548 -0.0088,-1.2056548 z"
       id="path14076" /><path
       style="fill:#fffffe;fill-opacity:1;stroke-width:0.264583"
       d="m 13.286259,7.01264 -0.0078,1.7074361 -0.03858,0.132205 -0.03813,0.1044816 -0.04537,0.074351 -0.08476,0.049608 -0.104936,0.025191 -0.158986,0.013846 -0.858717,0.00145 -0.151746,-0.020425 -0.102186,-0.040618 -0.08019,-0.047649 -0.07846,-0.072637 -0.04733,-0.076334 -0.05559,-0.1177196 -0.0332,-0.1045739 -0.02337,-0.1465431 -0.0087,-0.2029243 7.28e-4,-0.2035396 0.01388,-1.0982861 1.053693,-0.016028 0.01388,1.7289869 0.116133,0.027522 0.0042,-1.7233623 0.696889,-0.021768 z"
       id="path14078" /><path
       style="display:inline;fill:#ffffff;fill-opacity:1;stroke-width:0.264583"
       d="m 13.54958,7.0357466 1.674193,0.00956 c 0,0 0.07405,0.011312 0.107315,0.041924 0.03327,0.030612 0.0466,0.014676 0.06633,0.1049629 0.01971,0.090286 0.03124,0.9157314 0.03124,0.9157314 l 0.0099,0.6052673 -0.0039,0.22684 -0.02613,0.1095865 -0.08543,0.053333 -0.181965,-9.909e-4 -0.2811,-0.00878 -0.07094,-0.00709 -0.03571,-0.00832 -0.0191,-0.050061 -0.0038,-0.054255 -0.0213,-0.5481197 -0.108372,-6.995e-4 -0.01215,0.110232 -0.0054,0.1751894 -0.0093,0.1156455 -0.0093,0.06812 -0.01388,0.072915 -0.04082,0.1020785 -0.04782,0.046105 -0.07824,0.042175 -0.08566,0.012546 -0.178775,-0.00664 -0.367943,-0.00449 -0.175685,-0.00116 -0.08663,-0.015543 -0.09675,-0.028778 -0.04497,-0.091257 -0.0084,-0.058199 -0.0187,-0.14016 -0.0035,-0.1134215 0.0077,-0.4410058 0.01403,-0.3093112 0.0088,-0.2304809 0.01873,-0.2390846 0.03615,-0.1641781 0.02807,-0.1340975 0.03406,-0.081356 0.03667,-0.066146 z"
       id="path14962" /><path
       style="fill:#f9ba4e;fill-opacity:1;stroke-width:0.264583"
       d="m 14.59117,7.5038528 -0.0015,0.4027352 0.04461,-0.00262 3.64e-4,-0.4049886 z"
       id="path14964"
       inkscape:label="path14964" /><path
       id="path14966"
       style="fill:#ffffff;fill-opacity:1;stroke-width:0.264583"
       d="m 16.726051,6.9916846 -1.25359,0.00904 -0.0076,1.998959 0.0093,0.084656 0.110141,0.021692 0.197909,0.00302 0.495129,-0.00332 0.287333,0.00872 0.438653,-0.043083 0.07413,-0.019279 0.0186,-0.066885 0.0029,-0.063266 0.0023,-0.1244247 -0.0063,-0.0479 -0.341228,-0.010829 -0.007,-0.094902 z" /><path
       style="fill:#ffffff;fill-opacity:1;stroke-width:0.264583"
       d="m 18.492706,6.8992098 1.284381,-8.747e-4 0.01255,0.3169634 -8.69e-4,0.4381381 0.02119,0.4520807 0.0017,0.3237165 0.01267,0.2790517 0.08934,0.034863 0.10738,0.00179 0.143551,0.01047 0.05455,0.024335 0.01486,0.054975 0.0079,0.064847 0.0015,0.1184669 -0.01228,0.073032 -0.04133,0.056481 -0.149894,0.019187 -0.810889,0.01213 -0.290537,-0.009 -0.23436,0.017205 -0.123331,-0.015507 -0.09577,-0.042266 -0.01629,-0.1609329 0.0051,-0.6098905 z"
       id="path15128" /><path
       style="fill:#ffffff;fill-opacity:1;stroke-width:0.264583"
       d="m 21.816322,6.9064732 0.0049,0.6021357 -0.337783,-0.00105 -0.0083,1.6289881 -0.03797,0.071441 -1.103365,0.00379 -0.04534,-0.085283 -7.27e-4,-0.447016 c 0,0 -0.0098,-1.2091406 -0.0033,-1.1817616 0.0066,0.027379 -0.344668,-0.00787 -0.344668,-0.00787 0,0 -0.06167,-0.5820594 -0.02276,-0.5929154 0.03893,-0.010842 1.899235,0.00954 1.899235,0.00954 z"
       id="path15130" /><path
       style="display:inline;fill:#ffffff;fill-opacity:1;stroke-width:0.264583"
       d="m 21.869515,6.8849348 1.727961,0.020876 c 0,0 0.290833,0.1201334 0.294521,0.3439408 0.0038,0.223807 0.0096,1.3630814 0.0096,1.3630814 l -0.01202,0.1024558 -0.01574,0.1212919 c 0,0 -0.03326,0.3299984 -0.257495,0.341345 -0.224241,0.011325 -1.714592,0.00747 -1.714592,0.00747 0,0 -0.03769,-0.058395 -0.04654,-0.1494937 -0.0087,-0.0911 0.01403,-2.1509641 0.01403,-2.1509641 z"
       id="path15132" /><path
       style="fill:#f9ba4e;fill-opacity:1;stroke-width:0.264583"
       d="m 23.047351,7.4905249 0.131133,6.41e-4 0.0027,1.1135095 -0.144334,-0.011733 z"
       id="path15134" /><path
       style="fill:#ffffff;fill-opacity:1;stroke-width:0.264583"
       d="m 26.249729,8.566733 0.461339,0.0081 0.04374,0.080081 0.01623,0.072864 0.0021,0.048967 -0.0016,0.091373 -0.0065,0.083767 -0.01321,0.05638 -0.03688,0.044336 -0.04072,0.033393 -0.03672,0.020241 -0.0629,0.028712 -0.09263,0.010313 -0.06543,0.0014 -0.05208,-0.010965 -0.04637,-0.018696 -0.0537,-0.046657 -0.02449,-0.042682 -0.0304,-0.063685 -0.01515,-0.081039 -0.0086,-0.086523 -0.0012,-0.060209 0.01901,-0.066755 0.01083,-0.038228 z"
       id="path15136" /><path
       style="display:inline;fill:#fffffe;fill-opacity:1;stroke-width:0.264583"
       d="m 24.278998,6.8964062 1.516572,0.0053 0.06033,0.050455 0.04324,0.044169 0.04997,0.071257 0.01403,0.035299 0.02427,0.068067 0.0275,0.063001 0.02221,0.096596 0.0049,0.069794 0.01344,1.6466777 -0.02344,0.06646 -0.0339,0.052744 -0.05339,0.033022 -0.567804,0.00105 -0.0376,-0.032666 -0.0096,-0.087853 -0.01188,-0.658692 -0.180745,-0.00618 0.007,0.1965661 0.002,0.5538601 -0.0748,0.025157 -0.991066,0.011275 -0.09952,-0.076095 -0.04782,-0.1037879 -0.01374,-0.1169218 -0.0065,-0.1612221 8.68e-4,-0.4070071 0.0012,-0.2066715 -0.004,-0.1964135 0.01692,-0.3885717 0.01588,-0.1842527 0.03441,-0.097221 0.06538,-0.1348582 0.04725,-0.069828 0.06348,-0.071474 0.09338,-0.082811 z"
       id="path15140" /><path
       style="fill:#f9ba4e;fill-opacity:1;stroke-width:0.264583"
       d="m 25.155013,7.4942017 -0.0065,0.4088386 0.113968,-0.00775 -0.0035,-0.4112678 z"
       id="path15142" /><path
       style="display:inline;fill:#ffffff;fill-opacity:1;stroke-width:0.264583"
       d="m 23.377575,3.3412885 1.255014,0.01594 0.08826,0.065056 0.03923,0.086435 0.02819,0.1098071 0.0096,0.1132182 -0.0174,0.1104997 -0.03507,0.06945 -0.03306,0.031496 -0.361478,-0.00187 0.01388,1.9506996 0.05938,0.059345 0.594788,0.016615 1.700089,0.00616 2.078427,-0.01653 1.688705,0.012629 1.232921,-0.00349 0.585059,-0.0085 1.309761,-0.00204 1.481546,-4.011e-4 2.025353,-0.022679 0.0015,0.00155 0.991347,-0.023728 0.0053,0.5000642 -0.87446,0.00853 -1.697743,-0.018241 -2.48801,4.162e-4 -3.343308,0.00535 -3.244599,-0.00302 -3.128666,-0.00165 -0.120966,-0.077032 -0.06231,-0.073705 -0.05047,-0.06406 -0.02943,-0.080175 -0.02184,-0.055572 -0.01775,-0.048938 -0.01122,-0.098717 0.01135,-0.7650033 0.0077,-0.8459075 -0.002,-0.3270392 0.0051,-0.2180467 0.0186,-0.1068716 0.04771,-0.086368 0.04148,-0.051897 0.05987,-0.074907 0.05589,-0.033359 0.05179,-0.034346 z"
       id="path15310" /><path
       style="display:inline;fill:#f9ba4e;fill-opacity:1;stroke-width:0.264583"
       d="m 22.950664,3.6996042 0.09884,0.012105 -0.0045,0.4059874 -0.01876,1.4268864 0.002,0.2647742 -0.724685,0.030423 -0.107551,-0.142563 -0.0065,-0.1946581 0.002,-0.2285463 0.0273,-0.097043 0.01914,0.314759 L 22.44471,5.73546 22.591453,5.765655 22.752255,5.727516 22.86365,5.667801 22.9129,5.573908 22.93148,5.51414 22.94389,5.483136 22.95424,5.3300315 22.9764,4.8220472 22.9841,4.5035974 22.9801,4.1115388 22.96795,3.8437969 Z"
       id="path15312" /><path
       style="display:inline;fill:#fffffe;fill-opacity:1;stroke-width:0.264583"
       d="m 7.7010621,3.7518642 0.012318,0.1722317 0.016112,0.1679847 0.031565,0.1788678 0.024623,0.089695 c 0,0 0.023552,0.067581 0.023552,0.089637 0,0.022054 0.054822,0.1230785 0.054822,0.1230785 l 0.018188,0.018911 0.00148,-1.0791988 0.7427514,0.00274 L 8.653035,5.762594 7.4057966,5.760134 7.1470306,4.6769825 7.0978543,5.770335 5.9047979,5.7316581 5.8542855,3.5061442 7.7147689,3.5029227 Z"
       id="path15314" /><path
       style="display:inline;fill:#ffffff;fill-opacity:1;stroke-width:0.264583"
       d="m 43.29385,3.303284 c -0.01304,0.00892 -0.03914,0.026755 -0.05958,0.040309 -0.02045,0.013554 -0.0355,0.022976 -0.0556,0.034088 -0.0201,0.011112 -0.04538,0.02399 -0.07461,0.033224 -0.02923,0.00923 -0.06244,0.014815 -0.100717,0.01635 -0.03828,0.00153 -0.08162,-0.00101 -0.221051,0.00659 -0.139433,0.00759 -0.37493,0.025329 -0.525882,0.033909 -0.150952,0.00858 -0.217405,0.00799 -0.277204,0.00801 -0.0598,1.7e-5 -0.112962,6.405e-4 -0.154536,-0.00116 C 41.78309,3.472804 41.75308,3.468554 41.72594,3.462187 41.69879,3.455827 41.67452,3.447312 41.6623,3.420455 41.65009,3.393598 41.65007,3.34829 41.64733,3.3141695 c -0.0027,-0.034121 -0.0083,-0.05708 -0.01431,-0.07678 -0.0061,-0.0197 -0.01269,-0.036203 -0.0327,-0.048965 -0.02001,-0.012761 -0.0535,-0.021715 -0.08022,-0.025486 -0.02672,-0.00377 -0.04663,-0.0023 -0.06422,-3.656e-4 -0.01758,0.00194 -0.03266,0.00432 -0.05023,0.011974 -0.01757,0.00765 -0.03748,0.020564 -0.04998,0.055524 -0.0125,0.03496 -0.0176,0.091841 -0.0207,0.1254258 -0.0031,0.033585 -0.0042,0.043883 -0.01388,0.065458 -0.0097,0.021575 -0.02792,0.054502 -0.05345,0.074128 -0.02553,0.019626 -0.05846,0.026043 -0.0838,0.01299 -0.02534,-0.013053 -0.04306,-0.045778 -0.05653,-0.082021 -0.01346,-0.036243 -0.02262,-0.076029 -0.0401,-0.099947 -0.01748,-0.023917 -0.04336,-0.031828 -0.06355,-0.040221 -0.02019,-0.00839 -0.03471,-0.017348 -0.0488,-0.03766 -0.01409,-0.020313 -0.02772,-0.052131 -0.03733,-0.082755 -0.0096,-0.030624 -0.01515,-0.060093 -0.02048,-0.091829 -0.0053,-0.031736 -0.01043,-0.065744 -0.01434,-0.092707 -0.0039,-0.026963 -0.0067,-0.046895 -0.01049,-0.071933 -0.0038,-0.025038 -0.0088,-0.05518 -0.01141,-0.073929 -0.0026,-0.018749 -0.0029,-0.026117 -0.0046,-0.037363 -0.0017,-0.011247 -0.0048,-0.026446 -0.01756,-0.064484 -0.01277,-0.038038 -0.03525,-0.098942 -0.05763,-0.1381602 -0.02238,-0.039218 -0.04476,-0.05671 -0.06484,-0.087683 -0.02009,-0.030973 -0.03782,-0.075501 -0.05305,-0.1255482 -0.01524,-0.050047 -0.02796,-0.1056432 -0.04235,-0.1427917 -0.01439,-0.037149 -0.03052,-0.055803 -0.03799,-0.088417 -0.0075,-0.032614 -0.0061,-0.079154 -7.6e-4,-0.1266604 0.0054,-0.047506 0.01483,-0.095932 0.01575,-0.1316021 9.13e-4,-0.03567 -0.0068,-0.058557 -0.01758,-0.07029 -0.01081,-0.011733 -0.02503,-0.012133 -0.03645,-0.00643 -0.01141,0.0057 -0.02013,0.017605 -0.03007,0.041639 -0.0099,0.024034 -0.02116,0.06015 -0.03564,0.091146 -0.01447,0.030996 -0.03221,0.056918 -0.05813,0.085428 -0.02592,0.02851 -0.06003,0.059622 -0.08485,0.08824 -0.02482,0.028618 -0.04029,0.054653 -0.06062,0.087655 -0.02033,0.033002 -0.04549,0.072944 -0.07053,0.1053833 -0.02504,0.032439 -0.04999,0.057429 -0.07326,0.077864 -0.02327,0.020434 -0.04488,0.036354 -0.07133,0.052095 -0.02645,0.015741 -0.05775,0.031307 -0.08501,0.039225 -0.02726,0.00792 -0.05055,0.00818 -0.07684,0.00288 -0.02629,-0.0053 -0.0556,-0.016233 -0.08899,-0.033593 -0.03338,-0.017361 -0.07081,-0.04117 -0.09567,-0.065832 -0.02485,-0.024661 -0.03695,-0.050096 -0.05289,-0.071467 -0.01594,-0.021371 -0.03573,-0.03854 -0.04991,-0.051191 -0.01418,-0.012651 -0.02279,-0.020833 -0.0392,-0.041297 -0.01642,-0.020464 -0.04065,-0.053271 -0.05944,-0.074827 -0.01879,-0.021557 -0.03213,-0.031793 -0.04819,-0.036353 -0.01607,-0.00456 -0.03483,-0.0033 -0.04756,-0.00179 -0.01273,0.0015 -0.01957,0.00329 -0.02166,0.3232641 -0.0021,0.319978 5.08e-4,0.9579836 8.74e-4,1.4990651 3.66e-4,0.5410816 -0.0015,0.9852126 0.0012,2.4089411 0.0027,1.4237285 0.0098,3.8269503 0.02924,5.0294123 0.01942,1.202463 0.05091,1.204262 0.07447,1.21443 0.02356,0.01017 0.03914,0.02853 0.0534,0.04141 0.01426,0.01289 0.02712,0.0203 0.06143,0.03186 0.03431,0.01156 0.09009,0.02732 0.147528,0.04237 0.05744,0.01505 0.116483,0.02939 0.163731,0.03708 0.04725,0.0077 0.08271,0.0088 0.13193,0.01198 0.04922,0.0032 0.112213,0.0086 0.150214,0.02054 0.038,0.01196 0.05097,0.03027 0.05983,0.04916 0.0089,0.0189 0.01364,0.03832 0.01664,0.06017 0.003,0.02186 0.0043,0.04622 0.0046,0.06496 2.92e-4,0.01874 -3.74e-4,0.03184 -7.87e-4,0.0491 -4.14e-4,0.01726 -5.8e-4,0.03865 -5.02e-4,0.05869 7.8e-5,0.02003 3.97e-4,0.03873 0.0014,0.05985 9.64e-4,0.02112 0.0026,0.04468 0.03612,0.05955 0.03356,0.01487 0.09891,0.0212 0.251936,0.02422 0.153024,0.003 0.393714,0.0028 0.521267,0.01147 0.127553,0.0087 0.142022,0.02634 0.150194,0.04164 0.0082,0.01529 0.01018,0.02838 0.01273,0.0457 0.0025,0.01731 0.0057,0.03893 0.0075,0.05515 0.0018,0.01623 0.0023,0.0273 0.0032,0.04186 8.35e-4,0.01456 0.002,0.0327 0.0021,0.05082 1.41e-4,0.01813 -6.92e-4,0.03627 -0.0034,0.05956 -0.0027,0.02328 -0.0074,0.05176 -0.01492,0.08653 -0.0076,0.03478 -0.01806,0.07607 -0.04318,0.09743 -0.02512,0.02136 -0.06505,0.02296 -0.3938,0.02341 -0.328746,4.52e-4 -0.946304,-2.48e-4 -1.316401,0.0101 -0.370098,0.01034 -0.492684,0.03175 -0.652779,0.04776 -0.160095,0.01601 -0.357713,0.02662 -0.562399,0.03585 -0.204687,0.0092 -0.416425,0.01708 -0.609403,0.02225 -0.192978,0.0052 -0.367184,0.0077 -0.546291,-0.03937 -0.179107,-0.04705 -0.363143,-0.143733 -0.489565,-0.216134 -0.126421,-0.0724 -0.19522,-0.12054 -0.251749,-0.164324 -0.05653,-0.04378 -0.100785,-0.08324 -0.132549,-0.130375 -0.03176,-0.04714 -0.05098,-0.102033 -0.06287,-0.263161 -0.01189,-0.161129 -0.01642,-0.428486 -0.01694,-0.627668 -5.24e-4,-0.199183 0.003,-0.330163 0.0076,-0.405313 0.0046,-0.07515 0.01049,-0.09453 0.02643,-0.116393 0.01594,-0.02187 0.04201,-0.04628 0.05821,-0.08415 0.0162,-0.03787 0.02254,-0.08932 0.02546,-0.130627 0.0029,-0.0413 0.0024,-0.07245 0.0035,-0.373963 0.0011,-0.30151 0.0039,-0.873352 -0.0017,-1.171931 -0.0056,-0.2985778 -0.01967,-0.3239533 -0.02957,-0.3489024 -0.0099,-0.024949 -0.01558,-0.049603 -0.0194,-0.076444 -0.0038,-0.026841 -0.0058,-0.055969 -0.0045,-0.085227 0.0013,-0.029257 0.0057,-0.058653 0.0091,-0.086177 0.0034,-0.027524 0.0056,-0.053164 0.0185,-0.076358 0.0129,-0.023194 0.03644,-0.043759 0.06919,-0.055447 0.03274,-0.011689 0.07455,-0.014472 0.142976,-0.018842 0.06843,-0.00437 0.163485,-0.010329 0.227713,-0.015793 0.06423,-0.00546 0.09764,-0.010425 0.121448,-0.013962 0.02381,-0.00354 0.03814,-0.00567 0.05078,-0.014334 0.01263,-0.00866 0.02367,-0.023788 0.03605,-0.044197 0.01238,-0.020409 0.02609,-0.046112 0.04219,-0.067523 0.0161,-0.021411 0.03457,-0.038494 0.04719,-0.052776 0.01262,-0.014282 0.01933,-0.025675 0.03104,-0.038201 0.01171,-0.012525 0.0283,-0.02601 0.04956,-0.036964 0.02126,-0.010954 0.04707,-0.019322 0.07167,-0.025312 0.0246,-0.00599 0.04796,-0.0096 0.07029,-0.013537 0.02234,-0.00394 0.04362,-0.00819 0.07046,-0.0067 0.02684,0.00149 0.0591,0.00867 0.08865,0.020418 0.02955,0.011751 0.05638,0.028007 0.07743,0.048304 0.02105,0.020297 0.03642,0.044623 0.04887,0.064788 0.01245,0.020165 0.02206,0.036295 0.03629,0.060401 0.01423,0.024106 0.03312,0.056253 0.05266,0.094563 0.01954,0.03831 0.03975,0.082772 0.06172,0.1127481 0.02197,0.029976 0.04562,0.045524 0.06752,0.055561 0.0219,0.010037 0.04202,0.014635 0.05994,0.015536 0.01792,9.009e-4 0.03358,-0.00183 0.05082,-0.00412 0.01724,-0.00229 0.03598,-0.00414 0.05371,-0.00807 0.01773,-0.00393 0.0345,-0.00993 0.04874,-0.021376 0.01424,-0.011448 0.02599,-0.028317 0.03386,-0.043788 0.0079,-0.015471 0.01182,-0.029546 0.01756,-0.043862 0.0057,-0.014316 0.01321,-0.028672 0.01633,-0.046194 0.0031,-0.017522 0.0019,-0.038309 0.0014,-0.057674 -4.8e-4,-0.019365 -1.6e-4,-0.037286 -6.29e-4,-0.060901 -4.68e-4,-0.023615 -0.0017,-0.052936 -0.0047,-0.075081 -0.003,-0.022145 -0.0078,-0.037107 -0.01232,-0.05317 -0.0045,-0.016063 -0.0089,-0.033229 -0.01466,-0.046347 -0.0058,-0.013118 -0.01311,-0.022024 -0.01715,-0.034603 -0.004,-0.012579 -0.0046,-0.028696 -0.0055,-0.053199 -9.16e-4,-0.024503 -0.0022,-0.057396 -3.53e-4,-0.088628 0.0018,-0.031232 0.0068,-0.060747 0.01682,-0.086512 0.01004,-0.025765 0.02511,-0.047587 0.03632,-0.062825 0.01121,-0.015237 0.01847,-0.02377 0.02422,-0.0391 0.0058,-0.015331 0.0099,-0.037434 0.01366,-0.071475 0.0037,-0.034041 0.007,-0.079973 0.01126,-0.413089 0.0043,-0.3331164 0.0095,-0.9534002 7.75e-4,-1.2786509 -0.0087,-0.3252507 -0.03157,-0.3554683 -0.04963,-0.3765003 -0.01806,-0.021032 -0.03135,-0.032848 -0.04584,-0.043893 -0.01449,-0.011045 -0.03031,-0.021376 -0.04862,-0.031923 -0.01831,-0.010547 -0.03915,-0.021317 -0.05817,-0.029912 -0.01902,-0.0086 -0.03623,-0.014993 -0.206902,-0.09896 C 37.505225,6.2448062 37.180921,6.0831664 37.012704,5.9960044 36.844487,5.9088425 36.83247,5.8961852 36.82636,5.882589 c -0.0061,-0.013596 -0.0062,-0.028115 0.002,-0.038732 0.0082,-0.010616 0.02448,-0.017172 0.109616,-0.022034 0.08514,-0.00486 0.23903,-0.00806 0.34565,-0.012188 0.10662,-0.00413 0.165955,-0.00918 0.209831,-0.015217 0.04388,-0.00604 0.07235,-0.013053 0.107962,-0.020997 0.03561,-0.00794 0.0784,-0.016832 0.127302,-0.032849 0.0489,-0.016017 0.103953,-0.03916 0.146309,-0.060227 0.04236,-0.021067 0.07203,-0.040064 0.100918,-0.071385 0.02888,-0.031321 0.05703,-0.075042 0.07713,-0.1169774 0.0201,-0.041936 0.03214,-0.082089 0.04226,-0.1272492 0.01012,-0.04516 0.01828,-0.095289 0.02333,-0.1365097 0.0051,-0.041221 0.007,-0.07354 0.0088,-0.1048933 0.0018,-0.031354 0.0034,-0.061765 0.0065,-0.088924 0.003,-0.027159 0.0075,-0.051086 0.01436,-0.068839 0.0068,-0.017752 0.01603,-0.02924 0.03192,-0.037313 0.01589,-0.00807 0.0384,-0.012688 0.08198,-0.016598 0.04358,-0.00391 0.108289,-0.00714 0.147199,-0.014991 0.03891,-0.00785 0.0521,-0.020243 0.05931,-0.032867 0.0072,-0.012625 0.0084,-0.025519 0.0096,-0.047019 0.0013,-0.021501 0.0026,-0.051572 0.0028,-0.086181 2.22e-4,-0.034609 -6.78e-4,-0.073744 -0.0036,-0.1041315 -0.0029,-0.030387 -0.0078,-0.052007 -0.01661,-0.065498 -0.0089,-0.013491 -0.02194,-0.018777 -0.06984,-0.02053 -0.0479,-0.00175 -0.130622,5.63e-5 -0.181283,-0.00282 -0.05066,-0.00287 -0.06929,-0.010498 -0.08058,-0.020755 -0.01129,-0.010257 -0.01517,-0.023274 -0.01679,-0.078959 -0.0016,-0.055685 -9.58e-4,-0.1540588 -0.0042,-0.233298 -0.0033,-0.079239 -0.01053,-0.1393577 -0.01797,-0.1803416 -0.0074,-0.040984 -0.01514,-0.062826 -0.0239,-0.080078 -0.0088,-0.017253 -0.01864,-0.029893 -0.03224,-0.042944 -0.0136,-0.013051 -0.03093,-0.026464 -0.05315,-0.037404 -0.02221,-0.01094 -0.04927,-0.019323 -0.0732,-0.027908 -0.02393,-0.00858 -0.04472,-0.017392 -0.06537,-0.029382 -0.02065,-0.01199 -0.04112,-0.027193 -0.0549,-0.044566 -0.01377,-0.017373 -0.0207,-0.036852 -0.02986,-0.059828 -0.0092,-0.022977 -0.02049,-0.04927 -0.0273,-0.078314 -0.0068,-0.029043 -0.009,-0.060792 -0.0099,-0.095388 -8.56e-4,-0.034596 -3.56e-4,-0.072049 0.0035,-0.098594 0.0039,-0.026545 0.01109,-0.042038 0.01916,-0.059762 0.0081,-0.017724 0.01702,-0.037736 0.03113,-0.056657 0.01412,-0.018921 0.03341,-0.036759 0.05729,-0.052447 0.02388,-0.015688 0.05232,-0.029217 0.07681,-0.041127 0.02449,-0.01191 0.04505,-0.022209 0.0567,-0.053248 0.01165,-0.031039 0.01445,-0.083017 0.01291,-0.1447023 -0.0015,-0.061685 -0.0075,-0.1331331 -0.01149,-0.2013777 -0.004,-0.068245 -0.0062,-0.133306 -0.01087,-0.1916448 -0.0047,-0.058339 -0.01183,-0.1099718 -0.02037,-0.1541057 -0.0085,-0.044134 -0.01845,-0.080767 -0.01715,-0.1038086 0.0013,-0.023042 0.01379,-0.032288 0.0404,-0.045167 0.02661,-0.012879 0.06727,-0.029363 0.09773,-0.057658 0.03046,-0.028294 0.05081,-0.0685 0.09353,-0.098395 0.04273,-0.029895 0.107737,-0.049403 0.147713,-0.077536 0.03998,-0.028133 0.05502,-0.064923 0.06097,-0.1134541 0.006,-0.048531 0.0028,-0.1088592 0.0013,-0.1486692 -0.0014,-0.03981 -0.0011,-0.059108 0.01503,-0.082951 0.01616,-0.023842 0.04816,-0.05209 0.06824,-0.077531 0.02008,-0.025441 0.02825,-0.048156 0.03247,-0.071685 0.0042,-0.023529 0.0045,-0.047938 0.0047,-0.075334 2.66e-4,-0.027396 5.54e-4,-0.057783 0.0023,-0.100028 0.0017,-0.042245 0.0049,-0.096341 0.0077,-0.1612638 0.0029,-0.064923 0.0054,-0.1406838 0.0047,-0.222268 -7.07e-4,-0.0815843 -0.0047,-0.1689869 -0.0078,-0.24537892 -0.0031,-0.076392 -0.0055,-0.14176659 -0.0067,-0.1931196 -0.0012,-0.051353 -0.0012,-0.0886818 0.0047,-0.12150572 0.006,-0.0328239 0.01795,-0.0610443 0.03592,-0.0795146 0.01797,-0.0184703 0.04182,-0.0270616 0.05631,-0.0345047 0.01449,-0.007443 0.01961,-0.0137044 0.02643,-0.0238915 0.0068,-0.0101871 0.01532,-0.0243225 0.02099,-0.0360886 0.0057,-0.0117661 0.0085,-0.0213499 0.0141,-0.0292118 0.0056,-0.007862 0.01388,-0.01403 0.0267,-0.0191455 0.01282,-0.005115 0.0301,-0.009205 0.04728,-0.0113886 0.01718,-0.002183 0.03413,-0.002467 0.04964,-0.0184919 0.01551,-0.0160254 0.02976,-0.048005 0.04121,-0.0681192 0.01145,-0.0201142 0.02028,-0.0285164 0.04018,-0.0357909 0.0199,-0.007274 0.05084,-0.013468 0.127232,-0.0167944 0.07639,-0.003326 0.198146,-0.003793 0.267016,0.001541 0.06887,0.005334 0.08485,0.0163861 0.09534,0.0300701 0.01049,0.0136839 0.01559,0.029868 0.01913,0.0461859 0.0035,0.0163179 0.0055,0.0326367 0.01636,0.1230125 0.01085,0.0903758 0.03059,0.25479864 0.04462,0.35106691 0.01403,0.0962683 0.02234,0.124388 0.03926,0.14730474 0.01692,0.0229167 0.04235,0.0407191 0.06139,0.0628456 0.01903,0.0221265 0.03175,0.0485397 0.03968,0.0690446 0.0079,0.0205049 0.01114,0.0351202 0.01644,0.0436039 0.0053,0.008484 0.01256,0.0109735 0.017,0.002588 0.0044,-0.008385 0.006,-0.027851 0.01316,-0.0452955 0.0071,-0.0174445 0.01991,-0.0328255 0.03092,-0.0438878 0.01101,-0.0110623 0.02032,-0.0178477 0.02813,-0.0380908 0.0078,-0.0202431 0.01418,-0.0540899 0.02527,-0.0777383 0.01109,-0.0236485 0.02697,-0.037039 0.04203,-0.0461612 0.01505,-0.009122 0.02944,-0.0140627 0.04755,-0.0170582 0.0181,-0.002995 0.03995,-0.004097 0.07098,-0.003302 0.03103,7.9505e-4 0.07124,0.003477 0.09536,-0.005683 0.02412,-0.00916 0.03236,-0.0302746 0.03993,-0.0475488 0.0076,-0.0172741 0.01448,-0.030689 0.02176,-0.0400832 0.0073,-0.009394 0.01485,-0.0146329 0.02661,-0.0184896 0.01176,-0.003857 0.02771,-0.006376 0.04404,-0.008933 0.01634,-0.002558 0.03309,-0.005159 0.05411,-0.002505 0.02101,0.002654 0.04628,0.0104988 0.07268,0.0283487 0.02641,0.0178499 0.05399,0.0456151 0.0769,0.0664217 0.02291,0.0208066 0.04113,0.0346697 0.05348,0.0513793 0.01236,0.0167096 0.01894,0.0362036 0.03877,0.0915994 0.01983,0.0553957 0.0529,0.14670366 0.08934,0.19267869 0.03644,0.045975 0.07621,0.046782 0.100158,0.045622 0.02395,-0.00116 0.03229,-0.00432 0.06976,-0.0757172 0.03747,-0.0713963 0.10427,-0.21114876 0.156678,-0.29254969 0.05241,-0.0814009 0.09035,-0.10433017 0.146217,-0.11957212 0.05587,-0.0152419 0.12957,-0.0227982 0.180751,-0.0338101 0.05118,-0.0110119 0.07985,-0.0254473 0.109819,-0.0433808 0.02997,-0.0179335 0.06122,-0.0393452 0.104614,-0.0557991 0.0434,-0.0164539 0.09887,-0.0279303 0.151473,-0.0485786 0.0526,-0.0206483 0.10236,-0.0504604 0.144367,-0.0686664 0.04201,-0.018206 0.07619,-0.0248003 0.111613,-0.0277875 0.03542,-0.002987 0.07201,-0.002386 0.09859,0.005085 0.02658,0.007472 0.04311,0.0216602 0.05272,0.0351276 0.0096,0.0134674 0.01242,0.026255 0.0082,0.052965 -0.0042,0.02671 -0.01545,0.0674112 -0.02784,0.10344423 -0.01239,0.036033 -0.02596,0.0673914 -0.03504,0.0934336 -0.0091,0.0260422 -0.01364,0.0466434 -0.01504,0.0685677 -0.0014,0.0219243 3.74e-4,0.0450386 0.0029,0.0752874 0.0025,0.0302488 0.0057,0.0676124 0.0069,0.11634279 0.0012,0.0487304 3.41e-4,0.10884194 5.6e-4,0.17856689 2.19e-4,0.069725 0.0015,0.1490531 0.0032,0.2020928 0.0017,0.05304 0.0039,0.079794 0.0992,0.2198373 0.09531,0.1400428 0.283641,0.3933818 0.423778,0.5816627 0.140137,0.1882808 0.232066,0.3114903 0.352745,0.473476 0.120678,0.1619856 0.270101,0.3627406 0.43563,0.465338 0.165529,0.1025974 0.347144,0.1071899 0.444248,0.1115601 0.0971,0.00437 0.109841,0.00853 0.113622,0.017746 0.0038,0.00922 -0.0011,0.02352 -0.01214,0.038006 -0.01109,0.014486 -0.02852,0.029333 -0.04973,0.04086 -0.02122,0.011527 -0.0463,0.019788 -0.07713,0.030689 -0.03082,0.0109 -0.06735,0.024433 -0.100734,0.034375 -0.03338,0.00994 -0.06358,0.016279 -0.08826,0.024123 -0.02468,0.00784 -0.04375,0.017179 -0.05331,0.021858 -0.0096,0.00468 -0.0099,0.00515 -0.02297,0.014069 z"
       id="path15502"
       inkscape:path-effect="#path-effect15504"
       inkscape:original-d="m 43.306894,3.2943666 c -0.02598,0.017993 -0.05207,0.035834 -0.07829,0.053522 -0.01464,0.00949 -0.02973,0.018847 -0.04478,0.028039 -0.02517,0.013032 -0.05045,0.025911 -0.07585,0.038639 -0.03312,0.00575 -0.06633,0.011325 -0.09969,0.016755 -0.04323,-0.00238 -0.08657,-0.00494 -0.130037,-0.00762 -0.23538,0.01789 -0.470877,0.035628 -0.706494,0.053213 -0.0663,-4.32e-4 -0.132753,-0.00102 -0.199329,-0.00176 -0.05302,7.694e-4 -0.106182,0.0014 -0.159453,0.00187 -0.0299,-0.00409 -0.05991,-0.00835 -0.09007,-0.012755 -0.02415,-0.00835 -0.04843,-0.016859 -0.0728,-0.025521 1.06e-4,-0.045157 9.2e-5,-0.090465 -4.4e-5,-0.135929 -0.0054,-0.022796 -0.01096,-0.045745 -0.01655,-0.068852 -0.0065,-0.016304 -0.01321,-0.032777 -0.01986,-0.049399 -0.03337,-0.00879 -0.06686,-0.017754 -0.100492,-0.026865 -0.01977,0.00163 -0.03968,0.0031 -0.05969,0.0044 -0.01515,0.00253 -0.03022,0.00496 -0.04551,0.0072 -0.01976,0.013059 -0.03968,0.025954 -0.05967,0.038701 -0.0049,0.057039 -0.01,0.1139196 -0.0153,0.1706481 -9.57e-4,0.010439 -0.002,0.020743 -0.0033,0.030882 -0.01812,0.033076 -0.03637,0.065998 -0.05472,0.098766 -0.03282,0.00657 -0.06575,0.012991 -0.09884,0.01926 -0.01759,-0.032567 -0.03533,-0.065283 -0.05316,-0.098156 -0.009,-0.039629 -0.01818,-0.07941 -0.02747,-0.1193479 -0.0258,-0.00776 -0.05168,-0.01568 -0.07772,-0.023755 -0.01433,-0.00877 -0.02886,-0.017712 -0.04347,-0.026803 -0.01344,-0.031636 -0.02714,-0.063425 -0.04086,-0.095368 -0.0054,-0.029315 -0.01096,-0.058781 -0.01664,-0.088404 -0.0049,-0.033856 -0.01,-0.067864 -0.0153,-0.102025 -0.0025,-0.019768 -0.0053,-0.039691 -0.0082,-0.059768 -0.0049,-0.029983 -0.0099,-0.060116 -0.01484,-0.090406 -1.21e-4,-0.00722 -3.62e-4,-0.014589 -8.64e-4,-0.022125 -0.0027,-0.015022 -0.006,-0.030182 -0.0093,-0.045509 -0.02234,-0.060742 -0.04484,-0.1216387 -0.06743,-0.1826905 -0.02224,-0.017334 -0.04462,-0.034822 -0.06711,-0.05246 -0.01759,-0.044369 -0.03533,-0.088893 -0.05318,-0.1335691 -0.01254,-0.055428 -0.02533,-0.1110089 -0.03816,-0.1667459 -0.01605,-0.018525 -0.03215,-0.0372 -0.04843,-0.056031 0.0015,-0.04639 0.0027,-0.092934 0.004,-0.1396331 0.0096,-0.048281 0.01902,-0.096712 0.02835,-0.1453023 -0.0077,-0.022761 -0.01531,-0.045673 -0.02308,-0.068741 -0.01388,-2.469e-4 -0.0281,-6.471e-4 -0.04229,-0.00119 -0.0084,0.011969 -0.0172,0.023811 -0.02597,0.035485 -0.01122,0.036302 -0.02234,0.072448 -0.03368,0.1084392 -0.01759,0.026069 -0.03533,0.051985 -0.05318,0.077742 -0.03404,0.031284 -0.06813,0.062414 -0.102379,0.093387 -0.01538,0.026202 -0.03084,0.052245 -0.04644,0.078134 -0.02508,0.040106 -0.05023,0.080058 -0.07551,0.1198521 -0.02481,0.025129 -0.04978,0.0501 -0.0748,0.07492 -0.02152,0.016079 -0.04313,0.03201 -0.06489,0.047786 -0.03117,0.015715 -0.06247,0.031278 -0.09387,0.046685 -0.02321,4.163e-4 -0.0465,6.762e-4 -0.06994,7.869e-4 -0.02917,-0.010775 -0.05849,-0.021695 -0.08789,-0.032775 -0.03737,-0.023677 -0.07479,-0.047506 -0.112397,-0.071493 -0.01215,-0.025345 -0.02411,-0.050844 -0.03638,-0.076499 -0.01969,-0.017032 -0.03947,-0.034213 -0.05942,-0.051548 -0.0084,-0.00798 -0.01702,-0.016149 -0.02572,-0.024449 -0.02411,-0.032648 -0.04836,-0.065446 -0.0727,-0.098402 -0.01329,-0.010093 -0.0266,-0.020362 -0.04009,-0.030774 -0.01861,0.00141 -0.03737,0.00269 -0.0562,0.00379 -0.0066,0.00192 -0.01344,0.00369 -0.02027,0.00529 0.0027,0.6381847 0.0054,1.2761899 0.0078,1.9140536 -0.0016,0.4443013 -0.0038,0.8884309 -0.0056,1.332415 0.0074,2.4034725 0.01433,4.8066953 0.02152,7.2098113 0.03165,0.002 0.06314,0.0039 0.09453,0.0054 0.01574,0.01854 0.0313,0.03692 0.0468,0.05515 0.01294,0.0077 0.02586,0.015 0.03858,0.02226 0.05591,0.01591 0.111685,0.03166 0.16735,0.04728 0.05922,0.0145 0.11826,0.02884 0.17723,0.04304 0.03555,0.0012 0.07101,0.0024 0.106332,0.0032 0.06312,0.0054 0.126103,0.0109 0.188969,0.01609 0.01321,0.01852 0.02611,0.03688 0.03903,0.05509 0.0049,0.01955 0.0098,0.03894 0.01432,0.0582 0.0013,0.02451 0.0025,0.04887 0.0038,0.07307 -5.95e-4,0.01329 -0.0013,0.02638 -0.002,0.03935 -5.8e-5,0.02156 -2.38e-4,0.04295 -4.99e-4,0.06418 4.99e-4,0.01883 7.28e-4,0.03753 9.56e-4,0.05606 0.0016,0.02371 0.0034,0.04726 0.0048,0.07066 0.06551,0.0065 0.130867,0.01282 0.19611,0.019 0.240818,-1.11e-4 0.481508,-3.7e-4 0.72208,-8.17e-4 0.01449,0.01774 0.02899,0.03534 0.04333,0.05278 0.002,0.01314 0.0042,0.0262 0.006,0.03907 0.0033,0.02176 0.0065,0.04336 0.0093,0.06481 7.31e-4,0.01103 0.0013,0.0221 0.0016,0.03293 0.0013,0.0183 0.0023,0.03644 0.0034,0.0544 -7.3e-4,0.0183 -0.0015,0.03645 -0.0025,0.05445 -0.0045,0.02858 -0.0093,0.05703 -0.01388,0.08529 -0.01013,0.04139 -0.02089,0.08262 -0.03147,0.123706 -0.03979,0.0016 -0.07971,0.0034 -0.119751,0.0048 -0.61746,-5.25e-4 -1.235018,-0.0012 -1.852708,-0.0021 -0.122473,0.02157 -0.245058,0.04298 -0.367765,0.06421 -0.197505,0.01081 -0.395125,0.02138 -0.592867,0.03183 -0.21163,0.0081 -0.423372,0.01585 -0.635239,0.02354 -0.174094,0.0026 -0.3483,0.0051 -0.522635,0.0075 -0.183922,-0.09652 -0.367954,-0.193213 -0.552115,-0.290053 -0.06868,-0.04798 -0.137479,-0.09612 -0.206404,-0.144425 -0.04411,-0.0393 -0.08838,-0.07874 -0.132737,-0.118341 -0.01909,-0.05472 -0.03833,-0.109607 -0.05762,-0.164638 -0.0045,-0.267217 -0.0088,-0.534578 -0.01358,-0.802098 0.0038,-0.130832 0.0073,-0.261812 0.01045,-0.392948 0.0059,-0.01914 0.01201,-0.03844 0.01749,-0.0579 0.02616,-0.02425 0.05225,-0.04865 0.07818,-0.07321 0.0065,-0.05131 0.01267,-0.102784 0.01903,-0.154401 -4.98e-4,-0.03099 -0.001,-0.06214 -0.0016,-0.09345 0.0027,-0.571709 0.0056,-1.143551 0.0083,-1.7155587 -0.01388,-0.025191 -0.02801,-0.050539 -0.04219,-0.076034 -0.0054,-0.024442 -0.01134,-0.049038 -0.01703,-0.07379 -0.0016,-0.028956 -0.0038,-0.058067 -0.0058,-0.087327 0.0045,-0.029244 0.009,-0.058637 0.01344,-0.088191 0.0023,-0.025497 0.0045,-0.05114 0.0067,-0.076945 0.0237,-0.020429 0.04723,-0.041001 0.07066,-0.061738 0.04194,-0.00262 0.08374,-0.00543 0.125428,-0.00835 0.09517,-0.00583 0.190227,-0.011758 0.285162,-0.017875 0.03354,-0.00479 0.06695,-0.00975 0.10023,-0.014883 0.01433,-0.002 0.02867,-0.00409 0.04281,-0.00637 0.01135,-0.01504 0.02228,-0.03024 0.03326,-0.045591 0.01374,-0.025518 0.02751,-0.05119 0.04108,-0.077011 0.01862,-0.016927 0.03708,-0.034024 0.05543,-0.051262 0.007,-0.011325 0.01359,-0.02279 0.02027,-0.034416 0.01674,-0.013337 0.03332,-0.02684 0.04983,-0.040494 0.02595,-0.00823 0.05176,-0.016599 0.07748,-0.025122 0.02346,-0.00345 0.04681,-0.00707 0.07004,-0.010829 0.02146,-0.00409 0.04274,-0.00835 0.06395,-0.012768 0.0324,0.00734 0.06466,0.014521 0.0968,0.021542 0.02696,0.016408 0.05378,0.032673 0.08049,0.048775 0.0154,0.024451 0.03081,0.04875 0.04605,0.072897 0.0096,0.016217 0.01929,0.032299 0.02873,0.04822 0.01901,0.032298 0.03791,0.064439 0.05666,0.096424 0.02035,0.044631 0.04053,0.089107 0.06065,0.1334264 0.02376,0.015699 0.04742,0.031238 0.07093,0.046623 0.02028,0.00479 0.04041,0.00938 0.06043,0.013806 0.01588,-0.00256 0.03154,-0.0053 0.04711,-0.00822 0.0189,-0.00169 0.03763,-0.00355 0.05628,-0.00555 0.01686,-0.00584 0.03363,-0.011833 0.05025,-0.017986 0.01201,-0.016772 0.0237,-0.033685 0.03537,-0.050763 0.004,-0.013949 0.0078,-0.028066 0.01188,-0.042332 0.0077,-0.014225 0.01515,-0.028592 0.02244,-0.043121 -10e-4,-0.020641 -0.0023,-0.041426 -0.0038,-0.062374 5.03e-4,-0.017765 7.33e-4,-0.035688 9.59e-4,-0.053757 -10e-4,-0.029173 -0.0021,-0.058502 -0.0038,-0.087984 -0.0047,-0.014797 -0.0095,-0.029752 -0.01433,-0.044863 -0.0042,-0.017031 -0.0084,-0.034223 -0.01293,-0.051567 -0.0073,-0.00881 -0.01449,-0.017806 -0.02208,-0.02694 -5.03e-4,-0.015976 -0.0012,-0.032088 -0.0017,-0.048365 -10e-4,-0.032742 -0.0023,-0.065633 -0.0038,-0.098682 0.0051,-0.029379 0.01,-0.058902 0.01486,-0.088585 0.01531,-0.021723 0.03031,-0.043594 0.04532,-0.065622 0.0074,-0.00843 0.01464,-0.01698 0.02188,-0.025711 0.0044,-0.021979 0.0084,-0.044115 0.01254,-0.06641 0.0035,-0.045783 0.0067,-0.091719 0.0098,-0.137809 0.0053,-0.6201549 0.01045,-1.2404396 0.01574,-1.8608902 -0.02271,-0.030053 -0.04556,-0.060263 -0.0685,-0.090627 -0.01321,-0.011659 -0.02649,-0.02349 -0.0399,-0.035464 -0.01555,-0.010135 -0.0314,-0.020422 -0.04727,-0.030864 -0.02075,-0.010645 -0.04159,-0.02141 -0.06258,-0.032345 -0.01704,-0.00625 -0.03426,-0.01263 -0.05157,-0.019168 -0.323987,-0.1615046 -0.648314,-0.3230985 -0.972771,-0.484849 -0.01202,-0.012547 -0.024,-0.025239 -0.03616,-0.038088 7.1e-5,-0.014363 2.2e-5,-0.028882 -1.22e-4,-0.043548 0.01642,-0.00639 0.03274,-0.012949 0.04892,-0.019648 0.154036,-0.00302 0.307924,-0.00625 0.461706,-0.00959 0.05947,-0.00489 0.118802,-0.00997 0.178024,-0.01516 0.02856,-0.00686 0.05704,-0.013862 0.08535,-0.021031 0.0429,-0.00872 0.08569,-0.017617 0.128359,-0.02666 0.05517,-0.022994 0.110221,-0.046138 0.165178,-0.06944 0.02979,-0.018836 0.05947,-0.03783 0.08902,-0.056982 0.02826,-0.04356 0.05643,-0.087268 0.08443,-0.131133 0.01228,-0.040042 0.0242,-0.080232 0.03616,-0.1205795 0.0083,-0.049985 0.01641,-0.1001227 0.02449,-0.1504137 0.002,-0.032163 0.004,-0.064478 0.0058,-0.096948 0.0016,-0.030247 0.0035,-0.060644 0.0049,-0.091197 0.0045,-0.02377 0.009,-0.047693 0.01344,-0.071773 0.0093,-0.011325 0.0185,-0.022812 0.02759,-0.03445 0.02258,-0.00446 0.0451,-0.00904 0.06743,-0.013821 0.0648,-0.00308 0.129509,-0.00629 0.194041,-0.00969 0.01344,-0.012304 0.02659,-0.02474 0.03974,-0.037338 0.0013,-0.012767 0.0023,-0.025676 0.0035,-0.038743 0.0015,-0.029925 0.0027,-0.060002 0.004,-0.090235 -8.65e-4,-0.038987 -0.0016,-0.078126 -0.0027,-0.1174223 -0.0048,-0.021484 -0.0096,-0.043121 -0.01464,-0.064908 -0.01282,-0.0051 -0.02592,-0.010344 -0.03903,-0.015768 -0.08264,0.00197 -0.165363,0.00378 -0.248226,0.00543 -0.0185,-0.00747 -0.03713,-0.015091 -0.05586,-0.022866 -0.0038,-0.012838 -0.0077,-0.025847 -0.01161,-0.038998 8.65e-4,-0.098219 0.0015,-0.1965931 0.002,-0.2951208 -0.0071,-0.059967 -0.01433,-0.1200875 -0.02174,-0.1803625 -0.0076,-0.021686 -0.01531,-0.04352 -0.02306,-0.065514 -0.0098,-0.012492 -0.01966,-0.025148 -0.02967,-0.037955 -0.01721,-0.013266 -0.03455,-0.026673 -0.05202,-0.040247 -0.02696,-0.00823 -0.05402,-0.016615 -0.0812,-0.025156 -0.02067,-0.00866 -0.04147,-0.017462 -0.0624,-0.026424 -0.02037,-0.015057 -0.04084,-0.030263 -0.06144,-0.045627 -0.007,-0.019393 -0.01374,-0.03894 -0.02087,-0.058644 -0.01135,-0.026188 -0.02257,-0.052529 -0.03405,-0.079025 -0.002,-0.031581 -0.0044,-0.063316 -0.0066,-0.095205 7.3e-4,-0.037301 0.0013,-0.074753 0.0015,-0.1123608 0.0074,-0.015403 0.01449,-0.030959 0.02176,-0.046666 0.0088,-0.019775 0.01793,-0.039704 0.02672,-0.059788 0.01942,-0.01768 0.03872,-0.035516 0.05788,-0.053504 0.02854,-0.013364 0.05699,-0.026879 0.08525,-0.04055 0.02072,-0.010156 0.04128,-0.020451 0.0617,-0.03091 0.0027,-0.051808 0.0059,-0.1037638 0.0084,-0.1558771 -0.0058,-0.071282 -0.01188,-0.1427154 -0.01772,-0.2143045 -0.002,-0.064912 -0.0042,-0.1299723 -0.0065,-0.1951883 -0.007,-0.051478 -0.01419,-0.1031087 -0.02152,-0.1548962 -0.0098,-0.03648 -0.01972,-0.073111 -0.02974,-0.1098976 0.01267,-0.00911 0.02516,-0.018363 0.03754,-0.027776 0.04079,-0.016339 0.08145,-0.032819 0.121997,-0.049461 0.02046,-0.040041 0.04082,-0.080239 0.06102,-0.1205893 0.06513,-0.019351 0.130144,-0.038853 0.195,-0.058513 0.0153,-0.036683 0.03024,-0.073515 0.04518,-0.1105022 -0.0028,-0.060159 -0.0063,-0.1204716 -0.0096,-0.1809387 5e-4,-0.019145 7.28e-4,-0.038445 9.59e-4,-0.0579 0.03211,-0.028093 0.06412,-0.056339 0.09602,-0.08474 0.0083,-0.02256 0.01648,-0.045271 0.0245,-0.068139 3.63e-4,-0.024253 5.92e-4,-0.048662 7.28e-4,-0.073226 3.62e-4,-0.030229 7.29e-4,-0.060615 8.64e-4,-0.091155 0.0033,-0.053943 0.0065,-0.1080375 0.0095,-0.1622876 0.0025,-0.075606 0.0051,-0.1513651 0.0076,-0.227277 -0.0039,-0.0872603 -0.0077,-0.17467013 -0.01188,-0.26223653 -0.002,-0.0652197 -0.0045,-0.13058832 -0.007,-0.19611413 7.6e-5,-0.0371746 2.9e-5,-0.0745034 -1.2e-4,-0.11198811 0.01215,-0.0280832 0.0241,-0.0563191 0.03598,-0.0847089 0.02398,-0.008439 0.04783,-0.0170322 0.07159,-0.0257876 0.0053,-0.006185 0.01034,-0.0125098 0.01554,-0.0190128 0.0084,-0.0139134 0.01702,-0.0279775 0.02538,-0.0421994 0.0029,-0.009373 0.0059,-0.0189208 0.0086,-0.0286133 0.0083,-0.005977 0.01666,-0.0120931 0.02479,-0.0183751 0.01742,-0.003951 0.0347,-0.008041 0.0519,-0.012284 0.01713,-1.3012e-4 0.03408,-4.1514e-4 0.05093,-8.5127e-4 0.01417,-0.0317634 0.02856,-0.063681 0.04267,-0.095753 0.0087,-0.00816 0.01759,-0.0164951 0.02622,-0.0249608 0.03108,-0.006046 0.06202,-0.0122493 0.09289,-0.0185934 0.121878,-3.1465e-4 0.243635,-7.8126e-4 0.365275,-0.001401 0.01607,0.0111762 0.03205,0.0222268 0.04787,0.0331097 0.0053,0.0164085 0.01013,0.0326784 0.01538,0.0487854 0.002,0.0164778 0.004,0.0327926 0.0059,0.0489568 0.01985,0.16458184 0.03959,0.32900429 0.05921,0.49327501 0.0084,0.0282636 0.01675,0.0563705 0.02491,0.0843261 0.02555,0.0179512 0.05099,0.0357489 0.07629,0.0533931 0.01281,0.0265582 0.02555,0.0529608 0.03814,0.0792099 0.0034,0.0147446 0.0066,0.0293605 0.0096,0.0438068 0.0074,0.002691 0.01464,0.00522 0.02204,0.007565 0.0015,-0.0192945 0.0033,-0.0387414 0.0047,-0.0583439 0.01281,-0.0152136 0.02561,-0.030571 0.03827,-0.0460894 0.0093,-0.006604 0.01865,-0.0133363 0.0278,-0.0202585 0.0065,-0.0337019 0.01282,-0.0675583 0.01912,-0.10157047 0.01588,-0.0131861 0.0318,-0.0265344 0.04749,-0.040034 0.01433,-0.004767 0.02873,-0.009673 0.04289,-0.0147273 0.022,-9.504e-4 0.04385,-0.002043 0.06561,-0.003307 0.04028,0.002842 0.08049,0.005512 0.120557,0.008041 0.0083,-0.0209481 0.01658,-0.0420453 0.02469,-0.0633013 0.007,-0.0132901 0.01388,-0.0267197 0.02076,-0.0403108 0.0077,-0.005076 0.0153,-0.0102742 0.02264,-0.0156635 0.01607,-0.002355 0.03201,-0.004886 0.04781,-0.007554 0.01687,-0.002444 0.03363,-0.005042 0.05023,-0.007797 0.02537,0.007987 0.05063,0.0158366 0.07575,0.0235247 0.02771,0.0279238 0.05529,0.0556917 0.08276,0.0833072 0.01834,0.0140173 0.03655,0.0278875 0.05466,0.0415999 0.0067,0.0196415 0.0133,0.0391294 0.01974,0.058465 0.03318,0.0914666 0.06625,0.18277539 0.09922,0.2739317 0.03987,9.563e-4 0.07964,0.00177 0.119289,0.00242 0.0083,-0.00298 0.01666,-0.0061 0.02476,-0.00938 0.06694,-0.13961736 0.133712,-0.27938259 0.200419,-0.41930535 0.03807,-0.0227778 0.07601,-0.0457063 0.113824,-0.0687909 0.07384,-0.007398 0.147541,-0.014953 0.221137,-0.0226722 0.02884,-0.0142946 0.0575,-0.0287433 0.08608,-0.0433464 0.03139,-0.0212669 0.06263,-0.0426878 0.09378,-0.0642634 0.05557,-0.0113312 0.111051,-0.0227933 0.166405,-0.0344231 0.04991,-0.0296652 0.09967,-0.0594811 0.149314,-0.0894528 0.0343,-0.006446 0.06849,-0.01303 0.102559,-0.0197819 0.03673,7.5789e-4 0.07332,0.001356 0.109783,0.001803 0.01669,0.0143638 0.03321,0.028558 0.04962,0.0426047 0.0027,0.0128916 0.0058,0.025616 0.0084,0.0381916 -0.01122,0.0408877 -0.02231,0.0816196 -0.03363,0.12219527 -0.01344,0.0315244 -0.02699,0.062891 -0.04072,0.0941052 -0.0045,0.0208129 -0.0088,0.0414734 -0.01374,0.0619762 0.0017,0.0232684 0.0035,0.0463802 0.0053,0.0693384 0.0034,0.0375201 0.0066,0.0748837 0.0096,0.11209192 -7.3e-4,0.0602699 -0.0015,0.12038232 -0.0025,0.18034136 0.0013,0.079488 0.0025,0.1588173 0.0038,0.2379944 0.0022,0.0269 0.0045,0.053644 0.0065,0.080234 0.188465,0.2535045 0.376798,0.5068446 0.565017,0.7600354 0.09206,0.1233673 0.183985,0.2465801 0.275796,0.3696387 0.149543,0.2009148 0.298969,0.4016672 0.448271,0.6022693 0.181748,0.00475 0.363363,0.00934 0.544863,0.013778 0.01267,0.00428 0.02542,0.0084 0.03787,0.012366 -0.0047,0.014432 -0.0096,0.028713 -0.01448,0.042842 -0.01725,0.014972 -0.0347,0.029798 -0.0522,0.044462 -0.02499,0.00843 -0.05008,0.016686 -0.07533,0.024807 -0.03639,0.013681 -0.07292,0.027212 -0.109558,0.040586 -0.03015,0.00651 -0.06035,0.012838 -0.09071,0.019037 -0.01897,0.00948 -0.03803,0.018832 -0.05723,0.028016 z" /><path
       style="display:inline;fill:#f9ba4e;fill-opacity:1;stroke-width:0.264583"
       d="m 39.802055,1.484896 c 0.0073,-0.017899 0.02208,-0.05393 0.03754,-0.084718 0.01546,-0.030788 0.03165,-0.056383 0.04651,-0.078801 0.01486,-0.022417 0.02842,-0.04172 0.04802,-0.045817 0.0196,-0.0041 0.04507,0.00696 0.0635,0.02 0.01844,0.01304 0.02987,0.027954 0.04214,0.041655 0.01227,0.013701 0.02535,0.026196 0.0396,0.045634 0.01425,0.019438 0.02975,0.045859 0.04196,0.070975 0.01221,0.025116 0.0212,0.049013 0.02654,0.076649 0.0053,0.027636 0.0071,0.059094 0.008,0.094522 8.99e-4,0.035428 9.39e-4,0.074853 -0.0065,0.1026845 -0.0074,0.027831 -0.0224,0.044343 -0.04141,0.060585 -0.01901,0.016242 -0.04216,0.032318 -0.06193,0.044117 -0.01976,0.0118 -0.03623,0.019366 -0.05934,0.00731 -0.02311,-0.012056 -0.05296,-0.043885 -0.08196,-0.086701 -0.02899,-0.042816 -0.05692,-0.096313 -0.07512,-0.139829 -0.0182,-0.043516 -0.02653,-0.076848 -0.03072,-0.09361 -0.0042,-0.016763 -0.0042,-0.016758 0.0031,-0.034658 z"
       id="path15506"
       inkscape:path-effect="#path-effect15508"
       inkscape:original-d="m 39.794726,1.5027955 c 0.01464,-0.035806 0.02957,-0.071764 0.04417,-0.1078809 0.01629,-0.025438 0.0325,-0.051025 0.04858,-0.076768 0.01359,-0.019111 0.0272,-0.038381 0.04062,-0.057806 0.02559,0.011201 0.05106,0.022259 0.07639,0.03316 0.01161,0.015074 0.02301,0.030012 0.03433,0.044784 0.01321,0.012645 0.02629,0.02514 0.03923,0.037475 0.01554,0.026546 0.0311,0.052936 0.04647,0.079175 0.009,0.024016 0.01808,0.047878 0.02692,0.071586 0.0017,0.031594 0.0038,0.063033 0.0053,0.094319 1.2e-4,0.039585 2.41e-4,0.07901 1.2e-4,0.1182822 -0.01464,0.016599 -0.0297,0.033039 -0.04475,0.049325 -0.02302,0.016217 -0.04617,0.032292 -0.06942,0.048207 -0.01631,0.0077 -0.03278,0.015265 -0.04935,0.022673 -0.02974,-0.031671 -0.0596,-0.063495 -0.08955,-0.095476 -0.02803,-0.053666 -0.05592,-0.1071817 -0.08404,-0.1610039 -0.0083,-0.033198 -0.01656,-0.066548 -0.02501,-0.1000557 z" /><path
       style="display:inline;fill:#f9ba4e;fill-opacity:1;stroke-width:0.264583"
       d="m 40.892001,1.3873565 c 4.51e-4,0.091055 0.0014,0.2730115 -0.0049,0.3630357 -0.0063,0.090024 -0.01977,0.088261 -0.02419,0.00173 -0.0044,-0.086532 4.09e-4,-0.2579607 0.0066,-0.3480707 0.0062,-0.09011 0.01403,-0.098929 0.01792,-0.1033322 0.0039,-0.0044 0.0041,-0.00442 0.0045,0.086638 z"
       id="path15510"
       inkscape:path-effect="#path-effect15512"
       inkscape:original-d="m 40.891551,1.2963014 c 10e-4,0.1821098 0.002,0.3640656 0.0027,0.5458672 -0.01344,-0.00162 -0.02695,-0.00337 -0.0406,-0.0053 0.0049,-0.1712769 0.0099,-0.3427011 0.01449,-0.5142831 0.0077,-0.00859 0.01555,-0.017358 0.02321,-0.02627 z"
       inkscape:label="path15510" /><path
       style="display:inline;fill:#f9ba4e;fill-opacity:1;stroke-width:0.264583"
       d="m 38.469505,3.6907419 c -0.0013,0.017294 -0.0039,0.051723 -0.02325,0.069835 -0.01939,0.018112 -0.05571,0.020042 -0.07402,0.026832 -0.01831,0.00679 -0.01848,0.018271 -0.003,0.021748 0.01547,0.00348 0.04649,-8.913e-4 0.0626,0.014846 0.01611,0.015737 0.01741,0.051393 5.84e-4,0.071764 -0.01683,0.020371 -0.05184,0.025614 -0.06756,0.036235 -0.01572,0.010621 -0.01207,0.026397 0.0055,0.033476 0.01755,0.00708 0.04892,0.00561 0.06869,0.031052 0.01977,0.025439 0.028,0.077629 0.03216,0.075558 0.0042,-0.00207 0.0043,-0.058371 0.02282,-0.088381 0.01854,-0.03001 0.0554,-0.033563 0.05585,-0.037554 4.53e-4,-0.00399 -0.03552,-0.00845 -0.05558,-0.021299 -0.02006,-0.012849 -0.0241,-0.034218 -0.02582,-0.053715 -0.0017,-0.019496 -0.001,-0.037033 0.01445,-0.048767 0.01549,-0.011734 0.04569,-0.017492 0.04694,-0.022644 0.0013,-0.00515 -0.02647,-0.00972 -0.04124,-0.030604 -0.01477,-0.020885 -0.01637,-0.058195 -0.01717,-0.076943 -8.04e-4,-0.018748 -6.51e-4,-0.018733 -0.0019,-0.00144 z"
       id="path15518"
       inkscape:path-effect="#path-effect15520"
       inkscape:original-d="m 38.470794,3.6734478 c -0.0025,0.034594 -0.0049,0.069035 -0.0077,0.1033173 -0.03622,0.00206 -0.07254,0.004 -0.109003,0.00579 -4.7e-5,0.011647 -2.43e-4,0.023127 -5.02e-4,0.034459 0.03113,-0.00419 0.06215,-0.00857 0.09304,-0.013101 0.0015,0.03582 0.0026,0.071483 0.0039,0.1069936 -0.03492,0.00542 -0.06994,0.010645 -0.105094,0.015734 0.0038,0.015958 0.0074,0.031746 0.01096,0.047388 0.0315,-0.00132 0.06287,-0.0028 0.09414,-0.0044 0.0083,0.052333 0.0166,0.1045121 0.02469,0.1565386 2.4e-4,-0.05615 3.62e-4,-0.11245 3.62e-4,-0.1689082 0.03698,-0.0034 0.07384,-0.00693 0.110562,-0.010656 -0.03585,-0.00431 -0.07182,-0.00876 -0.107908,-0.013376 -0.0039,-0.021244 -0.0078,-0.042641 -0.01215,-0.064194 8.62e-4,-0.017383 0.0015,-0.034921 0.002,-0.052612 0.03035,-0.00561 0.06054,-0.011375 0.09066,-0.017292 -0.02766,-0.00441 -0.05539,-0.00899 -0.08331,-0.013723 -0.0015,-0.037171 -0.0028,-0.074494 -0.0048,-0.111973 z"
       inkscape:label="path15518" /><path
       style="display:inline;fill:#f9ba4e;fill-opacity:1;stroke-width:0.264583"
       d="m 41.243502,1.3304798 c -3.33e-4,0.080496 -10e-4,0.2413315 -0.0036,0.3169388 -0.0026,0.075607 -0.0072,0.066011 -0.01011,0.047919 -0.003,-0.018092 -0.0042,-0.044631 -0.0035,-0.1025035 7.44e-4,-0.057873 0.0035,-0.1470685 0.0068,-0.2094093 0.0032,-0.062341 0.007,-0.097817 0.0089,-0.1156284 0.0019,-0.017812 0.0019,-0.017812 0.0016,0.062683 z"
       id="path15522"
       inkscape:path-effect="#path-effect15524"
       inkscape:original-d="m 41.243836,1.249984 c -5.91e-4,0.1609919 -0.0013,0.3218274 -0.002,0.4825094 -0.0045,-0.00947 -0.009,-0.019098 -0.01374,-0.028874 -10e-4,-0.026386 -0.0022,-0.052928 -0.0038,-0.079623 0.0027,-0.089037 0.0058,-0.1782224 0.0083,-0.267565 0.0039,-0.035329 0.0076,-0.070809 0.01122,-0.1064467 z"
       inkscape:label="fondo" /><path
       style="display:inline;fill:#f9ba4e;fill-opacity:1;stroke-width:0.264583"
       d="m 41.374274,3.1661211 c 0.04835,-0.0018 0.144911,-0.0054 0.194084,5.2e-5 0.04917,0.00545 0.05104,0.019807 0.03605,0.025682 -0.01499,0.00588 -0.04692,0.00345 -0.05933,0.018919 -0.01241,0.015469 -0.0052,0.048633 -0.01278,0.067064 -0.0076,0.018432 -0.03016,0.022273 -0.04212,0.00504 -0.01196,-0.017237 -0.0133,-0.055708 -0.03885,-0.078449 -0.02555,-0.022741 -0.0754,-0.029598 -0.100413,-0.033039 -0.02501,-0.00344 -0.02498,-0.00346 0.02336,-0.00527 z"
       id="path15526"
       inkscape:path-effect="#path-effect15528"
       inkscape:original-d="m 41.325927,3.1679229 c 0.0967,-0.00345 0.193264,-0.00704 0.289716,-0.010797 0.002,0.014485 0.0039,0.028835 0.0056,0.043022 -0.03184,-0.00227 -0.06377,-0.00473 -0.09585,-0.00728 0.0074,0.033349 0.01449,0.066543 0.02171,0.099583 -0.02239,0.004 -0.04494,0.00784 -0.06757,0.011511 -0.0013,-0.038326 -0.0025,-0.076801 -0.004,-0.1154336 -0.04978,-0.0067 -0.09963,-0.013571 -0.149635,-0.020582 z" /><path
       style="display:inline;fill:#f9ba4e;fill-opacity:1;stroke-width:0.264583"
       d="m 41.135134,2.1684003 c 9.04e-4,0.01664 0.0027,0.049785 0.01447,0.067216 0.01176,0.017431 0.03337,0.019315 0.03358,0.022308 2.08e-4,0.00299 -0.02092,0.00713 -0.03307,0.021115 -0.01216,0.01399 -0.01526,0.037739 -0.01655,0.056055 -0.0013,0.018317 -7.88e-4,0.0312 -0.0033,0.018811 -0.0025,-0.012389 -0.008,-0.050085 -0.01684,-0.069562 -0.0088,-0.019477 -0.02083,-0.020605 -0.01982,-0.02286 10e-4,-0.00226 0.0155,-0.00566 0.02446,-0.024055 0.009,-0.018392 0.01266,-0.051959 0.01451,-0.068822 0.0019,-0.016863 0.0016,-0.016847 0.0026,-2.063e-4 z"
       id="path15530"
       inkscape:path-effect="#path-effect15532"
       inkscape:original-d="m 41.13423,2.1517597 c 0.0017,0.033287 0.0038,0.066415 0.0054,0.099392 0.02172,0.00204 0.04333,0.00392 0.0648,0.00565 -0.02101,0.00428 -0.04213,0.00843 -0.06337,0.012395 -0.0028,0.023874 -0.0061,0.047597 -0.0093,0.071162 7.29e-4,0.013044 0.0012,0.025929 0.0015,0.038665 -0.0054,-0.03752 -0.01109,-0.07519 -0.01653,-0.1130175 -0.01215,-9.852e-4 -0.02415,-0.00212 -0.0364,-0.00342 0.01432,-0.00321 0.02882,-0.00658 0.04302,-0.010114 0.0038,-0.033423 0.0074,-0.067 0.01109,-0.1007286 z" /><path
       style="display:inline;fill:#f9ba4e;fill-opacity:1;stroke-width:0.264583"
       d="m 39.644802,13.203469 c 0.112485,-0.0027 0.33734,-0.0081 0.449256,-0.0048 0.111916,0.0033 0.111012,0.01528 -0.0013,0.0179 -0.112333,0.0026 -0.336218,-0.0039 -0.448226,-0.0072 -0.112009,-0.0033 -0.112193,-0.0032 2.92e-4,-0.0059 z"
       id="path15534"
       inkscape:path-effect="#path-effect15536"
       inkscape:original-d="m 39.532317,13.206167 c 0.224972,-0.0053 0.449827,-0.0107 0.674564,-0.01618 -8.65e-4,0.01202 -0.0016,0.024 -0.0027,0.03576 -0.223779,-0.0065 -0.447667,-0.01291 -0.67168,-0.0196 z" /><path
       style="display:inline;fill:#f9ba4e;fill-opacity:1;stroke-width:0.264583"
       d="m 38.075891,6.723844 c -0.0023,-0.02281 -0.0069,-0.068583 -0.0129,-0.1034003 -0.006,-0.034817 -0.01356,-0.058658 -0.02191,-0.077415 -0.0083,-0.018757 -0.01763,-0.032484 -0.0291,-0.042681 -0.01146,-0.010197 -0.02521,-0.016841 -0.0485,-0.031286 -0.02328,-0.014445 -0.05616,-0.036751 -0.08928,-0.054511 -0.03312,-0.017759 -0.06649,-0.030935 -0.110339,-0.041035 -0.04385,-0.0101 -0.09814,-0.017083 -0.146895,-0.020777 -0.04875,-0.00369 -0.09189,-0.00408 -0.13126,-0.00515 -0.03937,-0.00107 -0.07492,-0.00284 -0.101176,-0.010393 -0.02626,-0.00755 -0.04322,-0.020979 -0.06371,-0.032907 -0.02049,-0.011928 -0.0445,-0.022296 -0.133033,-0.043735 -0.08853,-0.021438 -0.241578,-0.05391 -0.336405,-0.071904 -0.09483,-0.017994 -0.1314,-0.021491 -0.155335,-0.027915 -0.02394,-0.00642 -0.03506,-0.01575 -0.03893,-0.026083 -0.0039,-0.010333 -2.2e-4,-0.021573 0.01655,-0.039738 0.01677,-0.018165 0.04661,-0.043126 0.0682,-0.064908 0.02159,-0.021782 0.03496,-0.040446 0.0438,-0.055568 0.0088,-0.015122 0.01313,-0.026662 0.02642,-0.031828 0.0133,-0.00517 0.0354,-0.00375 0.04897,-0.00508 0.01358,-0.00134 0.01876,-0.00541 0.01484,-0.013086 -0.0039,-0.00768 -0.01721,-0.01891 -0.02643,-0.031487 -0.0092,-0.012576 -0.01428,-0.026566 -0.0083,-0.038139 0.006,-0.011573 0.0229,-0.02055 0.125984,-0.028795 0.10308,-0.00824 0.292177,-0.015759 0.407823,-0.021212 0.115645,-0.00545 0.157885,-0.00884 0.200527,-0.019056 0.04264,-0.010212 0.08577,-0.027237 0.122311,-0.058977 0.03654,-0.03174 0.06654,-0.078238 0.01082,-0.1271632 C 37.652916,5.5506836 37.5113,5.499339 37.267557,5.487974 37.023814,5.476609 36.678006,5.50529 36.383173,5.542893 36.08834,5.580497 35.844511,5.627029 35.711071,5.6685361 c -0.13344,0.041507 -0.156349,0.077894 -0.170185,0.1117787 -0.01384,0.033885 -0.01861,0.065183 -0.01975,0.090225 -0.0011,0.025042 0.0013,0.043808 0.0093,0.056142 0.008,0.012334 0.02131,0.018324 0.04132,0.02044 0.02,0.00212 0.04673,4.493e-4 0.06814,0.00791 0.02141,0.00746 0.03745,0.023913 0.04893,0.040664 0.01148,0.016751 0.01844,0.033737 0.02348,0.053992 0.005,0.020255 0.0082,0.043763 0.01166,0.07913 0.0034,0.035367 0.0072,0.082597 0.0081,0.116941 9.57e-4,0.034344 -8.43e-4,0.055829 -0.0029,0.07585 -0.0021,0.020021 -0.0044,0.038638 -0.01196,0.054781 -0.0076,0.016144 -0.02028,0.029882 -0.06553,0.034316 -0.04525,0.00443 -0.123127,-4.451e-4 -0.154551,0.025333 -0.03142,0.025778 -0.01632,0.082018 0.421722,0.1388139 0.438039,0.056796 1.298895,0.1143046 1.729263,0.1430549 0.430369,0.02875 0.430032,0.028744 0.42775,0.00593 z"
       id="path15744"
       inkscape:path-effect="#path-effect15746"
       inkscape:original-d="m 38.078173,6.7466543 c -0.0045,-0.045627 -0.009,-0.091408 -0.01374,-0.1373428 -0.0074,-0.023709 -0.01485,-0.047574 -0.0226,-0.07159 -0.009,-0.013516 -0.01836,-0.027194 -0.02775,-0.041019 -0.01359,-0.00649 -0.02735,-0.013113 -0.04117,-0.019893 -0.03274,-0.022148 -0.06562,-0.044448 -0.0986,-0.0669 -0.03326,-0.013032 -0.06664,-0.026193 -0.100119,-0.039527 -0.05419,-0.00682 -0.108488,-0.013805 -0.162914,-0.020952 -0.04306,-2.315e-4 -0.0862,-6.413e-4 -0.129521,-0.00116 -0.03542,-0.00165 -0.07097,-0.00337 -0.106641,-0.0053 -0.01687,-0.013295 -0.03383,-0.026725 -0.05093,-0.040314 -0.02389,-0.010208 -0.0479,-0.02058 -0.07203,-0.031104 -0.152924,-0.032315 -0.305969,-0.064787 -0.459133,-0.097414 -0.03648,-0.00332 -0.07305,-0.00685 -0.109769,-0.010494 -0.01122,-0.00924 -0.02228,-0.018639 -0.03362,-0.028188 0.0037,-0.011115 0.0074,-0.022339 0.01096,-0.033739 0.02998,-0.024818 0.05981,-0.049788 0.08955,-0.074914 0.01344,-0.018493 0.02684,-0.037138 0.04008,-0.05594 0.0045,-0.011473 0.0086,-0.023082 0.01294,-0.034852 0.02222,0.00155 0.04432,0.00298 0.06628,0.00426 0.0053,-0.00396 0.01044,-0.00809 0.01574,-0.012366 -0.01321,-0.011115 -0.0265,-0.022354 -0.03994,-0.033756 -0.0049,-0.013805 -0.01,-0.027779 -0.01515,-0.0419 0.01712,-0.00882 0.03406,-0.017817 0.05091,-0.026959 0.189225,-0.00736 0.378322,-0.014883 0.567302,-0.022543 0.04232,-0.00321 0.08456,-0.0066 0.126645,-0.010166 0.04325,-0.016876 0.08638,-0.033903 0.129416,-0.051083 0.03015,-0.046354 0.06013,-0.092863 0.09001,-0.1395256 -0.141498,-0.051193 -0.283115,-0.1025334 -0.424855,-0.1540368 -0.345697,0.028835 -0.691504,0.057518 -1.037437,0.086044 -0.243715,0.046687 -0.487544,0.09322 -0.731499,0.1396002 -0.02282,0.036549 -0.04572,0.072942 -0.06874,0.1091827 -0.0047,0.031452 -0.0095,0.062747 -0.01433,0.093893 0.0025,0.018924 0.0049,0.037699 0.0074,0.056311 0.01344,0.00614 0.02679,0.01213 0.03999,0.017944 0.02686,-0.00151 0.05359,-0.00315 0.08021,-0.005 0.01615,0.016615 0.0322,0.033063 0.04815,0.049358 0.0071,0.017154 0.01403,0.034152 0.02089,0.050995 0.0033,0.023666 0.0065,0.04717 0.0095,0.070524 0.0039,0.047387 0.0076,0.094621 0.01122,0.1416983 -0.0016,0.021636 -0.0035,0.043113 -0.0054,0.06444 -0.002,0.018749 -0.0045,0.037345 -0.007,0.055795 -0.01267,0.013931 -0.02538,0.027683 -0.03825,0.041295 -0.07778,-0.00473 -0.155656,-0.00962 -0.233657,-0.014641 0.01531,0.056405 0.03036,0.1126594 0.04533,0.1687576 0.861006,0.057664 1.721862,0.1151735 2.582609,0.1725279 z" /></g></svg>
