<svg width="683" height="683" xmlns="http://www.w3.org/2000/svg" xmlns:xlink="http://www.w3.org/1999/xlink" xml:space="preserve" overflow="hidden"><defs><clipPath id="clip0"><rect x="304" y="28" width="683" height="683"/></clipPath></defs><g clip-path="url(#clip0)" transform="translate(-304 -28)"><path d="M308.817 681.533C202.099 670.461 108.586 612.566 51.7586 521.988-14.1402 417.137-17.075 280.537 44.2883 173.418 76.7041 116.99 124.061 70.7012 179.954 40.8199 227.578 15.3408 280.137 1.33398 329.494 0.800391L347.503 0.666992 347.903 133.132 348.17 265.463 311.485 265.463 274.801 265.463 274.801 308.15 274.801 350.838 311.219 351.105 347.503 351.505 348.303 396.193C348.97 436.746 349.237 441.816 351.905 451.554 362.177 488.372 386.589 512.917 423.54 523.189 433.145 525.857 437.413 526.123 465.561 526.123 482.769 526.257 502.779 525.723 509.982 525.056L522.922 523.989 522.922 485.57 522.922 447.152 491.306 446.618C459.691 446.218 459.558 446.218 452.621 442.616 437.947 434.879 436.213 428.609 436.213 384.588L436.213 350.838 478.233 350.838C501.311 350.838 520.254 350.438 520.254 349.904 520.254 349.237 517.853 330.561 514.918 308.284 511.983 285.873 509.582 267.197 509.582 266.53 509.582 265.996 493.041 265.463 472.897 265.463L436.213 265.463 436.213 139.401C436.213 70.0342 436.48 13.3398 436.746 13.3398 439.281 13.3398 471.03 25.3457 483.036 30.815 523.189 49.224 554.271 71.3682 586.286 104.184 614.166 132.865 631.375 157.544 649.117 194.095 664.858 226.644 675.663 262.928 680.599 300.146 682.733 316.688 682.733 368.046 680.599 383.521 669.393 462.359 636.844 528.791 582.818 582.818 529.859 635.644 463.96 668.726 388.856 679.798 372.448 682.2 325.092 683.267 308.817 681.533Z" fill="#262626" transform="matrix(1 0 0 -1 304 711)"/></g></svg>