<svg width="1280" height="395" xmlns="http://www.w3.org/2000/svg" xmlns:xlink="http://www.w3.org/1999/xlink" xml:space="preserve" overflow="hidden"><defs><clipPath id="clip0"><rect x="0" y="162" width="1280" height="395"/></clipPath></defs><g clip-path="url(#clip0)" transform="matrix(1 0 0 1 0 -162)"><path d="M1120.33 340.394C1118.01 339.316 1114.78 337.243 1113.12 335.751 1110.63 333.596 1110.05 332.518 1110.05 330.031 1110.05 328.373 1110.8 325.969 1111.71 324.56 1113.7 321.575 1113.78 319.751 1112.04 317.181 1111.21 315.855 1111.13 315.026 1111.63 314.694 1112.54 314.114 1111.96 309.389 1110.8 307.896 1110.38 307.399 1109.14 307.15 1107.98 307.399 1106.65 307.648 1105.91 307.399 1105.91 306.736 1105.91 306.155 1106.49 305.907 1107.15 306.238 1107.81 306.487 1108.39 306.321 1108.39 305.99 1108.39 305.575 1107.9 305.078 1107.4 304.912 1106.65 304.663 1106.74 304.083 1107.81 303.005 1109.97 300.85 1109.22 299.192 1105.49 297.865 1099.27 295.793 1099.61 295.959 1100.93 295.047 1101.93 294.383 1101.84 294.301 1100.52 294.632 1099.61 294.881 1097.37 294.549 1095.54 293.886 1092.56 292.725 1092.48 292.642 1094.71 292.808 1096.7 292.974 1097.2 292.725 1097.12 291.565 1096.95 290.321 1097.2 290.238 1098.2 291.15 1099.36 292.062 1099.44 291.565 1099.03 287.088 1098.86 284.352 1098.94 281.534 1099.36 280.87 1099.77 280.207 1100.1 281.699 1100.1 284.767 1100.1 292.642 1102.42 294.798 1102.67 287.171 1102.76 284.933 1103.17 282.446 1103.59 281.699 1104 280.87 1104 280.207 1103.59 280.207 1103.25 280.207 1102.92 279.461 1102.92 278.549 1102.92 277.471 1103.25 277.223 1103.75 277.72 1105.41 279.378 1105.91 278.466 1105.91 273.99 1105.91 267.523 1104.5 265.617 1099.03 264.953 1096.7 264.622 1094.38 264.041 1093.89 263.627 1093.39 263.212 1091.98 262.798 1090.82 262.632 1086.67 262.052 1087.42 261.223 1092.56 260.642 1096.37 260.228 1097.87 259.648 1098.53 258.487 1099.19 257.161 1099.61 257.078 1100.6 257.907 1101.26 258.404 1101.93 258.736 1102.09 258.57 1102.76 257.741 1101.1 249.285 1100.1 248.705 1099.52 248.373 1099.27 247.461 1099.52 246.798 1100.02 245.471 1104.41 244.311 1105.08 245.389 1105.33 245.72 1106.82 246.218 1108.39 246.301 1111.21 246.632 1111.3 246.549 1111.54 243.399 1111.71 241.575 1111.63 239.254 1111.3 238.176 1110.71 235.772 1106.49 233.782 1103.34 234.363L1101.1 234.777 1100.52 224.332 1099.94 213.886 1082.61 214.383 1065.28 214.964 1065.28 212.394 1065.28 209.741 1056.91 209.741C1052.19 209.741 1048.79 209.409 1049.04 208.995 1049.28 208.58 1053.51 208 1058.4 207.668 1070.34 206.922 1093.39 203.523 1094.55 202.363 1095.05 201.865 1096.12 201.451 1096.87 201.451 1097.7 201.451 1098.61 201.119 1098.86 200.622 1099.11 200.207 1099.36 188.933 1099.27 175.585 1099.27 152.622 1099.11 151.295 1097.62 149.886 1095.63 148.062 1095.54 146.819 1097.12 144.58 1097.78 143.668 1098.53 140.85 1098.86 138.28 1099.44 133.886 1099.61 133.554 1101.93 133.057 1103.25 132.725 1104.58 131.979 1104.83 131.316 1105.49 129.492 1104.83 129.244 1102.26 130.57 1100.93 131.233 1097.7 131.813 1095.05 131.813 1089.41 131.813 1086.34 132.974 1085.68 135.461 1085.43 136.456 1083.77 138.694 1081.95 140.435 1079.21 143.088 1078.05 143.668 1075.4 143.668 1071.83 143.668 1067.36 141.098 1066.61 138.611 1066.2 137.451 1064.46 136.953 1057.58 136.041 1044.81 134.466 1044.97 134.549 1048.37 130.57 1050.45 128.166 1051.19 128.332 1052.27 131.399 1052.44 131.813 1055.5 132.311 1059.07 132.477L1065.53 132.808 1065.12 130.238C1064.87 128.746 1065.04 127.42 1065.45 127.171 1065.87 126.922 1069.76 126.756 1074.24 126.756 1086.59 126.839 1100.19 125.098 1112.95 121.699 1114.69 121.285 1118.42 119.212 1121.08 117.14 1124.97 114.155 1126.55 112.166 1128.54 107.855L1131.19 102.383 1131.44 81.7409C1131.77 58.943 1131.44 57.3679 1127.63 61.9275 1126.38 63.3368 1123.98 65.0777 1122.32 65.8238L1119.17 67.0674 1119.17 88.7047 1119.17 110.259 1105.33 110.093 1091.4 109.845 1090.98 92.4352 1090.57 75.0259 1078.47 75.3575C1064.37 75.6891 1062.8 75.3575 1062.8 72.2902 1062.8 68.5596 1061.8 63.8342 1061.06 63.8342 1060.64 63.8342 1060.31 66.1554 1060.31 68.8912 1060.31 72.456 1059.9 74.2798 1059.07 74.943 1057.58 76.0207 1057.24 87.544 1058.57 92.0207 1059.65 95.5026 1059.81 109.181 1058.74 109.762 1058.4 110.01 1057.82 112.829 1057.49 116.145 1057.24 119.378 1056.66 122.611 1056.25 123.44 1055.75 124.269 1055.83 125.347 1056.25 126.259 1056.99 127.503 1056.66 127.668 1054.34 127.668L1051.61 127.668 1051.52 112.912C1051.27 73.6166 1051.27 73.7824 1050.03 73.7824 1049.28 73.7824 1048.62 75.0259 1048.29 77.0984 1047.96 78.9223 1047.3 80.4145 1046.71 80.4145 1045.97 80.4145 1045.72 77.0155 1045.8 66.8186 1045.97 55.544 1046.22 52.8083 1047.38 50.9845 1048.87 48.7461 1064.87 40.2902 1066.2 41.1192 1066.61 41.3679 1067.52 40.9534 1068.27 40.2073 1069.02 39.4611 1070.09 39.0466 1070.67 39.2953 1071.34 39.544 1072 39.1295 1072.25 38.4663 1072.58 37.6373 1074.16 37.3057 1077.8 37.3057 1082.2 37.3057 1082.78 37.4715 1081.87 38.5492 1081.37 39.2124 1081.12 40.0415 1081.28 40.456 1081.53 40.7876 1094.96 41.2021 1111.05 41.285 1127.13 41.3679 1141.47 41.6166 1142.8 41.8653 1144.21 42.0311 1149.51 42.4456 1154.74 42.7772 1163.19 43.2746 1164.27 43.1917 1165.26 41.9482 1166.18 40.6218 1167.5 40.456 1176.29 40.7047 1181.68 40.8705 1186.49 41.285 1186.82 41.6166 1187.15 42.0311 1187.48 43.8549 1187.48 45.7617L1187.56 49.3264 1181.35 49.5751C1177.95 49.658 1168.58 49.4922 1160.62 49.0777 1146.61 48.4145 1139.56 48.9119 1137.91 50.5699 1136.5 51.9793 1138.16 52.4767 1141.31 51.6477 1143.21 51.0674 1147.44 50.9845 1151.75 51.3161 1159.54 51.8964 1160.62 52.4767 1160.62 56.5389L1160.62 58.7772 1148.02 59.0259 1135.34 59.2746 1135.09 119.71C1135.01 165.223 1134.67 180.477 1133.93 181.389 1132.93 182.466 1132.77 183.627 1132.52 189.762 1132.44 191.834 1132.1 192.415 1131.19 192 1130.53 191.751 1129.95 192 1129.87 192.58 1129.7 196.228 1129.04 199.876 1127.96 202.86 1127.05 205.596 1126.8 209.078 1127.13 218.943 1127.3 225.824 1127.63 231.71 1127.79 232.041 1128.04 232.373 1128.37 236.104 1128.7 240.415 1129.37 250.114 1129.7 251.606 1131.11 250.446 1131.94 249.782 1132.19 250.446 1132.35 253.513 1132.93 262.964 1133.02 262.301 1130.78 262.383 1128.79 262.383 1128.79 262.466 1128.7 270.591 1128.7 279.378 1129.7 281.368 1131.85 277.223L1133.02 274.984 1133.43 276.974C1133.68 278.052 1133.84 282.694 1133.68 287.254 1133.43 296.456 1134.09 299.275 1136.58 299.275 1137.49 299.275 1138.24 299.855 1138.24 300.518 1138.24 301.264 1137.58 301.679 1136.41 301.513 1135.34 301.43 1134.51 301.762 1134.59 302.425 1134.67 302.922 1134.76 305.492 1134.84 307.979 1134.92 311.959 1135.17 312.539 1136.58 312.539 1137.66 312.539 1138.07 312.124 1137.74 311.295 1137.41 310.549 1137.74 310.052 1138.57 310.052 1140.15 310.052 1140.48 305.409 1138.9 304.912 1137.33 304.332 1140.06 299.44 1143.96 295.544 1145.87 293.803 1147.36 291.813 1147.36 291.233 1147.36 289.492 1149.51 289.99 1150.92 292.062 1152 293.471 1152.41 293.637 1152.99 292.725 1154.07 291.233 1157.97 292.145 1160.87 294.632 1163.03 296.539 1164.1 298.611 1162.11 297.036 1161.53 296.539 1159.63 295.71 1157.97 295.212 1155.07 294.301 1154.65 294.383 1151.92 296.373 1150.34 297.617 1149.02 299.192 1149.02 299.772 1149.02 300.435 1148.35 301.596 1147.52 302.425 1146.2 303.751 1145.87 303.834 1145.2 302.839 1144.7 302.01 1143.71 301.845 1142.13 302.176 1140.23 302.674 1139.9 303.171 1140.31 304.58 1140.56 305.492 1140.89 306.736 1140.97 307.233 1141.14 307.813 1141.64 308.725 1142.13 309.306 1142.55 309.969 1142.88 311.793 1142.71 313.368 1142.47 317.098 1143.38 318.756 1148.68 323.813 1153.08 327.959 1154.49 330.611 1151.83 329.617 1151.09 329.368 1150.34 329.119 1150.18 329.119 1149.93 329.119 1150.01 328.788 1150.26 328.29 1150.51 327.793 1150.18 327.71 1149.43 327.959 1147.85 328.622 1139.98 321.326 1139.81 319.171 1139.81 318.508 1138.98 319.668 1137.99 321.824 1136.99 323.896 1135.17 326.632 1133.93 327.71 1131.94 329.534 1131.69 330.28 1131.94 334.425 1132.02 336.995 1132.44 339.316 1132.68 339.648 1133.6 340.477 1131.61 342.383 1129.87 342.383 1128.95 342.383 1128.29 341.803 1128.29 341.057 1128.29 340.394 1127.96 340.062 1127.46 340.311 1127.05 340.56 1126.63 340.394 1126.63 339.979 1126.63 339.482 1127.21 339.067 1127.88 339.067 1128.54 339.067 1129.12 338.736 1129.12 338.321 1129.12 337.824 1128.37 337.575 1127.46 337.658 1126.22 337.741 1125.8 338.321 1125.8 340.062 1125.8 342.881 1125.64 342.881 1120.33 340.394ZM1128.29 335.337C1127.71 334.674 1127.13 334.093 1127.05 334.093 1126.88 334.093 1126.63 334.674 1126.3 335.337 1125.97 336.166 1126.38 336.58 1127.63 336.58 1129.04 336.58 1129.12 336.414 1128.29 335.337ZM1117.51 332.933C1117.51 332.767 1116.85 332.104 1116.1 331.523 1114.78 330.446 1114.69 330.529 1115.77 331.855 1116.85 333.181 1117.51 333.596 1117.51 332.933ZM1131.61 329.036C1131.61 328.539 1131.27 328.456 1130.78 328.705 1130.36 328.953 1129.95 329.617 1129.95 330.031 1129.95 330.529 1130.36 330.611 1130.78 330.363 1131.27 330.114 1131.61 329.451 1131.61 329.036ZM1135.34 321.492C1135.67 319.751 1136.33 318.342 1136.83 318.342 1137.49 318.342 1137.49 318.093 1136.75 317.347 1136.08 316.684 1135.5 316.684 1134.67 317.43 1133.35 318.508 1132.1 324.56 1132.93 325.969 1133.68 327.13 1134.76 325.223 1135.34 321.492ZM1144.04 321.244C1143.46 320.58 1142.55 320 1142.05 320 1141.55 320 1141.89 320.58 1142.71 321.244 1144.79 322.819 1145.37 322.819 1144.04 321.244ZM1140.48 315.44C1138.57 313.617 1137.74 313.948 1139.48 315.855 1140.31 316.767 1141.14 317.347 1141.39 317.181 1141.55 316.933 1141.14 316.187 1140.48 315.44ZM1142.38 310.798C1142.38 310.383 1141.8 310.052 1141.14 310.052 1139.9 310.052 1139.48 311.047 1140.39 311.959 1141.06 312.622 1142.38 311.876 1142.38 310.798ZM1106.49 293.803C1106.24 293.554 1105.49 293.471 1104.91 293.72 1104.25 293.969 1104.5 294.218 1105.41 294.218 1106.32 294.301 1106.82 294.052 1106.49 293.803ZM1111.38 261.554C1112.37 258.984 1110.88 254.756 1108.73 253.762 1107.48 253.264 1106.82 253.181 1107.15 253.679 1107.48 254.176 1106.74 254.508 1105.58 254.508 1103.92 254.508 1103.59 254.839 1103.92 256 1104.75 258.57 1106.32 261.554 1107.15 262.135 1108.56 263.212 1110.88 262.881 1111.38 261.554ZM1123.32 209.741C1123.32 209.326 1122.9 208.912 1122.4 208.912 1121.99 208.912 1121.82 209.326 1122.07 209.741 1122.32 210.238 1122.74 210.57 1122.98 210.57 1123.15 210.57 1123.32 210.238 1123.32 209.741ZM1088.91 130.984C1089.16 130.57 1088.99 130.155 1088.58 130.155 1088.08 130.155 1087.67 130.57 1087.67 130.984 1087.67 131.482 1087.83 131.813 1088 131.813 1088.25 131.813 1088.66 131.482 1088.91 130.984ZM1087.42 128.829C1087.17 128.58 1086.42 128.497 1085.84 128.746 1085.18 128.995 1085.43 129.244 1086.34 129.244 1087.25 129.326 1087.75 129.078 1087.42 128.829ZM1103.01 126.756C1104.08 126.259 1103.01 126.176 1099.69 126.508 1096.95 126.839 1094.55 127.171 1094.38 127.337 1093.64 128 1101.43 127.503 1103.01 126.756ZM1111.3 124.352C1111.54 123.938 1111.05 123.523 1110.13 123.523 1109.22 123.523 1108.23 123.938 1107.98 124.352 1107.73 124.85 1108.23 125.181 1109.14 125.181 1110.05 125.181 1111.05 124.85 1111.3 124.352Z" fill="#F9BA4E" transform="matrix(1 0 0 -1.00062 0 556.928)"/><path d="M1195.85 334.922C1177.95 330.197 1177.53 330.114 1174.3 324.974 1172.64 322.487 1171.48 319.917 1171.56 319.254 1171.9 317.762 1175.54 317.43 1175.54 318.839 1175.54 319.42 1178.03 322.487 1181.18 325.637 1187.15 331.772 1185.58 331.109 1201.91 335.088 1203.81 335.585 1205.39 336.332 1205.39 336.663 1205.39 337.078 1205.31 337.409 1205.22 337.326 1205.06 337.326 1200.91 336.249 1195.85 334.922Z" fill="#F9BA4E" transform="matrix(1 0 0 -1.00062 0 556.928)"/><path d="M1157.89 331.275C1158.13 330.114 1158.8 329.036 1159.46 328.788 1160.87 328.29 1160.87 328.373 1159.79 331.109 1158.8 333.845 1157.39 333.927 1157.89 331.275Z" fill="#F9BA4E" transform="matrix(1 0 0 -1.00062 0 556.928)"/><path d="M1188.64 326.881C1184.33 322.321 1181.43 316.352 1180.77 310.881 1180.44 307.648 1180.77 306.487 1183.42 302.176 1188.73 293.637 1188.97 292.725 1188.31 282.611 1187.65 271.917 1186.16 270.756 1185.49 280.373 1185.24 283.855 1185.33 286.508 1185.74 286.259 1187.32 285.264 1186.07 289.824 1183.75 293.14 1181.1 297.036 1178.03 298.86 1175.54 298.031 1174.55 297.699 1173.55 298.197 1172.81 299.275 1171.73 300.85 1171.56 300.85 1171.07 299.606 1170.57 298.446 1174.63 290.487 1176.37 289.326 1177.87 288.332 1178.86 284.933 1178.86 281.119 1178.86 275.813 1179.44 274.404 1181.76 274.404 1183.59 274.404 1186.32 272.083 1186.32 270.508 1186.32 269.264 1188.39 268.601 1192.37 268.601 1194.78 268.601 1195.44 268.85 1194.69 269.347 1193.78 269.927 1193.95 270.176 1195.52 270.508 1196.77 270.756 1196.1 270.922 1193.95 271.005 1191.54 271.088 1190.22 271.503 1189.89 272.414 1189.14 274.321 1190.55 275.233 1195.19 275.731L1199.34 276.228 1199.92 287.503C1200.17 293.637 1200.41 302.508 1200.41 307.233 1200.41 316.269 1201.24 320 1203.32 320 1203.98 320 1204.56 320.332 1204.56 320.746 1204.56 321.99 1201.99 322.487 1200.33 321.575 1197.1 319.834 1195.85 320.912 1196.19 325.223L1196.44 329.119 1193.62 329.119C1191.63 329.119 1190.13 328.456 1188.64 326.881ZM1189.97 319.834C1189.22 308.311 1187.81 299.772 1186.98 301.181 1185.41 304 1188.15 325.803 1190.13 325.803 1190.22 325.803 1190.22 323.067 1189.97 319.834ZM1197.1 313.451C1197.1 312.539 1197.43 311.71 1197.93 311.544 1198.34 311.461 1198.51 310.466 1198.26 309.471 1197.93 308.394 1197.43 307.813 1197.02 308.062 1196.6 308.311 1196.44 308.808 1196.68 309.223 1196.93 309.637 1196.77 310.135 1196.27 310.466 1195.19 311.13 1195.19 315.026 1196.27 315.026 1196.77 315.026 1197.1 314.28 1197.1 313.451Z" fill="#F9BA4E" transform="matrix(1 0 0 -1.00062 0 556.928)"/><path d="M1152.75 323.316C1150.84 321.326 1150.67 320.829 1151.83 320.829 1152.58 320.829 1153.08 321.161 1152.83 321.575 1152.58 321.99 1152.83 322.487 1153.41 322.736 1154.07 322.984 1154.4 322.238 1154.49 320.663 1154.57 319.254 1154.9 317.927 1155.4 317.596 1157.22 316.352 1158.96 312.788 1158.96 310.218 1158.96 308.725 1157.8 305.078 1156.39 302.093 1155.07 299.109 1153.99 296.373 1154.16 295.959 1154.57 294.881 1170.32 310.301 1170.98 312.456 1171.48 314.114 1171.32 314.363 1170.16 313.865 1169.24 313.534 1167.34 314.611 1164.27 317.181 1161.78 319.337 1159.96 320.58 1160.21 319.917 1160.37 319.254 1160.29 318.176 1159.79 317.513 1158.55 315.523 1156.97 317.845 1156.89 321.824 1156.81 323.731 1156.48 325.389 1155.98 325.554 1155.56 325.72 1154.07 324.725 1152.75 323.316Z" fill="#F9BA4E" transform="matrix(1 0 0 -1.00062 0 556.928)"/><path d="M1158.13 322.902C1158.13 322.238 1158.47 321.658 1158.96 321.658 1159.38 321.658 1159.54 322.238 1159.3 322.902 1158.96 323.565 1158.63 324.145 1158.47 324.145 1158.3 324.145 1158.13 323.565 1158.13 322.902Z" fill="#F9BA4E" transform="matrix(1 0 0 -1.00062 0 556.928)"/><path d="M1148.1 319.42C1147.03 318.093 1147.11 318.01 1148.44 319.088 1149.76 320.166 1150.18 320.829 1149.51 320.829 1149.35 320.829 1148.68 320.166 1148.1 319.42Z" fill="#F9BA4E" transform="matrix(1 0 0 -1.00062 0 556.928)"/><path d="M1136.17 308.394C1136.41 307.979 1136.83 307.565 1137.08 307.565 1137.24 307.565 1137.41 307.979 1137.41 308.394 1137.41 308.891 1136.99 309.223 1136.5 309.223 1136.08 309.223 1135.92 308.891 1136.17 308.394Z" fill="#F9BA4E" transform="matrix(1 0 0 -1.00062 0 556.928)"/><path d="M1166.76 300.85 1163.52 297.451 1166.59 299.358C1169.41 301.181 1171.07 303.171 1170.32 303.917 1170.16 304.083 1168.58 302.674 1166.76 300.85Z" fill="#F9BA4E" transform="matrix(1 0 0 -1.00062 0 556.928)"/><path d="M1203.81 275.896C1203.81 275.15 1203.4 274.404 1202.9 274.238 1202.49 274.073 1202.4 273.492 1202.82 272.829 1203.98 270.922 1205.06 272.166 1204.48 274.819 1204.15 276.228 1203.9 276.725 1203.81 275.896Z" fill="#F9BA4E" transform="matrix(1 0 0 -1.00062 0 556.928)"/><path d="M1234.4 273.492C1228.27 273.244 1221.22 272.912 1218.9 272.829 1216.5 272.829 1214.51 272.414 1214.51 271.917 1214.51 270.756 1240.04 271.005 1247.67 272.249 1253.72 273.244 1253.8 273.244 1250.57 273.824 1248.75 274.155 1246.92 274.321 1246.42 274.238 1246.01 274.155 1240.54 273.824 1234.4 273.492Z" fill="#F9BA4E" transform="matrix(1 0 0 -1.00062 0 556.928)"/><path d="M1255.38 273.824C1256.12 273.658 1257.45 273.658 1258.28 273.824 1259.03 274.073 1258.36 274.238 1256.79 274.238 1255.21 274.238 1254.55 274.073 1255.38 273.824Z" fill="#F9BA4E" transform="matrix(1 0 0 -1.00062 0 556.928)"/><path d="M1092.06 271.917C1088.99 270.093 1088.66 269.016 1090.74 268.269 1092.23 267.689 1097.04 271.668 1096.29 272.912 1095.63 273.907 1095.05 273.741 1092.06 271.917Z" fill="#F9BA4E" transform="matrix(1 0 0 -1.00062 0 556.928)"/><path d="M1210.2 272.166C1210.78 271.917 1211.52 272 1211.77 272.249 1212.1 272.497 1211.61 272.746 1210.69 272.663 1209.78 272.663 1209.53 272.414 1210.2 272.166Z" fill="#F9BA4E" transform="matrix(1 0 0 -1.00062 0 556.928)"/><path d="M1130.36 271.088C1130.11 270.674 1130.28 270.259 1130.69 270.259 1131.19 270.259 1131.61 270.674 1131.61 271.088 1131.61 271.585 1131.44 271.917 1131.27 271.917 1131.03 271.917 1130.61 271.585 1130.36 271.088Z" fill="#F9BA4E" transform="matrix(1 0 0 -1.00062 0 556.928)"/><path d="M678.964 267.192C676.062 266.114 671.171 261.471 670.093 258.736 669.098 256.497 668.767 251.689 668.684 239.005 668.435 216.456 668.933 211.979 672 208.995 677.803 203.358 673.161 203.689 744.87 204.021 780.435 204.187 849.492 204.269 898.238 204.104 947.067 203.938 996.311 204.104 1007.83 204.352 1030.55 205.016 1030.05 204.85 1029.06 209.824L1028.56 212.311 867.15 211.731C772.56 211.399 705.575 211.482 705.244 211.896 704.995 212.311 704.663 222.922 704.58 235.44L704.249 258.238 710.052 258.653C713.285 258.902 716.352 259.399 716.933 259.731 717.43 260.145 717.927 262.052 717.927 264.124L717.927 267.772 699.109 267.689C688.663 267.689 679.627 267.44 678.964 267.192Z" fill="#F9BA4E" transform="matrix(1 0 0 -1.00062 0 556.928)"/><path d="M854.964 266.446C853.471 265.699 850.984 263.627 849.409 261.969 845.762 257.907 845.181 254.342 845.845 239.337 846.425 226.57 846.756 225.575 851.979 221.927 855.047 219.855 856.207 219.606 865.161 219.109 870.632 218.86 880.166 218.943 886.549 219.275L898.073 219.855 901.057 222.591 904.041 225.326 904.29 235.689 904.622 246.052 895.585 245.886 886.632 245.803 886.383 236.435 886.135 227.067 882.653 227.316 879.171 227.565 879.171 243.316 879.171 259.067 891.772 259.316 904.29 259.565 904.622 263.295C904.788 265.368 904.705 267.192 904.539 267.44 904.373 267.606 893.679 267.772 880.912 267.772 861.264 267.772 857.202 267.523 854.964 266.446Z" fill="#F9BA4E" transform="matrix(1 0 0 -1.00062 0 556.928)"/><path d="M137.202 266.114C134.466 265.036 130.155 259.979 129.326 256.912 128.829 255.42 128.497 248.124 128.497 240.746 128.497 228.228 128.58 227.233 130.404 224.663 134.466 218.611 134.466 218.611 156.767 218.528 167.71 218.446 176.829 218.611 176.995 218.86 177.161 219.109 177.078 220.933 176.829 222.839L176.332 226.321 169.865 226.321 163.316 226.321 163.316 242.487 163.316 258.57 169.782 258.819 176.166 259.067 176.415 262.466 176.663 265.865 169.782 266.363C160.166 267.109 139.192 266.943 137.202 266.114Z" fill="#F9BA4E" transform="matrix(1 0 0 -1.00062 0 556.928)"/><path d="M372.974 266.363 365.016 266.031 362.031 255.088C360.373 249.036 358.964 243.233 358.798 242.155 358.632 240.995 358.135 240 357.72 239.834 356.891 239.585 355.15 244.725 351.42 258.902L349.513 266.114 325.72 266.114 301.927 266.114 301.845 242.487 301.679 218.86 317.679 218.86 333.679 218.86 333.43 232.539C333.181 241.741 333.43 246.218 334.01 246.218 335.337 246.218 336.249 243.896 338.238 235.44 339.316 231.13 340.642 225.658 341.306 223.337L342.466 219.109 353.078 218.446C358.881 218.197 365.347 218.114 367.42 218.446L371.15 219.026 374.881 232.373C376.87 239.668 378.943 245.803 379.523 246.052 380.269 246.301 380.518 242.984 380.518 232.622L380.518 218.86 390.301 218.86 400 218.86 399.751 242.653 399.503 266.529 390.218 266.611C385.078 266.611 377.368 266.529 372.974 266.363Z" fill="#F9BA4E" transform="matrix(1 0 0 -1.00062 0 556.928)"/><path d="M412.435 265.451C410.611 264.539 407.876 262.549 406.383 260.808L403.731 257.741 403.731 243.233C403.731 226.984 404.062 225.658 409.285 221.679L412.435 219.275 434.902 219.275 457.368 219.275 460.435 221.596C462.093 222.922 463.917 224.995 464.414 226.155 464.912 227.482 465.243 234.528 465.243 243.399 465.243 260.062 465.078 260.56 459.772 264.29L456.539 266.529 436.145 266.777C417.741 266.943 415.42 266.777 412.435 265.451ZM445.181 242.321 445.181 226.238 441.699 226.487 438.135 226.736 437.886 242.073C437.803 250.446 437.803 257.741 438.052 258.238 438.218 258.736 439.793 258.984 441.782 258.819L445.181 258.487 445.181 242.321Z" fill="#F9BA4E" transform="matrix(1 0 0 -1.00062 0 556.928)"/><path d="M469.969 266.611C469.803 266.446 469.72 255.585 469.886 242.57L470.135 218.86 485.803 218.86 501.554 218.86 501.554 233.368C501.554 241.326 501.886 247.876 502.218 247.876 503.13 247.876 505.119 241.244 508.021 228.808L510.259 219.275 528.332 219.026 546.321 218.86 546.321 242.902 546.321 267.026 536.705 266.777 527.005 266.529 527.171 251.606C527.254 242.902 527.005 237.016 526.591 237.513 525.927 238.259 523.109 247.378 519.212 261.14L517.637 266.529 494.01 266.777C480.995 266.86 470.218 266.777 469.969 266.611Z" fill="#F9BA4E" transform="matrix(1 0 0 -1.00062 0 556.928)"/><path d="M551.959 266.446C550.715 266.031 549.554 260.891 550.3 258.736 550.466 258.238 552.788 257.824 555.523 257.824L560.414 257.824 560.414 238.425 560.414 218.943 568.953 218.694C573.596 218.528 580.642 218.528 584.539 218.694L591.668 218.943 592.249 224C592.497 226.736 592.746 235.772 592.746 243.896L592.746 258.736 597.306 258.238C599.793 257.907 601.865 257.99 601.948 258.321 602.031 259.648 602.694 264.373 602.86 265.451 603.026 266.28 598.052 266.529 578.238 266.694 564.56 266.694 552.788 266.611 551.959 266.446Z" fill="#F9BA4E" transform="matrix(1 0 0 -1.00062 0 556.928)"/><path d="M620.601 266.363C616.041 266.114 614.383 265.617 612.062 263.876 607.005 259.979 606.839 259.067 606.839 238.093L606.839 219.109 614.964 218.694C619.357 218.446 626.736 218.446 631.295 218.694L639.668 219.109 639.668 221.679C639.668 223.088 639.751 227.15 639.834 230.715L640 237.098 643.316 237.098 646.632 237.098 646.632 232.373C646.632 229.72 646.881 225.658 647.13 223.337L647.71 219.026 652.352 218.694C654.922 218.528 658.984 218.528 661.389 218.694L665.699 219.026 665.699 238.674C665.699 255.751 665.534 258.57 664.29 260.311 661.223 264.705 659.648 265.617 654.093 266.28 648.788 266.86 631.627 266.86 620.601 266.363ZM646.632 251.606 646.632 244.56 643.316 244.56 640 244.56 640 251.606 640 258.653 643.316 258.653 646.632 258.653 646.632 251.606Z" fill="#F9BA4E" transform="matrix(1 0 0 -1.00062 0 556.928)"/><path d="M729.119 265.617C724.477 263.295 721.99 260.642 721.244 257.326 720.829 255.585 720.414 246.135 720.414 236.518L720.414 218.86 736.995 218.86 753.492 218.86 753.741 227.316 753.99 235.772 756.477 236.435C760.788 237.596 761.036 237.098 761.036 227.565L761.036 218.777 770.819 219.026 780.518 219.275 780.269 235.855C779.938 258.073 779.689 259.648 776.539 262.881 775.047 264.29 773.057 265.782 771.979 266.197 770.902 266.611 761.368 266.943 750.839 266.943 735.337 266.943 731.109 266.694 729.119 265.617ZM761.036 251.606C761.036 244.56 761.036 244.56 758.881 244.56 754.487 244.56 753.575 245.803 753.575 251.938 753.575 255.005 753.824 257.824 754.155 258.073 754.404 258.404 756.145 258.653 757.886 258.653L761.036 258.653 761.036 251.606Z" fill="#F9BA4E" transform="matrix(1 0 0 -1.00062 0 556.928)"/><path d="M784.083 266.363C783.917 265.948 783.917 255.171 784.083 242.321L784.332 218.86 800 218.86 815.751 218.86 815.917 226.984C816 231.378 816.083 235.938 816.083 237.098 816.166 238.839 816.58 239.171 819.316 239.42L822.383 239.668 822.549 232.373C822.632 228.394 822.798 224.332 822.881 223.42 822.964 222.508 823.047 221.098 823.13 220.352 823.212 219.026 824.207 218.86 832.332 218.86L841.451 218.86 841.617 222.01C841.865 227.15 841.285 236.601 840.622 238.259 840.29 239.171 838.798 240.332 837.223 240.829 833.409 242.155 833.161 244.145 836.725 246.218 841.699 249.119 843.44 257.244 840.041 261.803 836.477 266.694 835.067 266.943 808.539 266.943 795.275 266.943 784.249 266.694 784.083 266.363ZM822.383 253.762C822.383 248.373 821.886 247.544 818.653 248.373 816.746 248.87 816.58 249.202 816.58 253.762L816.58 258.653 819.482 258.653 822.383 258.653 822.383 253.762ZM832.746 224.663C834.238 224 834.155 223.917 832.166 223.917 830.922 223.834 829.679 224.249 829.43 224.663 828.85 225.658 830.425 225.658 832.746 224.663Z" fill="#F9BA4E" transform="matrix(1 0 0 -1.00062 0 556.928)"/><path d="M915.648 265.617C908.187 261.72 907.772 260.394 907.772 238.508 907.772 223.337 908.021 219.772 908.933 219.44 909.596 219.192 917.057 218.943 925.513 218.86L940.85 218.86 941.098 227.731 941.347 236.684 944.663 236.684 947.979 236.684 948.394 227.979 948.808 219.275 958.176 219.026 967.461 218.777 967.461 236.435C967.461 246.798 967.047 255.503 966.549 257.409 966.052 259.233 964.228 262.052 962.487 263.793L959.337 266.943 938.777 266.943C921.699 266.943 917.72 266.694 915.648 265.617ZM947.979 252.021 947.979 245.803 944.663 245.803 941.347 245.803 941.098 251.109C940.767 258.155 941.098 258.819 944.829 258.487L947.979 258.238 947.979 252.021Z" fill="#F9BA4E" transform="matrix(1 0 0 -1.00062 0 556.928)"/><path d="M978.653 265.451C974.259 263.378 970.777 259.233 970.694 255.917 970.529 250.031 971.026 247.378 972.684 244.891 975.751 240.249 976.58 240 993.161 239.585L1008.5 239.171 1008.5 233.368 1008.5 227.565 1005.02 227.316C1001.2 227.067 1001.28 226.984 1001.12 232.539L1001.04 235.026 986.528 235.44C978.57 235.689 971.606 235.772 971.192 235.606 969.948 235.275 969.782 231.627 970.777 227.896 971.357 225.824 972.767 223.917 975.088 222.01L978.57 219.275 999.461 219.275 1020.35 219.275 1022.09 221.347C1027.15 227.15 1028.39 234.611 1025.41 240.497 1023.25 244.725 1020.44 245.969 1009.74 247.212L1001.45 248.207 1001.45 252.187C1001.45 255.668 1001.7 256.332 1003.44 257.161 1006.26 258.404 1007.75 257.575 1008.33 254.674 1008.91 251.772 1010.57 251.192 1017.62 251.275 1024.41 251.358 1026.65 252.104 1026.98 254.342 1027.4 257.244 1025.66 261.471 1022.92 264.124L1020.44 266.529 1001.2 266.777C983.876 266.943 981.637 266.777 978.653 265.451Z" fill="#F9BA4E" transform="matrix(1 0 0 -1.00062 0 556.928)"/><path d="M22.7979 265.368 16.9948 264.87 17.2435 262.383C17.658 257.99 17.9067 257.824 23.0466 257.824L27.9378 257.824 28.5181 251.44C28.7668 247.959 29.0155 238.839 29.0155 231.13L29.0155 217.036 44.601 217.534 60.1036 218.031 60.5181 237.679 60.9326 257.409 65.0777 257.824 69.2228 258.238 69.4715 262.218 69.7202 266.114 49.1606 265.948C37.886 265.865 26.0311 265.617 22.7979 265.368Z" fill="#F9BA4E" transform="matrix(1 0 0 -1.00062 0 556.928)"/><path d="M73.7824 242.073 73.7824 218.031 99.8135 218.031 125.927 218.031 125.513 220.352C124.518 226.653 125.016 226.321 117.306 226.321L110.259 226.321 110.259 232.539 110.259 238.674 117.057 238.922 123.855 239.171 124.518 242.404C125.43 246.632 124.767 247.047 116.974 246.964 113.326 246.881 110.674 247.295 110.259 247.793 109.679 248.788 109.927 255.751 110.591 257.575 110.922 258.321 112.995 258.653 118.135 258.653 123.523 258.653 125.181 258.902 125.181 259.813 125.181 260.394 125.43 262.135 125.679 263.544L126.259 266.114 99.9793 266.114 73.7824 266.114 73.7824 242.073Z" fill="#F9BA4E" transform="matrix(1 0 0 -1.00062 0 556.928)"/><path d="M180.891 242.321 181.14 218.446 197.14 218.197 213.057 218.031 213.057 232.539C213.057 240.497 213.389 247.047 213.72 247.047 214.466 247.047 217.699 236.85 220.435 225.99 221.347 222.425 222.591 219.109 223.171 218.777 223.751 218.363 231.627 218.031 240.663 218.031L256.995 218.031 256.995 242.073 256.995 266.114 247.544 266.114 238.093 266.114 238.508 251.938C238.922 240.249 238.839 237.762 237.927 238.093 236.518 238.508 233.699 246.798 231.13 257.824L229.223 266.114 204.933 266.114 180.725 266.114 180.891 242.321Z" fill="#F9BA4E" transform="matrix(1 0 0 -1.00062 0 556.928)"/><path d="M262.135 242.321 262.383 218.446 279.627 218.197 296.788 218.031 296.788 242.073 296.788 266.114 279.378 266.114 261.969 266.114 262.135 242.321Z" fill="#F9BA4E" transform="matrix(1 0 0 -1.00062 0 556.928)"/><path d="M1090.16 264.456C1088.17 263.212 1089.58 262.964 1091.81 264.207 1092.97 264.788 1093.31 265.285 1092.64 265.285 1091.98 265.285 1090.82 264.953 1090.16 264.456Z" fill="#F9BA4E" transform="matrix(1 0 0 -1.00062 0 556.928)"/><path d="M1135.01 259.813C1135.01 258.902 1135.25 258.653 1135.5 259.316 1135.75 259.896 1135.67 260.642 1135.42 260.891 1135.17 261.223 1134.92 260.725 1135.01 259.813Z" fill="#F9BA4E" transform="matrix(1 0 0 -1.00062 0 556.928)"/><path d="M647.212 188.435 635.026 188.104 635.192 165.14 635.44 142.176 653.264 142.01C663.047 141.927 674.487 142.01 678.549 142.342L686.01 142.839 689.161 146.487 692.228 150.135 692.228 164.642C692.228 180.891 691.896 182.301 686.674 186.28 683.689 188.601 683.523 188.601 671.585 188.684 664.953 188.684 654.01 188.601 647.212 188.435ZM673.741 166.881C673.907 150.218 673.824 149.886 669.927 150.218L666.943 150.466 666.694 164.974C666.611 172.933 666.611 179.813 666.86 180.394 667.109 180.974 668.352 181.14 670.425 180.808L673.575 180.311 673.741 166.881Z" fill="#F9BA4E" transform="matrix(1 0 0 -1.00062 0 556.928)"/><path d="M709.637 188.187C703.917 187.772 701.347 186.363 697.782 181.803 696.041 179.648 695.959 178.819 695.959 160.829L695.959 142.176 711.71 142.176 727.461 142.176 727.71 150.715C727.876 158.425 728.041 159.171 729.534 159.337 734.342 159.751 734.093 160.249 734.508 150.881L734.922 142.176 743.627 142.176 752.332 142.176 752.249 160.995C752.249 179.399 752.166 179.813 750.176 182.715 749.098 184.29 747.275 186.114 746.114 186.694 743.793 187.855 718.922 188.933 709.637 188.187ZM734.093 177.99C734.425 176.912 734.508 174.176 734.342 171.938 734.093 167.876 734.093 167.876 731.192 167.876L728.29 167.876 728.041 172.767C727.71 178.984 728.124 179.896 731.109 179.896 733.098 179.896 733.762 179.482 734.093 177.99Z" fill="#F9BA4E" transform="matrix(1 0 0 -1.00062 0 556.928)"/><path d="M276.642 187.606C276.311 187.358 276.062 176.912 276.062 164.394L276.062 141.762 298.694 141.762C311.047 141.762 322.653 142.01 324.394 142.259 326.881 142.674 328.041 143.585 330.446 146.819L333.43 150.881 333.098 165.306C332.85 181.803 332.435 182.798 325.72 186.28 322.238 188.104 321.244 188.104 299.606 188.187 287.254 188.187 276.891 187.938 276.642 187.606ZM312.041 179.896 314.197 179.067 314.197 165.223C314.197 157.513 313.865 150.798 313.451 150.218 313.036 149.554 311.627 149.223 309.969 149.389L307.15 149.637 306.902 164.477C306.653 181.306 306.819 181.886 312.041 179.896Z" fill="#F9BA4E" transform="matrix(1 0 0 -1.00062 0 556.928)"/><path d="M337.326 187.606C336.995 185.202 337.575 153.368 337.99 151.71 338.736 148.394 342.632 143.503 344.87 142.756 346.031 142.425 354.653 142.176 364.187 142.176L381.347 142.176 384.249 145.409 387.15 148.725 387.15 168.456 387.15 188.187 379.275 188.187C374.964 188.187 371.316 188.104 371.316 188.021 371.233 187.855 370.902 179.233 370.653 168.705L370.155 149.637 368.083 149.637C366.176 149.637 365.927 150.052 365.43 154.197 365.181 156.684 364.933 165.389 364.85 173.513L364.767 188.187 351.088 188.187C343.544 188.187 337.409 187.938 337.326 187.606Z" fill="#F9BA4E" transform="matrix(1 0 0 -1.00062 0 556.928)"/><path d="M401.575 186.528C399.668 185.534 397.098 183.71 395.772 182.301L393.368 179.813 393.119 160.746 392.788 141.762 408.539 141.762 424.207 141.762 424.788 145.575C425.036 147.731 425.285 151.627 425.285 154.28L425.285 159.171 428.601 159.171 431.834 159.171 432.083 150.715 432.332 142.176 441.285 141.927 450.238 141.679 449.99 160.746C449.741 181.637 449.658 181.886 444.021 186.031 441.865 187.689 440.456 187.772 423.378 188.021 406.301 188.187 404.725 188.104 401.575 186.528ZM431.751 173.098 432 166.632 428.684 166.632C424.788 166.632 424.207 167.71 424.87 174.093 425.368 179.565 425.699 180.062 428.85 179.731L431.503 179.482 431.751 173.098Z" fill="#F9BA4E" transform="matrix(1 0 0 -1.00062 0 556.928)"/><path d="M452.808 165.223 453.057 142.176 474.611 141.927C486.466 141.845 496.912 141.927 497.824 142.093 499.233 142.425 499.482 143.088 499.233 146.238L498.902 149.969 493.43 150.218 487.876 150.466 487.378 168.705C487.047 178.736 486.798 187.192 486.715 187.606 486.715 187.938 479.005 188.187 469.637 188.187L452.56 188.187 452.808 165.223Z" fill="#F9BA4E" transform="matrix(1 0 0 -1.00062 0 556.928)"/><path d="M541.347 164.974 541.347 141.762 564.145 141.762 586.943 141.762 586.943 145.907 586.943 149.969 581.389 150.218 575.751 150.466 575.503 169.368 575.337 188.187 558.342 188.187 541.347 188.187 541.347 164.974Z" fill="#F9BA4E" transform="matrix(1 0 0 -1.00062 0 556.928)"/><path d="M582.135 183.876 582.383 179.482 587.192 179.233 591.917 178.984 591.917 161.409C591.917 151.71 592.249 143.337 592.58 142.756 593.161 142.01 596.725 141.762 607.751 141.927L622.176 142.176 622.591 160.166C622.839 170.446 623.337 178.487 623.834 178.984 624.332 179.399 626.321 179.896 628.394 180.062L632.124 180.311 632.373 184.29 632.622 188.187 607.254 188.187 581.886 188.187 582.135 183.876Z" fill="#F9BA4E" transform="matrix(1 0 0 -1.00062 0 556.928)"/><path d="M759.959 153.617C759.212 152.953 759.212 145.658 759.876 143.917 760.29 142.839 761.699 142.591 766.839 142.591L773.306 142.591 773.637 147.813C773.886 151.047 773.72 153.202 773.14 153.534 771.979 154.363 760.705 154.363 759.959 153.617Z" fill="#F9BA4E" transform="matrix(1 0 0 -1.00062 0 556.928)"/><path d="M1057.82 125.098C1057.82 123.689 1058.16 122.777 1058.65 123.109 1059.15 123.358 1059.48 124.518 1059.48 125.679 1059.48 126.756 1059.15 127.668 1058.65 127.668 1058.24 127.668 1057.82 126.508 1057.82 125.098Z" fill="#F9BA4E" transform="matrix(1 0 0 -1.00062 0 556.928)"/><path d="M1101.02 114.902C1101.18 114.736 1104.33 114.404 1107.98 114.155 1111.96 113.907 1113.95 113.99 1112.95 114.404 1111.38 115.067 1100.27 115.565 1101.02 114.902Z" fill="#F9BA4E" transform="matrix(1 0 0 -1.00062 0 556.928)"/></g></svg>