<?xml version="1.0" standalone="no"?>
<!DOCTYPE svg PUBLIC "-//W3C//DTD SVG 20010904//EN"
 "http://www.w3.org/TR/2001/REC-SVG-20010904/DTD/svg10.dtd">
<svg version="1.0" xmlns="http://www.w3.org/2000/svg"
 width="512.000000pt" height="512.000000pt" viewBox="0 0 512.000000 512.000000"
 preserveAspectRatio="xMidYMid meet">

<g transform="translate(0.000000,512.000000) scale(0.100000,-0.100000)"
fill="#000000" stroke="none">
<path d="M1964 5097 c-59 -29 -116 -91 -132 -146 -8 -26 -12 -156 -12 -405 l0
-366 -724 0 -725 0 -28 -24 -28 -24 0 -297 0 -297 24 -19 c28 -22 69 -25 97
-5 18 13 19 32 24 263 l5 248 193 3 192 2 0 -220 0 -221 25 -24 c13 -14 33
-25 44 -25 11 0 65 16 120 36 l101 37 103 -37 c56 -20 110 -36 120 -36 10 0
29 11 42 25 l25 24 0 221 0 220 195 0 195 0 0 -640 0 -640 -680 0 -680 0 0
279 0 280 -26 20 c-35 27 -57 26 -91 -3 l-28 -24 -3 -991 -2 -991 -121 0
c-154 0 -189 -16 -189 -84 0 -12 10 -32 23 -44 l23 -22 872 0 c694 0 872 -3
872 -13 0 -7 -22 -115 -50 -240 -55 -250 -57 -271 -35 -324 36 -85 77 -106
219 -113 l110 -5 11 -52 c44 -193 214 -360 416 -408 283 -66 583 115 656 397
l17 68 297 0 297 0 6 -45 c4 -25 26 -82 48 -127 123 -245 411 -365 668 -278
82 28 187 97 240 158 51 59 117 188 125 246 l7 44 87 4 c75 2 93 7 128 30 24
16 49 44 62 70 20 43 21 58 21 421 0 398 -2 420 -48 470 -26 30 -88 57 -127
57 l-35 0 0 908 0 907 49 18 c34 12 63 33 93 66 89 99 91 219 4 318 -68 78
-88 83 -338 83 -205 0 -219 -1 -238 -20 -30 -30 -27 -83 6 -109 25 -20 40 -21
226 -21 l200 0 29 -29 c39 -40 39 -82 0 -122 l-29 -29 -1017 0 -1017 0 -29 29
c-20 20 -29 39 -29 61 0 22 9 41 29 61 l29 29 685 0 c677 0 685 0 711 21 33
26 36 79 6 109 -20 20 -33 20 -722 20 -797 0 -747 5 -824 -83 -61 -69 -78
-144 -52 -231 18 -58 100 -140 158 -157 25 -7 46 -14 48 -15 2 -1 -137 -722
-153 -789 -3 -12 -22 -27 -52 -40 -65 -26 -135 -98 -156 -160 -15 -42 -17
-101 -17 -437 l0 -388 -100 0 -100 0 0 1688 c0 1131 -4 1699 -10 1724 -39 138
-208 216 -336 155z m145 -141 c15 -8 32 -26 39 -41 9 -20 12 -424 12 -1704 l0
-1678 -50 -6 c-27 -3 -70 -15 -95 -26 l-45 -20 0 1712 c0 1557 1 1715 16 1735
28 41 77 52 123 28z m-829 -1080 l0 -153 -70 25 -70 25 -70 -26 -70 -26 0 155
0 154 140 0 140 0 0 -154z m3470 -1436 l0 -910 -95 0 -94 0 -3 683 -3 682 -24
49 c-29 58 -77 108 -134 138 -60 32 -194 33 -252 1 -55 -29 -110 -88 -137
-148 -23 -50 -23 -54 -28 -575 l-5 -525 -407 -3 c-225 -1 -408 0 -408 3 0 3
74 115 166 250 l165 245 50 -27 c49 -25 52 -25 85 -10 40 20 54 59 33 96 -21
37 -281 191 -323 191 -41 0 -69 -29 -69 -72 0 -31 17 -52 71 -88 l23 -15 -138
-203 -138 -204 -5 169 c-4 137 -9 174 -24 203 -34 64 -67 100 -120 130 l-53
30 79 397 c43 219 80 404 83 411 3 9 184 12 855 12 l850 0 0 -910z m-393 489
c54 -50 53 -36 53 -744 l0 -655 -425 0 c-412 0 -426 -1 -445 -20 -28 -28 -26
-75 5 -105 l24 -25 689 0 c522 0 691 -3 700 -12 17 -17 17 -709 0 -726 -7 -7
-39 -12 -73 -12 l-60 0 -13 53 c-47 203 -218 368 -427 412 -88 18 -132 18
-220 0 -209 -44 -380 -209 -427 -412 l-13 -53 -296 0 -296 0 -11 51 c-34 145
-159 302 -292 367 -221 108 -471 64 -645 -112 -65 -67 -116 -157 -138 -246
l-14 -55 -85 -3 c-67 -2 -88 1 -98 13 -10 12 -1 66 50 302 64 292 79 340 122
380 57 53 51 53 687 53 417 0 597 3 615 11 51 23 55 103 7 128 -13 7 -135 11
-345 11 l-326 0 0 381 c0 365 1 383 20 414 46 75 145 84 209 21 l36 -36 5
-253 c5 -274 9 -291 66 -336 50 -39 87 -42 561 -39 456 3 458 3 494 26 78 48
73 13 79 617 6 600 2 571 73 616 43 27 117 21 154 -12z m-3507 -549 l0 -221
25 -24 c13 -14 33 -25 44 -25 11 0 65 16 120 36 l101 37 103 -37 c56 -20 110
-36 120 -36 10 0 29 11 42 25 l25 24 0 221 0 220 195 0 195 0 0 -640 0 -640
-680 0 -680 0 0 633 c0 349 3 637 7 640 3 4 91 7 195 7 l188 0 0 -220z m430
66 l0 -153 -70 25 -70 25 -70 -26 -70 -26 0 155 0 154 140 0 140 0 0 -154z
m1382 -1497 c209 -44 354 -252 318 -457 -14 -82 -49 -151 -107 -213 -196 -209
-532 -154 -656 109 -29 61 -32 75 -32 167 0 92 3 106 32 168 81 170 264 264
445 226z m1690 0 c77 -16 146 -53 204 -111 236 -231 109 -624 -219 -681 -215
-36 -422 115 -460 336 -34 202 102 402 308 453 64 16 102 17 167 3z"/>
<path d="M622 1807 c-29 -31 -28 -72 3 -102 23 -24 29 -25 163 -25 126 0 142
2 166 21 33 26 36 79 6 109 -18 18 -33 20 -168 20 -142 0 -149 -1 -170 -23z"/>
<path d="M622 1567 c-29 -31 -28 -72 3 -102 l24 -25 255 0 c253 0 255 0 282
23 35 31 38 82 5 109 -21 16 -45 18 -285 18 -261 0 -263 0 -284 -23z"/>
<path d="M2539 790 c-161 -29 -247 -215 -164 -356 100 -170 354 -154 429 28
21 51 20 143 -3 193 -43 95 -158 154 -262 135z m106 -175 c47 -46 22 -134 -41
-149 -37 -10 -82 11 -99 45 -21 40 -19 63 11 98 34 41 92 44 129 6z"/>
<path d="M4235 790 c-114 -17 -198 -117 -198 -235 -1 -109 68 -201 172 -232
199 -58 374 152 281 337 -48 95 -147 145 -255 130z m105 -175 c53 -56 12 -149
-65 -149 -77 0 -118 93 -65 149 18 19 34 25 65 25 31 0 47 -6 65 -25z"/>
<path d="M622 3237 c-29 -31 -28 -72 3 -102 23 -24 29 -25 163 -25 126 0 142
2 166 21 33 26 36 79 6 109 -18 18 -33 20 -168 20 -142 0 -149 -1 -170 -23z"/>
<path d="M622 2997 c-29 -31 -28 -72 3 -102 l24 -25 255 0 c253 0 255 0 282
23 35 31 38 82 5 109 -21 16 -45 18 -285 18 -261 0 -263 0 -284 -23z"/>
</g>
</svg>
