<?xml version="1.0" standalone="no"?>
<!DOCTYPE svg PUBLIC "-//W3C//DTD SVG 20010904//EN"
 "http://www.w3.org/TR/2001/REC-SVG-20010904/DTD/svg10.dtd">
<svg version="1.0" xmlns="http://www.w3.org/2000/svg"
 width="512.000000pt" height="512.000000pt" viewBox="0 0 512.000000 512.000000"
 preserveAspectRatio="xMidYMid meet">

<g transform="translate(0.000000,512.000000) scale(0.100000,-0.100000)"
fill="#000000" stroke="none">
<path d="M1960 4931 c-124 -21 -235 -42 -247 -49 -12 -7 -25 -22 -28 -33 -4
-12 -4 -128 -1 -258 l6 -236 -128 -62 c-70 -35 -131 -63 -136 -63 -4 0 -91 65
-193 145 -148 115 -192 145 -217 145 -26 0 -56 -26 -223 -193 -167 -166 -193
-197 -193 -223 0 -24 30 -70 145 -217 80 -102 145 -189 145 -193 0 -5 -28 -66
-62 -136 l-63 -128 -246 6 c-241 7 -247 6 -267 -14 -12 -12 -24 -32 -27 -44
-10 -46 -75 -471 -75 -493 0 -51 26 -64 265 -134 l230 -66 3 -40 c3 -43 28
-196 38 -231 5 -19 -19 -38 -183 -149 -103 -70 -196 -136 -205 -147 -10 -11
-18 -31 -18 -44 0 -35 225 -479 252 -498 12 -9 29 -16 38 -16 8 0 115 36 237
80 l221 79 106 -105 107 -105 -81 -222 c-44 -122 -80 -229 -80 -237 0 -9 7
-26 16 -38 19 -27 463 -252 498 -252 13 0 33 8 44 18 11 9 78 102 147 205 110
163 130 188 149 183 34 -8 198 -35 236 -38 l34 -3 67 -230 c70 -238 83 -265
133 -265 38 0 480 71 509 82 15 6 33 20 38 31 15 27 1 557 -15 589 -6 13 -24
29 -40 37 -25 12 -33 11 -62 -3 -21 -10 -36 -25 -40 -42 -4 -15 -4 -127 0
-250 l7 -222 -63 -11 c-143 -24 -270 -42 -272 -39 -2 2 -30 99 -64 217 -39
134 -70 223 -82 236 -17 18 -40 24 -139 34 -65 6 -155 21 -200 31 -106 26
-133 25 -158 -3 -11 -12 -74 -101 -140 -198 l-119 -176 -149 75 c-83 41 -151
75 -152 76 -1 1 34 100 77 220 44 120 80 224 80 232 0 7 -75 89 -167 181 -147
147 -171 167 -198 165 -16 -1 -122 -35 -235 -76 -112 -41 -205 -74 -206 -73
-1 1 -35 69 -77 152 l-74 149 176 119 c97 65 186 128 199 140 27 25 28 52 2
159 -11 46 -25 133 -30 193 -6 61 -16 120 -22 132 -14 27 -21 30 -263 99 -110
31 -201 58 -203 60 -2 1 8 75 22 163 14 88 26 163 26 166 0 3 105 2 233 -2
162 -4 239 -3 253 5 12 6 38 51 62 105 23 52 58 123 79 158 76 132 83 148 72
176 -5 14 -71 105 -146 201 l-136 174 120 120 121 120 181 -141 c101 -77 190
-142 199 -142 34 -3 48 3 137 55 50 29 134 72 188 97 56 24 103 52 109 63 8
14 9 95 5 253 -4 128 -5 233 -2 233 3 0 78 12 166 26 88 14 162 24 164 22 1
-2 30 -99 64 -217 38 -137 68 -222 81 -236 17 -18 39 -23 139 -34 65 -6 155
-21 200 -31 106 -26 133 -25 158 3 14 15 235 336 258 374 1 2 290 -143 302
-151 1 -1 -34 -100 -78 -221 -43 -120 -79 -224 -79 -231 0 -7 75 -88 167 -180
147 -148 171 -168 198 -166 16 0 122 35 235 76 112 41 205 74 206 73 5 -7 152
-302 151 -303 -21 -10 -359 -243 -374 -257 -28 -25 -29 -52 -3 -159 11 -46 25
-132 30 -193 6 -60 16 -120 22 -132 14 -28 22 -31 263 -99 110 -31 201 -58
203 -59 3 -3 -15 -129 -39 -273 l-11 -62 -222 6 c-122 4 -234 4 -249 0 -32 -8
-60 -56 -51 -90 14 -58 22 -60 319 -70 150 -5 285 -6 299 -2 17 4 32 18 41 39
13 29 85 465 85 513 0 50 -27 63 -265 133 l-230 67 -3 40 c-3 42 -28 196 -38
230 -5 19 19 38 183 148 103 70 196 137 206 148 9 11 17 31 17 44 0 35 -225
479 -252 498 -12 9 -29 16 -38 16 -8 0 -114 -36 -236 -80 l-222 -80 -106 106
-107 105 81 222 c44 122 80 229 80 237 0 9 -7 26 -16 38 -19 27 -463 252 -498
252 -13 0 -33 -8 -44 -17 -11 -10 -78 -103 -148 -206 -110 -164 -129 -188
-148 -183 -31 9 -195 35 -235 38 l-35 3 -67 230 c-73 251 -82 266 -148 264
-20 -1 -137 -18 -261 -38z"/>
<path d="M3865 4775 c-16 -15 -25 -36 -25 -55 0 -19 9 -40 25 -55 15 -16 36
-25 55 -25 19 0 40 9 55 25 16 15 25 36 25 55 0 19 -9 40 -25 55 -15 16 -36
25 -55 25 -19 0 -40 -9 -55 -25z"/>
<path d="M4094 4537 c-35 -30 -36 -75 -3 -116 134 -163 183 -227 226 -291 170
-255 289 -541 354 -850 24 -114 49 -337 49 -438 0 -64 3 -76 25 -97 15 -16 36
-25 55 -25 19 0 40 9 55 25 22 21 25 33 25 92 0 91 -17 277 -36 388 -72 427
-265 853 -541 1192 -120 148 -154 167 -209 120z"/>
<path d="M2185 3994 c-306 -47 -543 -167 -738 -374 -400 -425 -435 -1076 -85
-1541 76 -101 130 -149 167 -149 38 0 69 27 77 66 5 26 -1 39 -40 85 -81 96
-135 174 -175 255 -235 474 -81 1042 363 1335 251 166 583 212 870 123 148
-47 269 -116 415 -240 46 -39 59 -45 85 -40 39 8 66 39 66 77 0 59 -152 187
-326 276 -175 89 -312 123 -514 128 -74 2 -148 1 -165 -1z"/>
<path d="M2265 3495 c-16 -16 -25 -35 -25 -57 0 -29 25 -57 237 -270 l237
-238 -32 -226 c-17 -125 -33 -229 -35 -231 -2 -2 -106 -18 -231 -35 l-226 -32
-238 237 c-213 212 -241 237 -270 237 -22 0 -41 -9 -57 -25 l-25 -24 0 -273 0
-272 293 -294 c160 -161 304 -300 318 -307 22 -12 55 -10 260 19 l234 33 790
-789 c725 -723 793 -788 823 -788 44 0 82 38 82 82 0 30 -66 98 -807 841 -445
444 -818 810 -830 813 -13 4 -127 -8 -254 -26 l-232 -32 -258 258 -259 259 0
125 0 124 183 -182 c111 -110 191 -182 203 -182 10 0 152 19 314 42 250 36
298 45 315 63 18 17 27 65 63 315 23 162 42 304 42 314 0 12 -72 92 -182 203
l-182 183 124 0 125 0 255 -255 256 -256 -29 -234 c-16 -129 -27 -245 -24
-257 4 -13 280 -296 614 -630 557 -556 611 -608 641 -608 44 0 82 38 82 82 0
30 -50 83 -589 623 l-589 590 30 234 c16 128 27 243 24 255 -3 11 -139 155
-304 319 l-298 297 -272 0 -273 0 -24 -25z"/>
<path d="M2105 3015 c-50 -49 -15 -135 55 -135 41 0 80 39 80 80 0 41 -39 80
-80 80 -19 0 -40 -9 -55 -25z"/>
<path d="M2265 2855 c-50 -49 -15 -135 55 -135 41 0 80 39 80 80 0 41 -39 80
-80 80 -19 0 -40 -9 -55 -25z"/>
<path d="M3065 2055 c-17 -16 -25 -35 -25 -57 0 -30 72 -105 903 -935 830
-831 905 -903 935 -903 44 0 82 38 82 82 0 30 -72 105 -903 935 -830 831 -905
903 -935 903 -22 0 -41 -8 -57 -25z"/>
<path d="M365 1265 c-32 -31 -32 -72 0 -116 45 -61 247 -259 348 -340 231
-186 486 -329 758 -424 128 -45 344 -98 463 -115 83 -12 90 -11 115 7 19 15
27 30 29 60 4 52 -26 78 -101 88 -101 13 -313 64 -427 103 -380 130 -668 315
-966 618 -154 157 -172 167 -219 119z"/>
<path d="M4665 1015 c-50 -49 -15 -135 55 -135 41 0 80 39 80 80 0 41 -39 80
-80 80 -19 0 -40 -9 -55 -25z"/>
<path d="M2265 375 c-50 -49 -15 -135 55 -135 41 0 80 39 80 80 0 41 -39 80
-80 80 -19 0 -40 -9 -55 -25z"/>
</g>
</svg>
