<?xml version="1.0" standalone="no"?>
<!DOCTYPE svg PUBLIC "-//W3C//DTD SVG 20010904//EN"
 "http://www.w3.org/TR/2001/REC-SVG-20010904/DTD/svg10.dtd">
<svg version="1.0" xmlns="http://www.w3.org/2000/svg"
 width="512.000000pt" height="512.000000pt" viewBox="0 0 512.000000 512.000000"
 preserveAspectRatio="xMidYMid meet">

<g transform="translate(0.000000,512.000000) scale(0.100000,-0.100000)"
fill="#000000" stroke="none">
<path d="M2545 5108 c-27 -5 -88 -27 -134 -49 -147 -72 -255 -204 -296 -364
-12 -48 -15 -138 -15 -495 l0 -435 -762 3 c-526 2 -778 -1 -814 -8 -139 -29
-259 -125 -322 -257 -37 -78 -37 -79 -40 -229 -4 -144 -3 -153 17 -173 31 -31
84 -28 110 5 19 24 21 40 21 145 0 95 4 129 21 174 24 65 87 132 156 166 l48
24 765 0 765 0 52 -24 c65 -29 134 -101 159 -166 18 -48 19 -84 19 -780 l0
-730 -125 -5 c-111 -4 -131 -8 -182 -33 -74 -36 -141 -111 -169 -187 -21 -57
-25 -62 -187 -187 -91 -70 -169 -129 -173 -131 -4 -2 -9 46 -11 106 -5 166 43
150 -466 154 -379 4 -432 6 -474 22 -63 23 -133 87 -166 150 l-27 51 -5 436
c-5 412 -6 438 -24 458 -25 27 -79 28 -106 1 -19 -19 -20 -33 -20 -449 0 -469
2 -490 63 -593 37 -64 128 -145 200 -179 90 -41 166 -48 545 -49 l332 0 0
-153 c0 -166 3 -175 57 -191 30 -10 42 -2 240 151 96 74 180 136 188 139 12 5
15 -62 17 -463 l3 -468 28 -53 c37 -70 97 -128 166 -161 56 -26 58 -26 329
-29 l272 -3 0 -89 c0 -49 5 -100 11 -113 12 -26 47 -47 77 -47 9 0 89 56 178
124 l160 123 90 5 c153 7 255 73 317 205 28 61 30 74 31 185 1 114 0 121 -23
139 -28 23 -69 25 -97 4 -19 -12 -22 -27 -26 -127 -6 -122 -16 -154 -65 -200
-45 -43 -93 -58 -187 -58 l-85 0 -113 -85 -113 -86 -3 65 c-2 56 -6 68 -29 86
-25 19 -39 20 -322 20 -267 0 -300 2 -336 19 -47 22 -89 64 -104 104 -7 19
-11 210 -11 563 0 505 1 537 19 572 22 42 43 63 88 86 28 14 94 16 573 16 479
0 545 -2 573 -16 46 -23 66 -44 90 -89 20 -37 22 -59 25 -265 4 -253 6 -260
72 -260 25 0 43 7 56 21 18 20 19 39 18 253 0 218 -1 234 -24 291 -32 81 -114
164 -193 193 -55 21 -73 22 -427 22 l-370 0 0 196 c0 183 1 196 18 189 75 -30
158 -35 590 -35 l442 0 0 -199 0 -200 26 -20 c15 -12 37 -21 49 -21 15 0 129
81 307 218 l283 217 170 6 c148 5 180 10 244 32 136 48 252 146 315 267 69
130 67 93 64 1163 l-3 962 -29 70 c-60 146 -155 248 -291 311 -94 43 -161 54
-337 54 -135 0 -150 -2 -168 -20 -27 -27 -27 -83 2 -110 20 -18 35 -20 168
-20 214 0 295 -26 394 -127 26 -26 61 -76 79 -112 l32 -66 0 -975 0 -975 -32
-66 c-36 -73 -114 -154 -181 -188 -78 -40 -147 -51 -313 -51 l-157 0 -233
-179 -234 -179 -5 160 c-5 153 -6 161 -29 179 -22 18 -46 19 -507 19 -498 0
-552 4 -626 41 l-38 19 0 440 c0 284 -4 458 -11 492 -18 86 -58 158 -126 229
l-64 66 3 484 3 484 31 65 c33 71 102 146 167 185 92 53 114 55 724 55 550 0
563 0 583 20 12 12 20 33 20 55 0 22 -8 43 -20 55 -20 20 -33 20 -592 19 -315
-1 -595 -5 -623 -11z"/>
<path d="M3610 4552 c-50 -27 -78 -73 -85 -140 -9 -89 -33 -173 -64 -222 -16
-25 -79 -102 -141 -172 -99 -112 -114 -126 -127 -113 -12 12 -56 15 -253 15
-235 0 -239 0 -254 -22 -14 -20 -16 -84 -16 -505 0 -470 1 -484 20 -503 19
-19 33 -20 253 -20 220 0 235 1 252 20 17 19 18 19 54 1 105 -54 126 -56 576
-56 417 0 420 0 462 23 24 12 55 41 70 64 l28 42 3 400 c2 221 0 416 -3 434
-8 42 -59 100 -110 123 -34 16 -68 19 -244 19 -190 0 -203 1 -196 18 51 121
65 248 41 362 -20 95 -68 193 -108 221 -43 31 -113 36 -158 11z m93 -178 c10
-19 23 -66 29 -104 15 -89 1 -171 -53 -296 -21 -51 -39 -102 -39 -114 0 -11
11 -32 25 -45 l24 -25 264 0 c191 0 266 -3 275 -12 9 -9 12 -110 12 -395 0
-368 -1 -383 -19 -393 -26 -13 -705 -13 -790 0 -67 11 -124 36 -178 77 l-33
24 0 294 0 293 175 199 c114 129 187 221 209 263 39 74 66 168 66 229 0 50 11
52 33 5z m-633 -979 l0 -375 -125 0 -125 0 0 375 0 375 125 0 125 0 0 -375z"/>
<path d="M1166 3161 c-15 -16 -31 -94 -66 -308 0 -2 -72 -3 -159 -3 -152 0
-161 -1 -185 -22 -36 -33 -39 -75 -6 -108 18 -18 33 -20 170 -20 l150 0 0 -27
c-1 -16 -6 -57 -13 -93 l-12 -65 -140 -3 c-159 -3 -175 -10 -175 -72 0 -64 22
-74 166 -79 68 -1 124 -4 124 -5 0 0 -9 -53 -20 -116 -11 -63 -20 -127 -20
-141 0 -34 39 -69 77 -69 50 0 64 26 89 177 13 76 24 141 24 146 0 4 41 7 90
7 59 0 90 -4 90 -11 0 -6 -10 -67 -21 -136 -21 -125 -21 -125 -2 -152 27 -35
77 -40 108 -11 19 18 27 46 46 166 l23 144 146 0 c153 0 204 9 220 40 14 26
12 63 -4 86 -13 17 -31 20 -173 24 -181 6 -164 -8 -143 118 l12 72 137 0 c131
0 139 1 159 23 29 31 28 72 -3 102 -23 24 -30 25 -145 25 -74 0 -120 4 -120
10 0 6 9 67 20 137 20 125 20 128 2 153 -31 41 -104 39 -123 -3 -5 -12 -20
-83 -32 -157 l-23 -135 -90 -3 -91 -3 18 108 c24 139 24 185 1 206 -25 23 -85
22 -106 -2z m244 -463 c0 -16 -31 -171 -35 -178 -3 -6 -44 -10 -91 -10 -94 0
-90 -5 -74 86 20 115 9 104 110 104 50 0 90 -1 90 -2z"/>
<path d="M2352 1404 c-56 -28 -90 -63 -125 -128 -18 -33 -22 -58 -22 -131 0
-82 3 -97 33 -157 23 -48 52 -85 101 -130 67 -62 196 -146 259 -170 40 -15 66
-7 175 59 117 70 209 160 249 241 30 60 33 75 33 157 0 81 -3 95 -30 144 -31
56 -88 106 -148 128 -57 21 -148 16 -200 -11 l-47 -23 -47 23 c-67 34 -160 33
-231 -2z m204 -171 c33 -36 50 -46 74 -46 24 0 41 10 74 46 38 42 48 47 85 47
33 0 49 -7 79 -34 36 -34 37 -36 37 -104 0 -62 -4 -75 -30 -114 -36 -50 -124
-123 -195 -162 l-50 -27 -48 26 c-71 38 -158 109 -192 156 -53 73 -52 175 1
229 25 25 39 30 76 30 42 0 50 -4 89 -47z"/>
</g>
</svg>
