<svg width="59" height="67" xmlns="http://www.w3.org/2000/svg" xmlns:xlink="http://www.w3.org/1999/xlink" xml:space="preserve" overflow="hidden"><defs><clipPath id="clip0"><rect x="560" y="133" width="59" height="67"/></clipPath></defs><g clip-path="url(#clip0)" transform="translate(-560 -133)"><path d="M7.552 51.448C5.31 49.206 3.54 46.492 3.54 45.312 3.658 33.158 33.158 3.658 45.194 3.54 47.908 3.54 55.46 10.856 55.46 13.452 55.46 14.514 52.51 17.228 48.97 19.706 42.48 23.954 42.362 23.954 38.468 22.066L34.574 20.296 27.376 27.494 20.296 34.81 22.184 38.586C23.954 42.362 23.954 42.48 19.706 48.97 17.228 52.51 14.514 55.46 13.452 55.46 12.39 55.46 9.794 53.69 7.552 51.448Z" fill="#262626" transform="matrix(1 0 0 -1.13559 560 200)"/></g></svg>